G04 EAGLE Gerber RS-274X export*
G75*
%MOMM*%
%FSLAX34Y34*%
%LPD*%
%INSoldermask Top*%
%IPPOS*%
%AMOC8*
5,1,8,0,0,1.08239X$1,22.5*%
G01*
%ADD10P,1.649562X8X22.500000*%
%ADD11P,1.649562X8X202.500000*%
%ADD12P,1.951982X8X22.500000*%
%ADD13C,1.803400*%
%ADD14P,1.951982X8X202.500000*%
%ADD15C,3.251200*%
%ADD16C,1.524000*%
%ADD17C,1.411200*%
%ADD18P,1.759533X8X112.500000*%
%ADD19P,1.649562X8X112.500000*%
%ADD20P,1.649562X8X292.500000*%
%ADD21C,0.959600*%


D10*
X228600Y596900D03*
X279400Y596900D03*
D11*
X279400Y812800D03*
X228600Y812800D03*
D10*
X228600Y95250D03*
X279400Y95250D03*
D11*
X279400Y234950D03*
X228600Y234950D03*
D12*
X222250Y501650D03*
D13*
X196850Y501650D03*
D14*
X260350Y501650D03*
D13*
X285750Y501650D03*
D15*
X70000Y867410D02*
X70000Y897890D01*
X17000Y897890D02*
X17000Y867410D01*
X128000Y867410D02*
X128000Y897890D01*
X70000Y783590D02*
X70000Y753110D01*
X17000Y753110D02*
X17000Y783590D01*
X128000Y783590D02*
X128000Y753110D01*
X70000Y669290D02*
X70000Y638810D01*
X17000Y638810D02*
X17000Y669290D01*
X128000Y669290D02*
X128000Y638810D01*
X70000Y554990D02*
X70000Y524510D01*
X17000Y524510D02*
X17000Y554990D01*
X128000Y554990D02*
X128000Y524510D01*
X70000Y402590D02*
X70000Y372110D01*
X17000Y372110D02*
X17000Y402590D01*
X128000Y402590D02*
X128000Y372110D01*
X70000Y288290D02*
X70000Y257810D01*
X17000Y257810D02*
X17000Y288290D01*
X128000Y288290D02*
X128000Y257810D01*
X70000Y173990D02*
X70000Y143510D01*
X17000Y143510D02*
X17000Y173990D01*
X128000Y173990D02*
X128000Y143510D01*
X70000Y59690D02*
X70000Y29210D01*
X17000Y29210D02*
X17000Y59690D01*
X128000Y59690D02*
X128000Y29210D01*
D16*
X285496Y628650D02*
X298704Y628650D01*
X298704Y654050D02*
X285496Y654050D01*
X285496Y781050D02*
X298704Y781050D01*
X222504Y781050D02*
X209296Y781050D01*
X285496Y679450D02*
X298704Y679450D01*
X298704Y704850D02*
X285496Y704850D01*
X285496Y755650D02*
X298704Y755650D01*
X298704Y730250D02*
X285496Y730250D01*
X222504Y755650D02*
X209296Y755650D01*
X209296Y730250D02*
X222504Y730250D01*
X222504Y704850D02*
X209296Y704850D01*
X209296Y679450D02*
X222504Y679450D01*
X222504Y654050D02*
X209296Y654050D01*
X209296Y628650D02*
X222504Y628650D01*
D17*
X286060Y127000D02*
X298140Y127000D01*
X298140Y152400D02*
X286060Y152400D01*
X286060Y177800D02*
X298140Y177800D01*
X298140Y203200D02*
X286060Y203200D01*
X221940Y203200D02*
X209860Y203200D01*
X209860Y177800D02*
X221940Y177800D01*
X221940Y152400D02*
X209860Y152400D01*
X209860Y127000D02*
X221940Y127000D01*
D18*
X266700Y311150D03*
X241300Y311150D03*
X266700Y336550D03*
X241300Y336550D03*
X266700Y361950D03*
X241300Y361950D03*
X266700Y387350D03*
X241300Y387350D03*
X266700Y412750D03*
X241300Y412750D03*
D19*
X177800Y787400D03*
X177800Y812800D03*
D20*
X177800Y742950D03*
X177800Y717550D03*
X177800Y609600D03*
X177800Y584200D03*
X177800Y342900D03*
X177800Y317500D03*
D19*
X177800Y196850D03*
X177800Y222250D03*
D20*
X177800Y152400D03*
X177800Y127000D03*
D19*
X177800Y406400D03*
X177800Y431800D03*
D20*
X177800Y863600D03*
X177800Y838200D03*
D21*
X254000Y533400D03*
X254000Y730250D03*
X254000Y679450D03*
X241300Y717550D03*
X215900Y431800D03*
X165100Y546100D03*
X215900Y546100D03*
M02*
