M48
;GenerationSoftware,Autodesk,EAGLE,9.6.2*%
;CreationDate,2021-08-06T13:38:41Z*%
FMAT,2
ICI,OFF
METRIC,TZ,000.000
T5C0.350
T4C0.700
T3C0.813
T2C0.914
T1C2.032
%
G90
M71
T1
X1700Y27305
X1700Y38735
X7000Y38735
X12800Y53975
X1700Y53975
X7000Y53975
X12800Y65405
X1700Y65405
X7000Y65405
X12800Y76835
X12800Y4445
X1700Y4445
X7000Y4445
X12800Y15875
X1700Y15875
X7000Y15875
X12800Y27305
X12800Y38735
X7000Y27305
X7000Y88265
X1700Y88265
X12800Y88265
X7000Y76835
X1700Y76835
T2
X26670Y31115
X24130Y31115
X26670Y33655
X24130Y33655
X26670Y36195
X24130Y36195
X26670Y38735
X24130Y38735
X26670Y41275
X24130Y41275
T3
X28575Y50165
X26035Y50165
X19685Y50165
X22225Y50165
X22860Y23495
X27940Y23495
X27940Y9525
X22860Y9525
X22860Y81280
X29210Y62865
X29210Y65405
X17780Y83820
X21590Y78105
X29210Y67945
X29210Y70485
X29210Y75565
X29210Y73025
X21590Y75565
X21590Y73025
X21590Y70485
X21590Y67945
X21590Y65405
X21590Y62865
X17780Y86360
X17780Y43180
X17780Y40640
X17780Y12700
X17780Y15240
X17780Y22225
X17780Y19685
X17780Y31750
X27940Y81280
X27940Y59690
X22860Y59690
X17780Y34290
X17780Y58420
X17780Y60960
X17780Y71755
X17780Y74295
X17780Y81280
X29210Y78105
X17780Y78740
T4
X21590Y15240
X21590Y12700
X21590Y17780
X21590Y20320
X29210Y20320
X29210Y17780
X29210Y15240
X29210Y12700
T5
X25400Y67945
X24130Y71755
X21590Y43180
X16510Y54610
X21590Y54610
X25400Y73025
X25400Y53340
M30