G04 EAGLE Gerber RS-274X export*
G75*
%MOMM*%
%FSLAX34Y34*%
%LPD*%
%INBottom Copper*%
%IPPOS*%
%AMOC8*
5,1,8,0,0,1.08239X$1,22.5*%
G01*
%ADD10P,1.429621X8X22.500000*%
%ADD11P,1.429621X8X202.500000*%
%ADD12P,1.732040X8X22.500000*%
%ADD13C,1.600200*%
%ADD14P,1.732040X8X202.500000*%
%ADD15C,3.048000*%
%ADD16C,1.320800*%
%ADD17C,1.208000*%
%ADD18P,1.539592X8X112.500000*%
%ADD19P,1.429621X8X112.500000*%
%ADD20P,1.429621X8X292.500000*%
%ADD21C,0.304800*%
%ADD22C,0.756400*%
%ADD23C,0.406400*%

G36*
X64573Y10166D02*
X64573Y10166D01*
X64623Y10164D01*
X64746Y10186D01*
X64869Y10201D01*
X64916Y10218D01*
X64966Y10227D01*
X65080Y10276D01*
X65197Y10318D01*
X65239Y10345D01*
X65286Y10365D01*
X65385Y10440D01*
X65490Y10507D01*
X65525Y10543D01*
X65565Y10573D01*
X65646Y10668D01*
X65732Y10758D01*
X65758Y10801D01*
X65790Y10839D01*
X65847Y10950D01*
X65911Y11057D01*
X65926Y11105D01*
X65949Y11150D01*
X65979Y11270D01*
X66017Y11389D01*
X66021Y11439D01*
X66033Y11488D01*
X66035Y11612D01*
X66045Y11736D01*
X66038Y11786D01*
X66038Y11836D01*
X66012Y11958D01*
X65993Y12081D01*
X65975Y12128D01*
X65964Y12177D01*
X65911Y12289D01*
X65865Y12405D01*
X65836Y12446D01*
X65814Y12492D01*
X65737Y12589D01*
X65666Y12691D01*
X65628Y12725D01*
X65597Y12764D01*
X65499Y12841D01*
X65407Y12924D01*
X65363Y12949D01*
X65323Y12980D01*
X65106Y13091D01*
X60503Y14998D01*
X55788Y19713D01*
X53235Y25875D01*
X53235Y63025D01*
X55788Y69187D01*
X60503Y73902D01*
X66665Y76455D01*
X73335Y76455D01*
X79497Y73902D01*
X84212Y69187D01*
X86765Y63025D01*
X86765Y25875D01*
X84212Y19713D01*
X79497Y14998D01*
X74894Y13091D01*
X74850Y13067D01*
X74803Y13050D01*
X74698Y12982D01*
X74590Y12922D01*
X74552Y12888D01*
X74510Y12861D01*
X74424Y12771D01*
X74332Y12688D01*
X74303Y12646D01*
X74268Y12610D01*
X74204Y12503D01*
X74133Y12401D01*
X74115Y12354D01*
X74089Y12311D01*
X74051Y12193D01*
X74006Y12077D01*
X73998Y12027D01*
X73983Y11979D01*
X73973Y11855D01*
X73955Y11732D01*
X73959Y11682D01*
X73955Y11632D01*
X73973Y11509D01*
X73984Y11385D01*
X73999Y11337D01*
X74007Y11287D01*
X74052Y11172D01*
X74091Y11053D01*
X74117Y11010D01*
X74135Y10963D01*
X74206Y10861D01*
X74270Y10755D01*
X74306Y10718D01*
X74334Y10677D01*
X74426Y10594D01*
X74513Y10505D01*
X74556Y10477D01*
X74593Y10444D01*
X74702Y10384D01*
X74807Y10316D01*
X74854Y10299D01*
X74898Y10275D01*
X75018Y10241D01*
X75135Y10200D01*
X75185Y10194D01*
X75233Y10180D01*
X75477Y10161D01*
X122523Y10161D01*
X122573Y10166D01*
X122623Y10164D01*
X122746Y10186D01*
X122869Y10201D01*
X122916Y10218D01*
X122966Y10227D01*
X123080Y10276D01*
X123197Y10318D01*
X123239Y10345D01*
X123286Y10365D01*
X123385Y10440D01*
X123490Y10507D01*
X123525Y10543D01*
X123565Y10573D01*
X123646Y10668D01*
X123732Y10758D01*
X123758Y10801D01*
X123790Y10839D01*
X123847Y10950D01*
X123911Y11057D01*
X123926Y11105D01*
X123949Y11150D01*
X123979Y11270D01*
X124017Y11389D01*
X124021Y11439D01*
X124033Y11488D01*
X124035Y11612D01*
X124045Y11736D01*
X124038Y11786D01*
X124038Y11836D01*
X124012Y11958D01*
X123993Y12081D01*
X123975Y12128D01*
X123964Y12177D01*
X123911Y12289D01*
X123865Y12405D01*
X123836Y12446D01*
X123814Y12492D01*
X123737Y12589D01*
X123666Y12691D01*
X123628Y12725D01*
X123597Y12764D01*
X123499Y12841D01*
X123407Y12924D01*
X123363Y12949D01*
X123323Y12980D01*
X123106Y13091D01*
X118503Y14998D01*
X113788Y19713D01*
X111235Y25875D01*
X111235Y63025D01*
X113788Y69187D01*
X118503Y73902D01*
X124665Y76455D01*
X131335Y76455D01*
X137497Y73902D01*
X142212Y69187D01*
X144765Y63025D01*
X144765Y25875D01*
X142212Y19713D01*
X137497Y14998D01*
X132894Y13091D01*
X132850Y13067D01*
X132803Y13050D01*
X132698Y12982D01*
X132590Y12922D01*
X132552Y12888D01*
X132510Y12861D01*
X132424Y12771D01*
X132332Y12688D01*
X132303Y12646D01*
X132268Y12610D01*
X132204Y12503D01*
X132133Y12401D01*
X132115Y12354D01*
X132089Y12311D01*
X132051Y12193D01*
X132006Y12077D01*
X131998Y12027D01*
X131983Y11979D01*
X131973Y11855D01*
X131955Y11732D01*
X131959Y11682D01*
X131955Y11632D01*
X131973Y11509D01*
X131984Y11385D01*
X131999Y11337D01*
X132007Y11287D01*
X132052Y11172D01*
X132091Y11053D01*
X132117Y11010D01*
X132135Y10963D01*
X132206Y10861D01*
X132270Y10755D01*
X132306Y10718D01*
X132334Y10677D01*
X132426Y10594D01*
X132513Y10505D01*
X132556Y10477D01*
X132593Y10444D01*
X132702Y10384D01*
X132807Y10316D01*
X132854Y10299D01*
X132898Y10275D01*
X133018Y10241D01*
X133135Y10200D01*
X133185Y10194D01*
X133233Y10180D01*
X133477Y10161D01*
X305816Y10161D01*
X305842Y10164D01*
X305868Y10162D01*
X306015Y10184D01*
X306162Y10201D01*
X306187Y10209D01*
X306213Y10213D01*
X306351Y10268D01*
X306490Y10318D01*
X306512Y10332D01*
X306537Y10342D01*
X306658Y10427D01*
X306783Y10507D01*
X306801Y10526D01*
X306823Y10541D01*
X306922Y10651D01*
X307025Y10758D01*
X307039Y10780D01*
X307056Y10800D01*
X307128Y10930D01*
X307204Y11057D01*
X307212Y11082D01*
X307225Y11105D01*
X307265Y11248D01*
X307310Y11389D01*
X307312Y11415D01*
X307320Y11440D01*
X307339Y11684D01*
X307339Y121824D01*
X307328Y121924D01*
X307326Y122024D01*
X307308Y122096D01*
X307299Y122170D01*
X307266Y122264D01*
X307241Y122362D01*
X307207Y122428D01*
X307182Y122498D01*
X307127Y122582D01*
X307081Y122672D01*
X307033Y122728D01*
X306993Y122791D01*
X306921Y122861D01*
X306856Y122937D01*
X306796Y122981D01*
X306742Y123033D01*
X306656Y123085D01*
X306575Y123144D01*
X306507Y123174D01*
X306443Y123212D01*
X306347Y123242D01*
X306255Y123282D01*
X306182Y123295D01*
X306111Y123318D01*
X306011Y123326D01*
X305912Y123344D01*
X305838Y123340D01*
X305764Y123346D01*
X305664Y123331D01*
X305564Y123326D01*
X305493Y123305D01*
X305419Y123294D01*
X305326Y123257D01*
X305229Y123229D01*
X305164Y123193D01*
X305095Y123166D01*
X305013Y123108D01*
X304925Y123059D01*
X304849Y122994D01*
X304809Y122967D01*
X304785Y122940D01*
X304739Y122901D01*
X302425Y120587D01*
X299645Y119435D01*
X284555Y119435D01*
X281775Y120587D01*
X279647Y122715D01*
X278495Y125495D01*
X278495Y128505D01*
X279647Y131285D01*
X281775Y133413D01*
X284555Y134565D01*
X299645Y134565D01*
X302425Y133413D01*
X304739Y131099D01*
X304817Y131037D01*
X304890Y130967D01*
X304954Y130929D01*
X305012Y130883D01*
X305103Y130840D01*
X305189Y130788D01*
X305260Y130765D01*
X305327Y130734D01*
X305425Y130713D01*
X305521Y130682D01*
X305595Y130676D01*
X305668Y130660D01*
X305768Y130662D01*
X305868Y130654D01*
X305942Y130665D01*
X306016Y130666D01*
X306113Y130691D01*
X306213Y130706D01*
X306282Y130733D01*
X306354Y130751D01*
X306443Y130797D01*
X306537Y130834D01*
X306598Y130877D01*
X306664Y130911D01*
X306740Y130976D01*
X306823Y131033D01*
X306873Y131088D01*
X306929Y131137D01*
X306989Y131218D01*
X307056Y131292D01*
X307092Y131357D01*
X307137Y131417D01*
X307176Y131509D01*
X307225Y131597D01*
X307245Y131669D01*
X307275Y131737D01*
X307292Y131836D01*
X307320Y131933D01*
X307328Y132033D01*
X307336Y132080D01*
X307334Y132116D01*
X307339Y132176D01*
X307339Y147224D01*
X307328Y147324D01*
X307326Y147424D01*
X307308Y147496D01*
X307299Y147570D01*
X307266Y147664D01*
X307241Y147762D01*
X307207Y147828D01*
X307182Y147898D01*
X307127Y147982D01*
X307081Y148072D01*
X307033Y148128D01*
X306993Y148191D01*
X306921Y148261D01*
X306856Y148337D01*
X306796Y148381D01*
X306742Y148433D01*
X306656Y148485D01*
X306575Y148544D01*
X306507Y148574D01*
X306443Y148612D01*
X306347Y148642D01*
X306255Y148682D01*
X306182Y148695D01*
X306111Y148718D01*
X306011Y148726D01*
X305912Y148744D01*
X305838Y148740D01*
X305764Y148746D01*
X305664Y148731D01*
X305564Y148726D01*
X305493Y148705D01*
X305419Y148694D01*
X305326Y148657D01*
X305229Y148629D01*
X305164Y148593D01*
X305095Y148566D01*
X305013Y148508D01*
X304925Y148459D01*
X304849Y148394D01*
X304809Y148367D01*
X304785Y148340D01*
X304739Y148301D01*
X302425Y145987D01*
X299645Y144835D01*
X284555Y144835D01*
X281775Y145987D01*
X279647Y148115D01*
X279524Y148411D01*
X279487Y148478D01*
X279459Y148549D01*
X279403Y148630D01*
X279355Y148715D01*
X279304Y148772D01*
X279260Y148835D01*
X279187Y148901D01*
X279121Y148974D01*
X279058Y149017D01*
X279001Y149068D01*
X278915Y149116D01*
X278834Y149172D01*
X278763Y149200D01*
X278696Y149237D01*
X278602Y149264D01*
X278510Y149300D01*
X278434Y149311D01*
X278361Y149332D01*
X278212Y149344D01*
X278165Y149351D01*
X278146Y149349D01*
X278117Y149351D01*
X259087Y149351D01*
X246833Y161605D01*
X246734Y161684D01*
X246640Y161768D01*
X246598Y161792D01*
X246560Y161822D01*
X246446Y161876D01*
X246335Y161937D01*
X246289Y161950D01*
X246245Y161971D01*
X246122Y161997D01*
X246000Y162032D01*
X245939Y162037D01*
X245904Y162044D01*
X245856Y162043D01*
X245756Y162051D01*
X226065Y162051D01*
X226015Y162046D01*
X225965Y162048D01*
X225843Y162026D01*
X225719Y162011D01*
X225672Y161994D01*
X225622Y161985D01*
X225508Y161936D01*
X225391Y161894D01*
X225349Y161867D01*
X225302Y161847D01*
X225203Y161772D01*
X225098Y161705D01*
X225063Y161669D01*
X225023Y161639D01*
X224942Y161544D01*
X224856Y161454D01*
X224830Y161411D01*
X224798Y161373D01*
X224741Y161262D01*
X224677Y161155D01*
X224662Y161107D01*
X224639Y161062D01*
X224609Y160942D01*
X224571Y160823D01*
X224567Y160773D01*
X224555Y160724D01*
X224553Y160600D01*
X224543Y160476D01*
X224550Y160426D01*
X224550Y160376D01*
X224576Y160254D01*
X224595Y160131D01*
X224613Y160084D01*
X224624Y160035D01*
X224677Y159923D01*
X224723Y159807D01*
X224752Y159766D01*
X224774Y159720D01*
X224851Y159623D01*
X224922Y159521D01*
X224960Y159487D01*
X224991Y159448D01*
X225089Y159371D01*
X225181Y159288D01*
X225225Y159263D01*
X225265Y159232D01*
X225482Y159121D01*
X226225Y158813D01*
X228353Y156685D01*
X229505Y153905D01*
X229505Y150895D01*
X228353Y148115D01*
X226225Y145987D01*
X223445Y144835D01*
X208355Y144835D01*
X205575Y145987D01*
X203447Y148115D01*
X202295Y150895D01*
X202295Y153905D01*
X203447Y156685D01*
X205575Y158813D01*
X206318Y159121D01*
X206362Y159145D01*
X206409Y159162D01*
X206513Y159230D01*
X206622Y159290D01*
X206660Y159324D01*
X206702Y159351D01*
X206788Y159441D01*
X206880Y159524D01*
X206909Y159565D01*
X206944Y159602D01*
X207008Y159709D01*
X207079Y159811D01*
X207097Y159858D01*
X207123Y159901D01*
X207161Y160019D01*
X207206Y160135D01*
X207214Y160185D01*
X207229Y160233D01*
X207239Y160357D01*
X207257Y160480D01*
X207253Y160530D01*
X207257Y160580D01*
X207239Y160703D01*
X207228Y160827D01*
X207213Y160875D01*
X207205Y160925D01*
X207159Y161041D01*
X207121Y161159D01*
X207095Y161202D01*
X207077Y161249D01*
X207006Y161351D01*
X206942Y161457D01*
X206906Y161494D01*
X206878Y161535D01*
X206786Y161618D01*
X206699Y161707D01*
X206656Y161735D01*
X206619Y161768D01*
X206510Y161828D01*
X206405Y161896D01*
X206358Y161913D01*
X206314Y161937D01*
X206194Y161971D01*
X206077Y162012D01*
X206027Y162018D01*
X205979Y162032D01*
X205735Y162051D01*
X195587Y162051D01*
X174751Y182887D01*
X174751Y187772D01*
X174737Y187898D01*
X174730Y188024D01*
X174717Y188070D01*
X174711Y188118D01*
X174669Y188237D01*
X174634Y188359D01*
X174610Y188401D01*
X174594Y188446D01*
X174525Y188553D01*
X174464Y188663D01*
X174424Y188709D01*
X174405Y188739D01*
X174370Y188773D01*
X174305Y188849D01*
X169671Y193483D01*
X169671Y200217D01*
X174433Y204979D01*
X181167Y204979D01*
X185929Y200217D01*
X185929Y193483D01*
X181295Y188849D01*
X181216Y188750D01*
X181132Y188656D01*
X181108Y188614D01*
X181078Y188576D01*
X181024Y188462D01*
X180963Y188351D01*
X180950Y188305D01*
X180929Y188261D01*
X180903Y188138D01*
X180868Y188016D01*
X180863Y187955D01*
X180856Y187920D01*
X180857Y187872D01*
X180849Y187772D01*
X180849Y186044D01*
X180863Y185918D01*
X180870Y185792D01*
X180883Y185746D01*
X180889Y185698D01*
X180931Y185579D01*
X180966Y185457D01*
X180990Y185415D01*
X181006Y185369D01*
X181075Y185263D01*
X181136Y185153D01*
X181176Y185107D01*
X181195Y185077D01*
X181230Y185043D01*
X181295Y184967D01*
X197667Y168595D01*
X197766Y168516D01*
X197860Y168432D01*
X197902Y168408D01*
X197940Y168378D01*
X198054Y168324D01*
X198165Y168263D01*
X198211Y168250D01*
X198255Y168229D01*
X198378Y168203D01*
X198500Y168168D01*
X198561Y168163D01*
X198596Y168156D01*
X198644Y168157D01*
X198744Y168149D01*
X205735Y168149D01*
X205785Y168154D01*
X205835Y168152D01*
X205957Y168174D01*
X206081Y168189D01*
X206128Y168206D01*
X206178Y168215D01*
X206292Y168264D01*
X206409Y168306D01*
X206451Y168333D01*
X206498Y168353D01*
X206597Y168428D01*
X206702Y168495D01*
X206737Y168531D01*
X206777Y168561D01*
X206858Y168656D01*
X206944Y168746D01*
X206970Y168789D01*
X207002Y168827D01*
X207059Y168938D01*
X207123Y169045D01*
X207138Y169093D01*
X207161Y169138D01*
X207191Y169258D01*
X207229Y169377D01*
X207233Y169427D01*
X207245Y169476D01*
X207247Y169600D01*
X207257Y169724D01*
X207250Y169774D01*
X207250Y169824D01*
X207224Y169946D01*
X207205Y170069D01*
X207187Y170116D01*
X207176Y170165D01*
X207123Y170277D01*
X207077Y170393D01*
X207048Y170434D01*
X207026Y170480D01*
X206949Y170577D01*
X206878Y170679D01*
X206840Y170713D01*
X206809Y170752D01*
X206711Y170829D01*
X206619Y170912D01*
X206575Y170937D01*
X206535Y170968D01*
X206318Y171079D01*
X205575Y171387D01*
X203447Y173515D01*
X202295Y176295D01*
X202295Y179305D01*
X203447Y182085D01*
X205575Y184213D01*
X208355Y185365D01*
X223445Y185365D01*
X226225Y184213D01*
X228353Y182085D01*
X229505Y179305D01*
X229505Y176295D01*
X228353Y173515D01*
X226225Y171387D01*
X225482Y171079D01*
X225438Y171055D01*
X225391Y171038D01*
X225287Y170970D01*
X225178Y170910D01*
X225140Y170876D01*
X225098Y170849D01*
X225012Y170759D01*
X224920Y170676D01*
X224891Y170635D01*
X224856Y170598D01*
X224792Y170491D01*
X224721Y170389D01*
X224703Y170342D01*
X224677Y170299D01*
X224639Y170181D01*
X224594Y170065D01*
X224586Y170015D01*
X224571Y169967D01*
X224561Y169843D01*
X224543Y169720D01*
X224547Y169670D01*
X224543Y169620D01*
X224561Y169497D01*
X224572Y169373D01*
X224587Y169325D01*
X224595Y169275D01*
X224641Y169159D01*
X224679Y169041D01*
X224705Y168998D01*
X224723Y168951D01*
X224794Y168849D01*
X224858Y168743D01*
X224894Y168706D01*
X224922Y168665D01*
X225014Y168582D01*
X225101Y168493D01*
X225144Y168465D01*
X225181Y168432D01*
X225290Y168372D01*
X225395Y168304D01*
X225442Y168287D01*
X225486Y168263D01*
X225606Y168229D01*
X225723Y168188D01*
X225773Y168182D01*
X225821Y168168D01*
X226065Y168149D01*
X248913Y168149D01*
X261167Y155895D01*
X261266Y155816D01*
X261360Y155732D01*
X261402Y155708D01*
X261440Y155678D01*
X261554Y155624D01*
X261665Y155563D01*
X261711Y155550D01*
X261755Y155529D01*
X261878Y155503D01*
X262000Y155468D01*
X262061Y155463D01*
X262096Y155456D01*
X262144Y155457D01*
X262244Y155449D01*
X278117Y155449D01*
X278193Y155457D01*
X278269Y155456D01*
X278366Y155477D01*
X278463Y155489D01*
X278535Y155514D01*
X278610Y155531D01*
X278699Y155573D01*
X278791Y155606D01*
X278856Y155648D01*
X278925Y155680D01*
X279001Y155742D01*
X279084Y155795D01*
X279137Y155850D01*
X279197Y155898D01*
X279258Y155975D01*
X279326Y156046D01*
X279366Y156111D01*
X279413Y156171D01*
X279481Y156304D01*
X279505Y156345D01*
X279511Y156363D01*
X279524Y156389D01*
X279647Y156685D01*
X281775Y158813D01*
X284555Y159965D01*
X299645Y159965D01*
X302425Y158813D01*
X304739Y156499D01*
X304817Y156437D01*
X304890Y156367D01*
X304954Y156329D01*
X305012Y156283D01*
X305103Y156240D01*
X305189Y156188D01*
X305260Y156165D01*
X305327Y156134D01*
X305425Y156113D01*
X305521Y156082D01*
X305595Y156076D01*
X305668Y156060D01*
X305768Y156062D01*
X305868Y156054D01*
X305942Y156065D01*
X306016Y156066D01*
X306113Y156091D01*
X306213Y156106D01*
X306282Y156133D01*
X306354Y156151D01*
X306443Y156197D01*
X306537Y156234D01*
X306598Y156277D01*
X306664Y156311D01*
X306740Y156376D01*
X306823Y156433D01*
X306873Y156488D01*
X306929Y156537D01*
X306989Y156618D01*
X307056Y156692D01*
X307092Y156757D01*
X307137Y156817D01*
X307176Y156909D01*
X307225Y156997D01*
X307245Y157069D01*
X307275Y157137D01*
X307292Y157236D01*
X307320Y157333D01*
X307328Y157433D01*
X307336Y157480D01*
X307334Y157516D01*
X307339Y157576D01*
X307339Y172624D01*
X307328Y172724D01*
X307326Y172824D01*
X307308Y172896D01*
X307299Y172970D01*
X307266Y173064D01*
X307241Y173162D01*
X307207Y173228D01*
X307182Y173298D01*
X307127Y173382D01*
X307081Y173472D01*
X307033Y173528D01*
X306993Y173591D01*
X306921Y173661D01*
X306856Y173737D01*
X306796Y173781D01*
X306742Y173833D01*
X306656Y173885D01*
X306575Y173944D01*
X306507Y173974D01*
X306443Y174012D01*
X306347Y174042D01*
X306255Y174082D01*
X306182Y174095D01*
X306111Y174118D01*
X306011Y174126D01*
X305912Y174144D01*
X305838Y174140D01*
X305764Y174146D01*
X305664Y174131D01*
X305564Y174126D01*
X305493Y174105D01*
X305419Y174094D01*
X305326Y174057D01*
X305229Y174029D01*
X305164Y173993D01*
X305095Y173966D01*
X305013Y173908D01*
X304925Y173859D01*
X304849Y173794D01*
X304809Y173767D01*
X304785Y173740D01*
X304739Y173701D01*
X302425Y171387D01*
X299645Y170235D01*
X284555Y170235D01*
X281775Y171387D01*
X279647Y173515D01*
X279524Y173811D01*
X279487Y173878D01*
X279459Y173949D01*
X279403Y174029D01*
X279355Y174116D01*
X279304Y174172D01*
X279260Y174235D01*
X279187Y174301D01*
X279121Y174374D01*
X279058Y174417D01*
X279001Y174468D01*
X278915Y174516D01*
X278834Y174572D01*
X278763Y174600D01*
X278696Y174637D01*
X278601Y174664D01*
X278510Y174700D01*
X278434Y174711D01*
X278361Y174732D01*
X278212Y174744D01*
X278165Y174751D01*
X278146Y174749D01*
X278117Y174751D01*
X265437Y174751D01*
X240483Y199705D01*
X240384Y199784D01*
X240290Y199868D01*
X240248Y199892D01*
X240210Y199922D01*
X240096Y199976D01*
X239985Y200037D01*
X239939Y200050D01*
X239895Y200071D01*
X239772Y200097D01*
X239650Y200132D01*
X239589Y200137D01*
X239554Y200144D01*
X239506Y200143D01*
X239406Y200151D01*
X229883Y200151D01*
X229807Y200143D01*
X229731Y200144D01*
X229634Y200123D01*
X229537Y200111D01*
X229465Y200086D01*
X229390Y200069D01*
X229301Y200027D01*
X229209Y199994D01*
X229144Y199952D01*
X229075Y199920D01*
X228999Y199858D01*
X228916Y199805D01*
X228863Y199750D01*
X228803Y199702D01*
X228742Y199625D01*
X228674Y199554D01*
X228634Y199489D01*
X228587Y199429D01*
X228519Y199295D01*
X228495Y199255D01*
X228489Y199237D01*
X228476Y199211D01*
X228353Y198915D01*
X226225Y196787D01*
X223445Y195635D01*
X208355Y195635D01*
X205575Y196787D01*
X203447Y198915D01*
X202295Y201695D01*
X202295Y204705D01*
X203447Y207485D01*
X205575Y209613D01*
X208355Y210765D01*
X223445Y210765D01*
X226225Y209613D01*
X228353Y207485D01*
X228476Y207189D01*
X228513Y207122D01*
X228541Y207051D01*
X228597Y206971D01*
X228645Y206884D01*
X228696Y206828D01*
X228740Y206765D01*
X228813Y206699D01*
X228879Y206626D01*
X228942Y206583D01*
X228999Y206532D01*
X229085Y206484D01*
X229166Y206428D01*
X229237Y206400D01*
X229304Y206363D01*
X229399Y206336D01*
X229490Y206300D01*
X229566Y206289D01*
X229639Y206268D01*
X229788Y206256D01*
X229835Y206249D01*
X229854Y206251D01*
X229883Y206249D01*
X242563Y206249D01*
X267517Y181295D01*
X267616Y181216D01*
X267710Y181132D01*
X267752Y181108D01*
X267790Y181078D01*
X267904Y181024D01*
X268015Y180963D01*
X268061Y180950D01*
X268105Y180929D01*
X268228Y180903D01*
X268350Y180868D01*
X268411Y180863D01*
X268446Y180856D01*
X268494Y180857D01*
X268594Y180849D01*
X278117Y180849D01*
X278193Y180857D01*
X278269Y180856D01*
X278366Y180877D01*
X278463Y180889D01*
X278535Y180914D01*
X278610Y180931D01*
X278699Y180973D01*
X278791Y181006D01*
X278856Y181048D01*
X278925Y181080D01*
X279001Y181142D01*
X279084Y181195D01*
X279137Y181250D01*
X279197Y181298D01*
X279258Y181375D01*
X279326Y181446D01*
X279366Y181511D01*
X279413Y181571D01*
X279481Y181705D01*
X279505Y181745D01*
X279511Y181763D01*
X279524Y181789D01*
X279647Y182085D01*
X281775Y184213D01*
X284555Y185365D01*
X299645Y185365D01*
X302425Y184213D01*
X304739Y181899D01*
X304817Y181837D01*
X304890Y181767D01*
X304954Y181729D01*
X305012Y181683D01*
X305103Y181640D01*
X305189Y181588D01*
X305260Y181565D01*
X305327Y181534D01*
X305425Y181513D01*
X305521Y181482D01*
X305595Y181476D01*
X305668Y181460D01*
X305768Y181462D01*
X305868Y181454D01*
X305942Y181465D01*
X306016Y181466D01*
X306113Y181491D01*
X306213Y181506D01*
X306282Y181533D01*
X306354Y181551D01*
X306443Y181597D01*
X306537Y181634D01*
X306598Y181677D01*
X306664Y181711D01*
X306740Y181776D01*
X306823Y181833D01*
X306873Y181888D01*
X306929Y181937D01*
X306989Y182018D01*
X307056Y182092D01*
X307092Y182157D01*
X307137Y182217D01*
X307176Y182309D01*
X307225Y182397D01*
X307245Y182469D01*
X307275Y182537D01*
X307292Y182636D01*
X307320Y182733D01*
X307328Y182833D01*
X307336Y182880D01*
X307334Y182916D01*
X307339Y182976D01*
X307339Y198024D01*
X307328Y198124D01*
X307326Y198224D01*
X307308Y198296D01*
X307299Y198370D01*
X307266Y198464D01*
X307241Y198562D01*
X307207Y198628D01*
X307182Y198698D01*
X307127Y198782D01*
X307081Y198872D01*
X307033Y198928D01*
X306993Y198991D01*
X306921Y199061D01*
X306856Y199137D01*
X306796Y199181D01*
X306742Y199233D01*
X306656Y199285D01*
X306575Y199344D01*
X306507Y199374D01*
X306443Y199412D01*
X306347Y199442D01*
X306255Y199482D01*
X306182Y199495D01*
X306111Y199518D01*
X306011Y199526D01*
X305912Y199544D01*
X305838Y199540D01*
X305764Y199546D01*
X305664Y199531D01*
X305564Y199526D01*
X305493Y199505D01*
X305419Y199494D01*
X305326Y199457D01*
X305229Y199429D01*
X305164Y199393D01*
X305095Y199366D01*
X305013Y199308D01*
X304925Y199259D01*
X304849Y199194D01*
X304809Y199167D01*
X304785Y199140D01*
X304739Y199101D01*
X302425Y196787D01*
X299645Y195635D01*
X284555Y195635D01*
X281775Y196787D01*
X279647Y198915D01*
X278495Y201695D01*
X278495Y204705D01*
X279647Y207485D01*
X281775Y209613D01*
X284555Y210765D01*
X299645Y210765D01*
X302425Y209613D01*
X304739Y207299D01*
X304817Y207237D01*
X304890Y207167D01*
X304954Y207129D01*
X305012Y207083D01*
X305103Y207040D01*
X305189Y206988D01*
X305260Y206965D01*
X305327Y206934D01*
X305425Y206913D01*
X305521Y206882D01*
X305595Y206876D01*
X305668Y206860D01*
X305768Y206862D01*
X305868Y206854D01*
X305942Y206865D01*
X306016Y206866D01*
X306113Y206891D01*
X306213Y206906D01*
X306282Y206933D01*
X306354Y206951D01*
X306443Y206997D01*
X306537Y207034D01*
X306598Y207077D01*
X306664Y207111D01*
X306740Y207176D01*
X306823Y207233D01*
X306873Y207288D01*
X306929Y207337D01*
X306989Y207418D01*
X307056Y207492D01*
X307092Y207557D01*
X307137Y207617D01*
X307176Y207709D01*
X307225Y207797D01*
X307245Y207869D01*
X307275Y207937D01*
X307292Y208036D01*
X307320Y208133D01*
X307328Y208233D01*
X307336Y208280D01*
X307334Y208316D01*
X307339Y208376D01*
X307339Y622112D01*
X307328Y622212D01*
X307326Y622312D01*
X307308Y622384D01*
X307299Y622458D01*
X307266Y622553D01*
X307241Y622650D01*
X307207Y622716D01*
X307182Y622786D01*
X307127Y622871D01*
X307081Y622960D01*
X307033Y623017D01*
X306993Y623079D01*
X306921Y623149D01*
X306856Y623225D01*
X306796Y623270D01*
X306742Y623321D01*
X306656Y623373D01*
X306575Y623433D01*
X306507Y623462D01*
X306443Y623500D01*
X306347Y623531D01*
X306255Y623571D01*
X306182Y623584D01*
X306111Y623606D01*
X306011Y623615D01*
X305912Y623632D01*
X305838Y623628D01*
X305764Y623634D01*
X305664Y623620D01*
X305564Y623614D01*
X305493Y623594D01*
X305419Y623583D01*
X305326Y623546D01*
X305229Y623518D01*
X305164Y623481D01*
X305095Y623454D01*
X305013Y623397D01*
X304925Y623348D01*
X304849Y623282D01*
X304809Y623255D01*
X304785Y623229D01*
X304739Y623189D01*
X303309Y621759D01*
X300321Y620521D01*
X283879Y620521D01*
X280891Y621759D01*
X278605Y624045D01*
X277367Y627033D01*
X277367Y630267D01*
X278605Y633255D01*
X280891Y635541D01*
X283879Y636779D01*
X300321Y636779D01*
X303309Y635541D01*
X304739Y634111D01*
X304818Y634048D01*
X304890Y633979D01*
X304954Y633940D01*
X305012Y633894D01*
X305103Y633851D01*
X305189Y633800D01*
X305260Y633777D01*
X305327Y633745D01*
X305425Y633724D01*
X305521Y633694D01*
X305595Y633688D01*
X305668Y633672D01*
X305768Y633674D01*
X305868Y633666D01*
X305942Y633677D01*
X306016Y633678D01*
X306113Y633702D01*
X306213Y633717D01*
X306282Y633745D01*
X306354Y633763D01*
X306443Y633809D01*
X306537Y633846D01*
X306598Y633888D01*
X306664Y633923D01*
X306740Y633988D01*
X306823Y634045D01*
X306873Y634100D01*
X306929Y634148D01*
X306989Y634229D01*
X307056Y634304D01*
X307092Y634369D01*
X307137Y634429D01*
X307176Y634521D01*
X307225Y634609D01*
X307245Y634680D01*
X307275Y634749D01*
X307292Y634847D01*
X307320Y634944D01*
X307328Y635044D01*
X307336Y635092D01*
X307334Y635127D01*
X307339Y635188D01*
X307339Y647512D01*
X307328Y647612D01*
X307326Y647712D01*
X307308Y647784D01*
X307299Y647858D01*
X307266Y647953D01*
X307241Y648050D01*
X307207Y648116D01*
X307182Y648186D01*
X307127Y648271D01*
X307081Y648360D01*
X307033Y648417D01*
X306993Y648479D01*
X306921Y648549D01*
X306856Y648625D01*
X306796Y648670D01*
X306742Y648721D01*
X306656Y648773D01*
X306575Y648833D01*
X306507Y648862D01*
X306443Y648900D01*
X306347Y648931D01*
X306255Y648971D01*
X306182Y648984D01*
X306111Y649006D01*
X306011Y649015D01*
X305912Y649032D01*
X305838Y649028D01*
X305764Y649034D01*
X305664Y649020D01*
X305564Y649014D01*
X305493Y648994D01*
X305419Y648983D01*
X305326Y648946D01*
X305229Y648918D01*
X305164Y648881D01*
X305095Y648854D01*
X305013Y648797D01*
X304925Y648748D01*
X304849Y648682D01*
X304809Y648655D01*
X304785Y648629D01*
X304739Y648589D01*
X303309Y647159D01*
X300321Y645921D01*
X283879Y645921D01*
X280891Y647159D01*
X278605Y649445D01*
X278350Y650061D01*
X278313Y650128D01*
X278284Y650199D01*
X278228Y650279D01*
X278181Y650366D01*
X278129Y650422D01*
X278086Y650485D01*
X278013Y650551D01*
X277946Y650624D01*
X277883Y650667D01*
X277827Y650718D01*
X277741Y650766D01*
X277660Y650822D01*
X277589Y650850D01*
X277522Y650887D01*
X277427Y650914D01*
X277335Y650950D01*
X277260Y650961D01*
X277186Y650982D01*
X277037Y650994D01*
X276991Y651001D01*
X276972Y650999D01*
X276943Y651001D01*
X262244Y651001D01*
X262118Y650987D01*
X261992Y650980D01*
X261946Y650967D01*
X261898Y650961D01*
X261779Y650919D01*
X261657Y650884D01*
X261615Y650860D01*
X261569Y650844D01*
X261463Y650775D01*
X261353Y650714D01*
X261307Y650674D01*
X261277Y650655D01*
X261243Y650620D01*
X261167Y650555D01*
X248913Y638301D01*
X228026Y638301D01*
X227926Y638290D01*
X227826Y638288D01*
X227754Y638270D01*
X227680Y638261D01*
X227585Y638228D01*
X227488Y638203D01*
X227422Y638169D01*
X227352Y638144D01*
X227267Y638089D01*
X227178Y638043D01*
X227121Y637995D01*
X227059Y637955D01*
X226989Y637883D01*
X226913Y637818D01*
X226868Y637758D01*
X226817Y637704D01*
X226765Y637618D01*
X226705Y637537D01*
X226676Y637469D01*
X226638Y637405D01*
X226607Y637309D01*
X226567Y637217D01*
X226554Y637144D01*
X226532Y637073D01*
X226523Y636973D01*
X226506Y636874D01*
X226510Y636800D01*
X226504Y636726D01*
X226518Y636626D01*
X226524Y636526D01*
X226544Y636455D01*
X226555Y636381D01*
X226592Y636288D01*
X226620Y636191D01*
X226657Y636126D01*
X226684Y636057D01*
X226741Y635975D01*
X226790Y635887D01*
X226855Y635811D01*
X226883Y635771D01*
X226909Y635747D01*
X226949Y635701D01*
X229395Y633255D01*
X230633Y630267D01*
X230633Y627033D01*
X229395Y624045D01*
X227109Y621759D01*
X224121Y620521D01*
X207679Y620521D01*
X204691Y621759D01*
X202405Y624045D01*
X201167Y627033D01*
X201167Y630267D01*
X202405Y633255D01*
X204851Y635701D01*
X204914Y635779D01*
X204983Y635852D01*
X205022Y635916D01*
X205068Y635974D01*
X205111Y636065D01*
X205162Y636151D01*
X205185Y636222D01*
X205217Y636289D01*
X205238Y636387D01*
X205268Y636483D01*
X205274Y636557D01*
X205290Y636630D01*
X205288Y636730D01*
X205296Y636830D01*
X205285Y636904D01*
X205284Y636978D01*
X205260Y637075D01*
X205245Y637175D01*
X205217Y637244D01*
X205199Y637316D01*
X205153Y637405D01*
X205116Y637499D01*
X205074Y637560D01*
X205039Y637626D01*
X204974Y637702D01*
X204917Y637785D01*
X204862Y637835D01*
X204814Y637891D01*
X204733Y637951D01*
X204658Y638018D01*
X204593Y638054D01*
X204533Y638099D01*
X204441Y638138D01*
X204353Y638187D01*
X204282Y638207D01*
X204213Y638237D01*
X204115Y638254D01*
X204018Y638282D01*
X203918Y638290D01*
X203870Y638298D01*
X203835Y638296D01*
X203774Y638301D01*
X182887Y638301D01*
X155701Y665487D01*
X155701Y769613D01*
X169225Y783137D01*
X169304Y783236D01*
X169388Y783330D01*
X169412Y783372D01*
X169442Y783410D01*
X169496Y783524D01*
X169557Y783635D01*
X169570Y783681D01*
X169591Y783725D01*
X169617Y783848D01*
X169652Y783970D01*
X169657Y784031D01*
X169664Y784066D01*
X169663Y784114D01*
X169671Y784214D01*
X169671Y790767D01*
X174433Y795529D01*
X181167Y795529D01*
X185929Y790767D01*
X185929Y784033D01*
X181167Y779271D01*
X174614Y779271D01*
X174488Y779257D01*
X174362Y779250D01*
X174316Y779237D01*
X174268Y779231D01*
X174149Y779189D01*
X174027Y779154D01*
X173985Y779130D01*
X173939Y779114D01*
X173833Y779045D01*
X173723Y778984D01*
X173677Y778944D01*
X173647Y778925D01*
X173613Y778890D01*
X173537Y778825D01*
X162245Y767533D01*
X162166Y767434D01*
X162082Y767340D01*
X162058Y767298D01*
X162028Y767260D01*
X161974Y767146D01*
X161913Y767035D01*
X161900Y766989D01*
X161879Y766945D01*
X161853Y766822D01*
X161818Y766700D01*
X161813Y766639D01*
X161806Y766604D01*
X161807Y766556D01*
X161799Y766456D01*
X161799Y668644D01*
X161813Y668518D01*
X161820Y668392D01*
X161833Y668346D01*
X161839Y668298D01*
X161881Y668179D01*
X161916Y668057D01*
X161940Y668015D01*
X161956Y667969D01*
X162025Y667863D01*
X162086Y667753D01*
X162126Y667707D01*
X162145Y667677D01*
X162180Y667643D01*
X162245Y667567D01*
X184967Y644845D01*
X185066Y644766D01*
X185160Y644682D01*
X185202Y644658D01*
X185240Y644628D01*
X185354Y644574D01*
X185465Y644513D01*
X185511Y644500D01*
X185555Y644479D01*
X185678Y644453D01*
X185800Y644418D01*
X185861Y644413D01*
X185896Y644406D01*
X185944Y644407D01*
X186044Y644399D01*
X203774Y644399D01*
X203874Y644410D01*
X203974Y644412D01*
X204046Y644430D01*
X204120Y644439D01*
X204215Y644472D01*
X204312Y644497D01*
X204378Y644531D01*
X204448Y644556D01*
X204533Y644611D01*
X204622Y644657D01*
X204679Y644705D01*
X204741Y644745D01*
X204811Y644817D01*
X204887Y644882D01*
X204932Y644942D01*
X204983Y644996D01*
X205035Y645082D01*
X205095Y645163D01*
X205124Y645231D01*
X205162Y645295D01*
X205193Y645391D01*
X205233Y645483D01*
X205246Y645556D01*
X205268Y645627D01*
X205277Y645727D01*
X205294Y645826D01*
X205290Y645900D01*
X205296Y645974D01*
X205282Y646074D01*
X205276Y646174D01*
X205256Y646245D01*
X205245Y646319D01*
X205208Y646412D01*
X205180Y646509D01*
X205143Y646574D01*
X205116Y646643D01*
X205059Y646725D01*
X205010Y646813D01*
X204945Y646889D01*
X204917Y646929D01*
X204891Y646953D01*
X204851Y646999D01*
X202405Y649445D01*
X201167Y652433D01*
X201167Y655667D01*
X202405Y658655D01*
X204691Y660941D01*
X207679Y662179D01*
X224121Y662179D01*
X227109Y660941D01*
X229395Y658655D01*
X230633Y655667D01*
X230633Y652433D01*
X229395Y649445D01*
X226949Y646999D01*
X226886Y646921D01*
X226817Y646848D01*
X226778Y646784D01*
X226732Y646726D01*
X226689Y646635D01*
X226638Y646549D01*
X226615Y646478D01*
X226583Y646411D01*
X226562Y646313D01*
X226532Y646217D01*
X226526Y646143D01*
X226510Y646070D01*
X226512Y645970D01*
X226504Y645870D01*
X226515Y645796D01*
X226516Y645722D01*
X226540Y645625D01*
X226555Y645525D01*
X226583Y645456D01*
X226601Y645384D01*
X226647Y645295D01*
X226684Y645201D01*
X226726Y645140D01*
X226761Y645074D01*
X226826Y644998D01*
X226883Y644915D01*
X226938Y644865D01*
X226986Y644809D01*
X227067Y644749D01*
X227142Y644682D01*
X227207Y644646D01*
X227267Y644601D01*
X227359Y644562D01*
X227447Y644513D01*
X227518Y644493D01*
X227587Y644463D01*
X227685Y644446D01*
X227782Y644418D01*
X227882Y644410D01*
X227930Y644402D01*
X227965Y644404D01*
X228026Y644399D01*
X245756Y644399D01*
X245882Y644413D01*
X246008Y644420D01*
X246054Y644433D01*
X246102Y644439D01*
X246221Y644481D01*
X246343Y644516D01*
X246385Y644540D01*
X246431Y644556D01*
X246537Y644625D01*
X246647Y644686D01*
X246693Y644726D01*
X246723Y644745D01*
X246757Y644780D01*
X246833Y644845D01*
X259087Y657099D01*
X276943Y657099D01*
X277018Y657107D01*
X277095Y657106D01*
X277191Y657127D01*
X277289Y657139D01*
X277361Y657164D01*
X277435Y657181D01*
X277524Y657223D01*
X277617Y657256D01*
X277681Y657298D01*
X277750Y657330D01*
X277827Y657392D01*
X277910Y657445D01*
X277963Y657500D01*
X278023Y657548D01*
X278083Y657625D01*
X278152Y657696D01*
X278191Y657761D01*
X278238Y657821D01*
X278307Y657955D01*
X278331Y657995D01*
X278336Y658013D01*
X278350Y658039D01*
X278605Y658655D01*
X280891Y660941D01*
X283879Y662179D01*
X300321Y662179D01*
X303309Y660941D01*
X304739Y659511D01*
X304818Y659448D01*
X304890Y659379D01*
X304913Y659365D01*
X304931Y659348D01*
X304973Y659325D01*
X305012Y659294D01*
X305103Y659251D01*
X305189Y659200D01*
X305215Y659191D01*
X305236Y659180D01*
X305281Y659167D01*
X305327Y659145D01*
X305425Y659124D01*
X305521Y659094D01*
X305549Y659091D01*
X305572Y659085D01*
X305629Y659080D01*
X305668Y659072D01*
X305721Y659073D01*
X305815Y659065D01*
X305816Y659065D01*
X305839Y659068D01*
X305868Y659066D01*
X305942Y659077D01*
X306016Y659078D01*
X306092Y659097D01*
X306162Y659105D01*
X306184Y659113D01*
X306213Y659117D01*
X306282Y659145D01*
X306354Y659163D01*
X306424Y659199D01*
X306490Y659223D01*
X306510Y659235D01*
X306537Y659246D01*
X306598Y659288D01*
X306664Y659323D01*
X306723Y659373D01*
X306783Y659412D01*
X306800Y659429D01*
X306823Y659445D01*
X306873Y659500D01*
X306929Y659548D01*
X306975Y659611D01*
X307025Y659662D01*
X307038Y659683D01*
X307056Y659704D01*
X307092Y659769D01*
X307137Y659829D01*
X307167Y659899D01*
X307204Y659961D01*
X307212Y659985D01*
X307225Y660009D01*
X307245Y660080D01*
X307275Y660149D01*
X307288Y660223D01*
X307310Y660293D01*
X307312Y660319D01*
X307320Y660344D01*
X307328Y660444D01*
X307336Y660492D01*
X307334Y660527D01*
X307339Y660588D01*
X307339Y672912D01*
X307328Y673012D01*
X307326Y673112D01*
X307308Y673184D01*
X307299Y673258D01*
X307266Y673353D01*
X307241Y673450D01*
X307207Y673516D01*
X307182Y673586D01*
X307128Y673671D01*
X307081Y673760D01*
X307033Y673817D01*
X306993Y673879D01*
X306921Y673949D01*
X306856Y674025D01*
X306796Y674070D01*
X306742Y674121D01*
X306656Y674173D01*
X306575Y674233D01*
X306507Y674262D01*
X306443Y674300D01*
X306347Y674331D01*
X306255Y674371D01*
X306182Y674384D01*
X306111Y674406D01*
X306011Y674415D01*
X305912Y674432D01*
X305838Y674428D01*
X305764Y674434D01*
X305664Y674420D01*
X305564Y674414D01*
X305493Y674394D01*
X305419Y674383D01*
X305326Y674346D01*
X305229Y674318D01*
X305164Y674281D01*
X305095Y674254D01*
X305013Y674197D01*
X304925Y674148D01*
X304849Y674082D01*
X304809Y674055D01*
X304785Y674029D01*
X304739Y673989D01*
X303309Y672559D01*
X300321Y671321D01*
X283879Y671321D01*
X280891Y672559D01*
X278605Y674845D01*
X278350Y675461D01*
X278313Y675528D01*
X278284Y675599D01*
X278228Y675679D01*
X278181Y675766D01*
X278129Y675822D01*
X278086Y675885D01*
X278013Y675951D01*
X277946Y676024D01*
X277883Y676067D01*
X277827Y676118D01*
X277741Y676166D01*
X277660Y676222D01*
X277589Y676250D01*
X277522Y676287D01*
X277427Y676314D01*
X277335Y676350D01*
X277260Y676361D01*
X277186Y676382D01*
X277037Y676394D01*
X276991Y676401D01*
X276972Y676399D01*
X276943Y676401D01*
X259087Y676401D01*
X258961Y676387D01*
X258835Y676380D01*
X258789Y676367D01*
X258741Y676361D01*
X258622Y676319D01*
X258500Y676284D01*
X258458Y676260D01*
X258413Y676244D01*
X258306Y676175D01*
X258196Y676114D01*
X258150Y676074D01*
X258120Y676055D01*
X258086Y676020D01*
X258010Y675955D01*
X257006Y674951D01*
X255056Y674143D01*
X252944Y674143D01*
X250994Y674951D01*
X249501Y676444D01*
X248693Y678394D01*
X248693Y680506D01*
X249501Y682456D01*
X250994Y683949D01*
X252944Y684757D01*
X255056Y684757D01*
X257006Y683949D01*
X258010Y682945D01*
X258109Y682866D01*
X258203Y682782D01*
X258245Y682758D01*
X258283Y682728D01*
X258397Y682674D01*
X258508Y682613D01*
X258554Y682600D01*
X258598Y682579D01*
X258721Y682553D01*
X258843Y682518D01*
X258904Y682513D01*
X258939Y682506D01*
X258987Y682507D01*
X259087Y682499D01*
X276943Y682499D01*
X277018Y682507D01*
X277095Y682506D01*
X277191Y682527D01*
X277289Y682539D01*
X277361Y682564D01*
X277435Y682581D01*
X277524Y682623D01*
X277617Y682656D01*
X277681Y682698D01*
X277750Y682730D01*
X277827Y682792D01*
X277910Y682845D01*
X277963Y682900D01*
X278023Y682948D01*
X278083Y683025D01*
X278152Y683096D01*
X278191Y683161D01*
X278238Y683221D01*
X278307Y683355D01*
X278331Y683395D01*
X278336Y683413D01*
X278350Y683439D01*
X278605Y684055D01*
X280891Y686341D01*
X283879Y687579D01*
X300321Y687579D01*
X303309Y686341D01*
X304739Y684911D01*
X304818Y684848D01*
X304890Y684779D01*
X304954Y684740D01*
X305012Y684694D01*
X305103Y684651D01*
X305189Y684600D01*
X305260Y684577D01*
X305327Y684545D01*
X305425Y684524D01*
X305521Y684494D01*
X305595Y684488D01*
X305668Y684472D01*
X305768Y684474D01*
X305868Y684466D01*
X305942Y684477D01*
X306016Y684478D01*
X306113Y684502D01*
X306213Y684517D01*
X306282Y684545D01*
X306354Y684563D01*
X306443Y684609D01*
X306537Y684646D01*
X306598Y684688D01*
X306664Y684723D01*
X306740Y684788D01*
X306823Y684845D01*
X306873Y684900D01*
X306929Y684948D01*
X306989Y685029D01*
X307056Y685104D01*
X307092Y685169D01*
X307137Y685229D01*
X307176Y685321D01*
X307225Y685409D01*
X307245Y685480D01*
X307275Y685549D01*
X307292Y685647D01*
X307320Y685744D01*
X307328Y685844D01*
X307336Y685892D01*
X307334Y685927D01*
X307339Y685988D01*
X307339Y698312D01*
X307328Y698412D01*
X307326Y698512D01*
X307308Y698584D01*
X307299Y698658D01*
X307266Y698753D01*
X307241Y698850D01*
X307207Y698916D01*
X307182Y698986D01*
X307127Y699071D01*
X307081Y699160D01*
X307033Y699217D01*
X306993Y699279D01*
X306921Y699349D01*
X306856Y699425D01*
X306796Y699470D01*
X306742Y699521D01*
X306656Y699573D01*
X306575Y699633D01*
X306507Y699662D01*
X306443Y699700D01*
X306347Y699731D01*
X306255Y699771D01*
X306182Y699784D01*
X306111Y699806D01*
X306011Y699815D01*
X305912Y699832D01*
X305838Y699828D01*
X305764Y699834D01*
X305664Y699820D01*
X305564Y699814D01*
X305493Y699794D01*
X305419Y699783D01*
X305326Y699746D01*
X305229Y699718D01*
X305164Y699681D01*
X305095Y699654D01*
X305013Y699597D01*
X304925Y699548D01*
X304849Y699482D01*
X304809Y699455D01*
X304785Y699429D01*
X304739Y699389D01*
X303309Y697959D01*
X300321Y696721D01*
X283879Y696721D01*
X280891Y697959D01*
X278605Y700245D01*
X277367Y703233D01*
X277367Y706467D01*
X278605Y709455D01*
X280891Y711741D01*
X283879Y712979D01*
X300321Y712979D01*
X303309Y711741D01*
X304739Y710311D01*
X304818Y710248D01*
X304890Y710179D01*
X304954Y710140D01*
X305012Y710094D01*
X305103Y710051D01*
X305189Y710000D01*
X305260Y709977D01*
X305327Y709945D01*
X305425Y709924D01*
X305521Y709894D01*
X305595Y709888D01*
X305668Y709872D01*
X305768Y709874D01*
X305868Y709866D01*
X305942Y709877D01*
X306016Y709878D01*
X306113Y709902D01*
X306213Y709917D01*
X306282Y709945D01*
X306354Y709963D01*
X306443Y710009D01*
X306537Y710046D01*
X306598Y710088D01*
X306664Y710123D01*
X306740Y710188D01*
X306823Y710245D01*
X306873Y710300D01*
X306929Y710348D01*
X306989Y710429D01*
X307056Y710504D01*
X307092Y710569D01*
X307137Y710629D01*
X307176Y710721D01*
X307225Y710809D01*
X307245Y710880D01*
X307275Y710949D01*
X307292Y711047D01*
X307320Y711144D01*
X307328Y711244D01*
X307336Y711292D01*
X307334Y711327D01*
X307339Y711388D01*
X307339Y723712D01*
X307328Y723812D01*
X307326Y723912D01*
X307308Y723984D01*
X307299Y724058D01*
X307266Y724153D01*
X307241Y724250D01*
X307207Y724316D01*
X307182Y724386D01*
X307127Y724471D01*
X307081Y724560D01*
X307033Y724617D01*
X306993Y724679D01*
X306921Y724749D01*
X306856Y724825D01*
X306796Y724870D01*
X306742Y724921D01*
X306656Y724973D01*
X306575Y725033D01*
X306507Y725062D01*
X306443Y725100D01*
X306347Y725131D01*
X306255Y725171D01*
X306182Y725184D01*
X306111Y725206D01*
X306011Y725215D01*
X305912Y725232D01*
X305838Y725228D01*
X305764Y725234D01*
X305664Y725220D01*
X305564Y725214D01*
X305493Y725194D01*
X305419Y725183D01*
X305326Y725146D01*
X305229Y725118D01*
X305164Y725081D01*
X305095Y725054D01*
X305013Y724997D01*
X304925Y724948D01*
X304849Y724882D01*
X304809Y724855D01*
X304785Y724829D01*
X304739Y724789D01*
X303309Y723359D01*
X300321Y722121D01*
X283879Y722121D01*
X280891Y723359D01*
X278605Y725645D01*
X278350Y726261D01*
X278313Y726328D01*
X278284Y726399D01*
X278228Y726479D01*
X278181Y726566D01*
X278129Y726622D01*
X278086Y726685D01*
X278013Y726751D01*
X277946Y726824D01*
X277883Y726867D01*
X277827Y726918D01*
X277741Y726966D01*
X277660Y727022D01*
X277589Y727050D01*
X277522Y727087D01*
X277427Y727114D01*
X277335Y727150D01*
X277260Y727161D01*
X277186Y727182D01*
X277037Y727194D01*
X276991Y727201D01*
X276972Y727199D01*
X276943Y727201D01*
X259087Y727201D01*
X258961Y727187D01*
X258835Y727180D01*
X258789Y727167D01*
X258741Y727161D01*
X258622Y727119D01*
X258500Y727084D01*
X258458Y727060D01*
X258413Y727044D01*
X258306Y726975D01*
X258196Y726914D01*
X258150Y726874D01*
X258120Y726855D01*
X258086Y726820D01*
X258010Y726755D01*
X257006Y725751D01*
X255056Y724943D01*
X252944Y724943D01*
X250994Y725751D01*
X249501Y727244D01*
X248693Y729194D01*
X248693Y731306D01*
X249501Y733256D01*
X250994Y734749D01*
X252944Y735557D01*
X255056Y735557D01*
X257006Y734749D01*
X258010Y733745D01*
X258109Y733666D01*
X258203Y733582D01*
X258245Y733558D01*
X258283Y733528D01*
X258397Y733474D01*
X258508Y733413D01*
X258554Y733400D01*
X258598Y733379D01*
X258721Y733353D01*
X258843Y733318D01*
X258904Y733313D01*
X258939Y733306D01*
X258987Y733307D01*
X259087Y733299D01*
X276943Y733299D01*
X277018Y733307D01*
X277095Y733306D01*
X277191Y733327D01*
X277289Y733339D01*
X277361Y733364D01*
X277435Y733381D01*
X277524Y733423D01*
X277617Y733456D01*
X277681Y733498D01*
X277750Y733530D01*
X277827Y733592D01*
X277910Y733645D01*
X277963Y733700D01*
X278023Y733748D01*
X278083Y733825D01*
X278152Y733896D01*
X278191Y733961D01*
X278238Y734021D01*
X278307Y734155D01*
X278331Y734195D01*
X278336Y734213D01*
X278350Y734239D01*
X278605Y734855D01*
X280891Y737141D01*
X283879Y738379D01*
X300321Y738379D01*
X303309Y737141D01*
X304739Y735711D01*
X304818Y735648D01*
X304890Y735579D01*
X304954Y735540D01*
X305012Y735494D01*
X305103Y735451D01*
X305189Y735400D01*
X305260Y735377D01*
X305327Y735345D01*
X305425Y735324D01*
X305521Y735294D01*
X305595Y735288D01*
X305668Y735272D01*
X305768Y735274D01*
X305868Y735266D01*
X305942Y735277D01*
X306016Y735278D01*
X306113Y735302D01*
X306213Y735317D01*
X306282Y735345D01*
X306354Y735363D01*
X306443Y735409D01*
X306537Y735446D01*
X306598Y735488D01*
X306664Y735523D01*
X306740Y735588D01*
X306823Y735645D01*
X306873Y735700D01*
X306929Y735748D01*
X306989Y735829D01*
X307056Y735904D01*
X307092Y735969D01*
X307137Y736029D01*
X307176Y736121D01*
X307225Y736209D01*
X307245Y736280D01*
X307275Y736349D01*
X307292Y736447D01*
X307320Y736544D01*
X307328Y736644D01*
X307336Y736692D01*
X307334Y736727D01*
X307339Y736788D01*
X307339Y749112D01*
X307328Y749212D01*
X307326Y749312D01*
X307308Y749384D01*
X307299Y749458D01*
X307266Y749553D01*
X307241Y749650D01*
X307207Y749716D01*
X307182Y749786D01*
X307127Y749871D01*
X307081Y749960D01*
X307033Y750017D01*
X306993Y750079D01*
X306921Y750149D01*
X306856Y750225D01*
X306796Y750270D01*
X306742Y750321D01*
X306656Y750373D01*
X306575Y750433D01*
X306507Y750462D01*
X306443Y750500D01*
X306347Y750531D01*
X306255Y750571D01*
X306182Y750584D01*
X306111Y750606D01*
X306011Y750615D01*
X305912Y750632D01*
X305838Y750628D01*
X305764Y750634D01*
X305664Y750620D01*
X305564Y750614D01*
X305493Y750594D01*
X305419Y750583D01*
X305326Y750546D01*
X305229Y750518D01*
X305164Y750481D01*
X305095Y750454D01*
X305013Y750397D01*
X304925Y750348D01*
X304849Y750282D01*
X304809Y750255D01*
X304785Y750229D01*
X304739Y750189D01*
X303309Y748759D01*
X300321Y747521D01*
X283879Y747521D01*
X280891Y748759D01*
X278605Y751045D01*
X278350Y751661D01*
X278313Y751728D01*
X278284Y751799D01*
X278228Y751879D01*
X278181Y751966D01*
X278129Y752022D01*
X278086Y752085D01*
X278013Y752151D01*
X277946Y752224D01*
X277883Y752267D01*
X277827Y752318D01*
X277741Y752366D01*
X277660Y752422D01*
X277589Y752450D01*
X277522Y752487D01*
X277427Y752514D01*
X277335Y752550D01*
X277260Y752561D01*
X277186Y752582D01*
X277037Y752594D01*
X276991Y752601D01*
X276972Y752599D01*
X276943Y752601D01*
X262244Y752601D01*
X262118Y752587D01*
X261992Y752580D01*
X261946Y752567D01*
X261898Y752561D01*
X261779Y752519D01*
X261657Y752484D01*
X261615Y752460D01*
X261569Y752444D01*
X261463Y752375D01*
X261353Y752314D01*
X261307Y752274D01*
X261277Y752255D01*
X261243Y752220D01*
X261167Y752155D01*
X248913Y739901D01*
X228026Y739901D01*
X227926Y739890D01*
X227826Y739888D01*
X227754Y739870D01*
X227680Y739861D01*
X227585Y739828D01*
X227488Y739803D01*
X227422Y739769D01*
X227352Y739744D01*
X227267Y739689D01*
X227178Y739643D01*
X227121Y739595D01*
X227059Y739555D01*
X226989Y739483D01*
X226913Y739418D01*
X226868Y739358D01*
X226817Y739304D01*
X226765Y739218D01*
X226705Y739137D01*
X226676Y739069D01*
X226638Y739005D01*
X226607Y738909D01*
X226567Y738817D01*
X226554Y738744D01*
X226532Y738673D01*
X226523Y738573D01*
X226506Y738474D01*
X226510Y738400D01*
X226504Y738326D01*
X226518Y738226D01*
X226524Y738126D01*
X226544Y738055D01*
X226555Y737981D01*
X226592Y737888D01*
X226620Y737791D01*
X226657Y737726D01*
X226684Y737657D01*
X226741Y737575D01*
X226790Y737487D01*
X226855Y737411D01*
X226883Y737371D01*
X226909Y737347D01*
X226949Y737301D01*
X229395Y734855D01*
X230633Y731867D01*
X230633Y728633D01*
X229395Y725645D01*
X227109Y723359D01*
X224121Y722121D01*
X207679Y722121D01*
X204691Y723359D01*
X202405Y725645D01*
X201167Y728633D01*
X201167Y731867D01*
X202405Y734855D01*
X204851Y737301D01*
X204914Y737379D01*
X204983Y737452D01*
X205022Y737516D01*
X205068Y737574D01*
X205111Y737665D01*
X205162Y737751D01*
X205185Y737822D01*
X205217Y737889D01*
X205238Y737987D01*
X205268Y738083D01*
X205274Y738157D01*
X205290Y738230D01*
X205288Y738330D01*
X205296Y738430D01*
X205285Y738504D01*
X205284Y738578D01*
X205260Y738675D01*
X205245Y738775D01*
X205217Y738844D01*
X205199Y738916D01*
X205153Y739005D01*
X205116Y739099D01*
X205074Y739160D01*
X205039Y739226D01*
X204974Y739302D01*
X204917Y739385D01*
X204862Y739435D01*
X204814Y739491D01*
X204733Y739551D01*
X204658Y739618D01*
X204593Y739654D01*
X204533Y739699D01*
X204441Y739738D01*
X204353Y739787D01*
X204282Y739807D01*
X204213Y739837D01*
X204115Y739854D01*
X204018Y739882D01*
X203918Y739890D01*
X203870Y739898D01*
X203835Y739896D01*
X203774Y739901D01*
X186878Y739901D01*
X186752Y739887D01*
X186626Y739880D01*
X186580Y739867D01*
X186532Y739861D01*
X186413Y739819D01*
X186291Y739784D01*
X186249Y739760D01*
X186204Y739744D01*
X186097Y739675D01*
X185987Y739614D01*
X185941Y739574D01*
X185911Y739555D01*
X185877Y739520D01*
X185801Y739455D01*
X181167Y734821D01*
X174433Y734821D01*
X169671Y739583D01*
X169671Y746317D01*
X174433Y751079D01*
X181167Y751079D01*
X185801Y746445D01*
X185900Y746366D01*
X185994Y746282D01*
X186036Y746258D01*
X186074Y746228D01*
X186188Y746174D01*
X186299Y746113D01*
X186345Y746100D01*
X186389Y746079D01*
X186512Y746053D01*
X186634Y746018D01*
X186695Y746013D01*
X186730Y746006D01*
X186778Y746007D01*
X186878Y745999D01*
X203774Y745999D01*
X203874Y746010D01*
X203974Y746012D01*
X204046Y746030D01*
X204120Y746039D01*
X204215Y746072D01*
X204312Y746097D01*
X204378Y746131D01*
X204448Y746156D01*
X204533Y746211D01*
X204622Y746257D01*
X204679Y746305D01*
X204741Y746345D01*
X204811Y746417D01*
X204887Y746482D01*
X204932Y746542D01*
X204983Y746596D01*
X205035Y746682D01*
X205095Y746763D01*
X205124Y746831D01*
X205162Y746895D01*
X205193Y746991D01*
X205233Y747083D01*
X205246Y747156D01*
X205268Y747227D01*
X205277Y747327D01*
X205294Y747426D01*
X205290Y747500D01*
X205296Y747574D01*
X205282Y747674D01*
X205276Y747774D01*
X205256Y747845D01*
X205245Y747919D01*
X205208Y748012D01*
X205180Y748109D01*
X205143Y748174D01*
X205116Y748243D01*
X205059Y748325D01*
X205010Y748413D01*
X204945Y748489D01*
X204917Y748529D01*
X204891Y748553D01*
X204851Y748599D01*
X202405Y751045D01*
X201167Y754033D01*
X201167Y757267D01*
X202405Y760255D01*
X204691Y762541D01*
X207679Y763779D01*
X224121Y763779D01*
X227109Y762541D01*
X229395Y760255D01*
X230633Y757267D01*
X230633Y754033D01*
X229395Y751045D01*
X226949Y748599D01*
X226886Y748521D01*
X226817Y748448D01*
X226778Y748384D01*
X226732Y748326D01*
X226689Y748235D01*
X226638Y748149D01*
X226615Y748078D01*
X226583Y748011D01*
X226562Y747913D01*
X226532Y747817D01*
X226526Y747743D01*
X226510Y747670D01*
X226512Y747570D01*
X226504Y747470D01*
X226515Y747396D01*
X226516Y747322D01*
X226540Y747225D01*
X226555Y747125D01*
X226583Y747056D01*
X226601Y746984D01*
X226647Y746895D01*
X226684Y746801D01*
X226726Y746740D01*
X226761Y746674D01*
X226826Y746598D01*
X226883Y746515D01*
X226938Y746465D01*
X226986Y746409D01*
X227067Y746349D01*
X227142Y746282D01*
X227207Y746246D01*
X227267Y746201D01*
X227359Y746162D01*
X227447Y746113D01*
X227518Y746093D01*
X227587Y746063D01*
X227685Y746046D01*
X227782Y746018D01*
X227882Y746010D01*
X227930Y746002D01*
X227965Y746004D01*
X228026Y745999D01*
X245756Y745999D01*
X245882Y746013D01*
X246008Y746020D01*
X246054Y746033D01*
X246102Y746039D01*
X246221Y746081D01*
X246343Y746116D01*
X246385Y746140D01*
X246431Y746156D01*
X246537Y746225D01*
X246647Y746286D01*
X246693Y746326D01*
X246723Y746345D01*
X246757Y746380D01*
X246833Y746445D01*
X259087Y758699D01*
X276943Y758699D01*
X277018Y758707D01*
X277095Y758706D01*
X277191Y758727D01*
X277289Y758739D01*
X277361Y758764D01*
X277435Y758781D01*
X277524Y758823D01*
X277617Y758856D01*
X277681Y758898D01*
X277750Y758930D01*
X277827Y758992D01*
X277910Y759045D01*
X277963Y759100D01*
X278023Y759148D01*
X278083Y759225D01*
X278152Y759296D01*
X278191Y759361D01*
X278238Y759421D01*
X278307Y759555D01*
X278331Y759595D01*
X278336Y759613D01*
X278350Y759639D01*
X278605Y760255D01*
X280891Y762541D01*
X283879Y763779D01*
X300321Y763779D01*
X303309Y762541D01*
X304739Y761111D01*
X304818Y761048D01*
X304890Y760979D01*
X304954Y760940D01*
X305012Y760894D01*
X305103Y760851D01*
X305189Y760800D01*
X305260Y760777D01*
X305327Y760745D01*
X305425Y760724D01*
X305521Y760694D01*
X305595Y760688D01*
X305668Y760672D01*
X305768Y760674D01*
X305868Y760666D01*
X305942Y760677D01*
X306016Y760678D01*
X306113Y760702D01*
X306213Y760717D01*
X306282Y760745D01*
X306354Y760763D01*
X306443Y760809D01*
X306537Y760846D01*
X306598Y760888D01*
X306664Y760923D01*
X306740Y760988D01*
X306823Y761045D01*
X306873Y761100D01*
X306929Y761148D01*
X306989Y761229D01*
X307056Y761304D01*
X307092Y761369D01*
X307137Y761429D01*
X307176Y761521D01*
X307225Y761609D01*
X307245Y761680D01*
X307275Y761749D01*
X307292Y761847D01*
X307320Y761944D01*
X307328Y762044D01*
X307336Y762092D01*
X307334Y762127D01*
X307339Y762188D01*
X307339Y774512D01*
X307328Y774612D01*
X307326Y774712D01*
X307308Y774784D01*
X307299Y774858D01*
X307266Y774953D01*
X307241Y775050D01*
X307207Y775116D01*
X307182Y775186D01*
X307127Y775271D01*
X307081Y775360D01*
X307033Y775417D01*
X306993Y775479D01*
X306921Y775549D01*
X306856Y775625D01*
X306796Y775670D01*
X306742Y775721D01*
X306656Y775773D01*
X306575Y775833D01*
X306507Y775862D01*
X306443Y775900D01*
X306347Y775931D01*
X306255Y775971D01*
X306182Y775984D01*
X306111Y776006D01*
X306011Y776015D01*
X305912Y776032D01*
X305838Y776028D01*
X305764Y776034D01*
X305664Y776020D01*
X305564Y776014D01*
X305493Y775994D01*
X305419Y775983D01*
X305326Y775946D01*
X305229Y775918D01*
X305164Y775881D01*
X305095Y775854D01*
X305013Y775797D01*
X304925Y775748D01*
X304849Y775682D01*
X304809Y775655D01*
X304785Y775629D01*
X304739Y775589D01*
X303309Y774159D01*
X300321Y772921D01*
X283879Y772921D01*
X280891Y774159D01*
X278605Y776445D01*
X277367Y779433D01*
X277367Y782667D01*
X278605Y785655D01*
X280891Y787941D01*
X283879Y789179D01*
X300321Y789179D01*
X303309Y787941D01*
X304739Y786511D01*
X304818Y786448D01*
X304890Y786379D01*
X304954Y786340D01*
X305012Y786294D01*
X305103Y786251D01*
X305189Y786200D01*
X305260Y786177D01*
X305327Y786145D01*
X305425Y786124D01*
X305521Y786094D01*
X305595Y786088D01*
X305668Y786072D01*
X305768Y786074D01*
X305868Y786066D01*
X305942Y786077D01*
X306016Y786078D01*
X306113Y786102D01*
X306213Y786117D01*
X306282Y786145D01*
X306354Y786163D01*
X306443Y786209D01*
X306537Y786246D01*
X306598Y786288D01*
X306664Y786323D01*
X306740Y786388D01*
X306823Y786445D01*
X306873Y786500D01*
X306929Y786548D01*
X306989Y786629D01*
X307056Y786704D01*
X307092Y786769D01*
X307137Y786829D01*
X307176Y786921D01*
X307225Y787009D01*
X307245Y787080D01*
X307275Y787149D01*
X307292Y787247D01*
X307320Y787344D01*
X307328Y787444D01*
X307336Y787492D01*
X307334Y787527D01*
X307339Y787588D01*
X307339Y915412D01*
X307336Y915439D01*
X307338Y915465D01*
X307316Y915612D01*
X307299Y915759D01*
X307290Y915783D01*
X307287Y915810D01*
X307232Y915947D01*
X307182Y916087D01*
X307168Y916109D01*
X307158Y916133D01*
X307073Y916255D01*
X306993Y916379D01*
X306974Y916398D01*
X306959Y916420D01*
X306849Y916519D01*
X306742Y916622D01*
X306720Y916635D01*
X306700Y916653D01*
X306570Y916725D01*
X306443Y916800D01*
X306418Y916809D01*
X306395Y916821D01*
X306252Y916862D01*
X306111Y916907D01*
X306085Y916909D01*
X306059Y916916D01*
X305816Y916936D01*
X133617Y916881D01*
X133567Y916876D01*
X133517Y916878D01*
X133394Y916856D01*
X133270Y916841D01*
X133223Y916824D01*
X133174Y916815D01*
X133059Y916766D01*
X132942Y916724D01*
X132900Y916697D01*
X132854Y916677D01*
X132754Y916602D01*
X132650Y916535D01*
X132615Y916499D01*
X132574Y916469D01*
X132494Y916374D01*
X132407Y916284D01*
X132382Y916241D01*
X132349Y916203D01*
X132293Y916092D01*
X132229Y915985D01*
X132213Y915937D01*
X132191Y915892D01*
X132161Y915772D01*
X132123Y915653D01*
X132119Y915603D01*
X132106Y915554D01*
X132105Y915430D01*
X132095Y915305D01*
X132102Y915256D01*
X132101Y915206D01*
X132128Y915084D01*
X132146Y914961D01*
X132165Y914914D01*
X132176Y914865D01*
X132229Y914753D01*
X132275Y914637D01*
X132304Y914596D01*
X132325Y914551D01*
X132403Y914453D01*
X132474Y914351D01*
X132512Y914317D01*
X132543Y914278D01*
X132640Y914201D01*
X132733Y914117D01*
X132777Y914093D01*
X132816Y914062D01*
X133034Y913951D01*
X137497Y912102D01*
X142212Y907387D01*
X144765Y901225D01*
X144765Y864075D01*
X142212Y857913D01*
X137497Y853198D01*
X131335Y850645D01*
X124665Y850645D01*
X118503Y853198D01*
X113788Y857913D01*
X111235Y864075D01*
X111235Y901225D01*
X113788Y907387D01*
X118503Y912102D01*
X122957Y913947D01*
X123002Y913972D01*
X123049Y913989D01*
X123153Y914056D01*
X123262Y914117D01*
X123299Y914151D01*
X123342Y914178D01*
X123428Y914267D01*
X123520Y914351D01*
X123549Y914392D01*
X123584Y914429D01*
X123648Y914535D01*
X123718Y914637D01*
X123737Y914684D01*
X123763Y914728D01*
X123801Y914846D01*
X123846Y914962D01*
X123853Y915012D01*
X123869Y915060D01*
X123879Y915184D01*
X123897Y915306D01*
X123893Y915357D01*
X123897Y915407D01*
X123878Y915530D01*
X123868Y915654D01*
X123852Y915702D01*
X123845Y915752D01*
X123799Y915867D01*
X123761Y915985D01*
X123735Y916029D01*
X123716Y916076D01*
X123645Y916178D01*
X123581Y916284D01*
X123546Y916320D01*
X123517Y916362D01*
X123425Y916445D01*
X123338Y916534D01*
X123296Y916561D01*
X123258Y916595D01*
X123150Y916655D01*
X123045Y916722D01*
X122997Y916739D01*
X122953Y916764D01*
X122834Y916797D01*
X122717Y916839D01*
X122666Y916845D01*
X122618Y916858D01*
X122374Y916878D01*
X122370Y916878D01*
X75661Y916863D01*
X75611Y916857D01*
X75561Y916860D01*
X75438Y916837D01*
X75314Y916823D01*
X75267Y916806D01*
X75218Y916797D01*
X75104Y916748D01*
X74986Y916706D01*
X74944Y916678D01*
X74898Y916658D01*
X74798Y916584D01*
X74694Y916516D01*
X74659Y916480D01*
X74619Y916450D01*
X74538Y916355D01*
X74451Y916266D01*
X74426Y916223D01*
X74393Y916184D01*
X74337Y916074D01*
X74273Y915967D01*
X74257Y915919D01*
X74235Y915874D01*
X74205Y915754D01*
X74167Y915635D01*
X74163Y915585D01*
X74151Y915536D01*
X74149Y915411D01*
X74139Y915287D01*
X74146Y915238D01*
X74145Y915188D01*
X74172Y915066D01*
X74191Y914943D01*
X74209Y914896D01*
X74220Y914847D01*
X74273Y914735D01*
X74319Y914619D01*
X74348Y914578D01*
X74370Y914532D01*
X74447Y914435D01*
X74518Y914333D01*
X74556Y914299D01*
X74587Y914260D01*
X74685Y914183D01*
X74777Y914099D01*
X74821Y914075D01*
X74860Y914044D01*
X75078Y913933D01*
X79497Y912102D01*
X84212Y907387D01*
X86765Y901225D01*
X86765Y864075D01*
X84212Y857913D01*
X79497Y853198D01*
X73335Y850645D01*
X66665Y850645D01*
X60503Y853198D01*
X55788Y857913D01*
X53235Y864075D01*
X53235Y901225D01*
X55788Y907387D01*
X60503Y912102D01*
X64913Y913929D01*
X64957Y913954D01*
X65005Y913971D01*
X65109Y914038D01*
X65218Y914098D01*
X65255Y914132D01*
X65298Y914160D01*
X65384Y914249D01*
X65476Y914332D01*
X65505Y914374D01*
X65540Y914410D01*
X65604Y914517D01*
X65674Y914619D01*
X65693Y914666D01*
X65719Y914710D01*
X65757Y914828D01*
X65802Y914943D01*
X65809Y914993D01*
X65825Y915042D01*
X65835Y915165D01*
X65853Y915288D01*
X65849Y915339D01*
X65853Y915389D01*
X65834Y915512D01*
X65824Y915635D01*
X65808Y915684D01*
X65801Y915734D01*
X65755Y915849D01*
X65717Y915967D01*
X65691Y916011D01*
X65672Y916057D01*
X65601Y916159D01*
X65537Y916266D01*
X65502Y916302D01*
X65473Y916344D01*
X65381Y916427D01*
X65294Y916516D01*
X65252Y916543D01*
X65214Y916577D01*
X65105Y916637D01*
X65001Y916704D01*
X64953Y916721D01*
X64909Y916745D01*
X64790Y916779D01*
X64673Y916821D01*
X64622Y916826D01*
X64574Y916840D01*
X64330Y916860D01*
X64326Y916860D01*
X25354Y916847D01*
X25304Y916842D01*
X25254Y916844D01*
X25131Y916822D01*
X25008Y916807D01*
X24960Y916790D01*
X24911Y916781D01*
X24797Y916732D01*
X24679Y916690D01*
X24637Y916662D01*
X24591Y916642D01*
X24491Y916568D01*
X24387Y916501D01*
X24352Y916465D01*
X24312Y916435D01*
X24231Y916339D01*
X24145Y916250D01*
X24119Y916207D01*
X24086Y916168D01*
X24030Y916058D01*
X23966Y915951D01*
X23951Y915903D01*
X23928Y915858D01*
X23898Y915738D01*
X23860Y915619D01*
X23856Y915569D01*
X23844Y915520D01*
X23842Y915396D01*
X23832Y915271D01*
X23839Y915222D01*
X23839Y915172D01*
X23865Y915050D01*
X23884Y914927D01*
X23902Y914880D01*
X23913Y914831D01*
X23966Y914719D01*
X24013Y914603D01*
X24041Y914562D01*
X24063Y914516D01*
X24141Y914419D01*
X24212Y914317D01*
X24249Y914283D01*
X24280Y914244D01*
X24378Y914167D01*
X24470Y914083D01*
X24514Y914059D01*
X24554Y914028D01*
X24771Y913917D01*
X24881Y913871D01*
X26900Y912706D01*
X28749Y911287D01*
X30397Y909639D01*
X31816Y907790D01*
X32981Y905771D01*
X33873Y903618D01*
X34477Y901366D01*
X34781Y899055D01*
X34781Y885697D01*
X18524Y885697D01*
X18498Y885694D01*
X18472Y885696D01*
X18325Y885674D01*
X18178Y885657D01*
X18153Y885649D01*
X18127Y885645D01*
X17989Y885590D01*
X17850Y885540D01*
X17828Y885526D01*
X17803Y885516D01*
X17682Y885431D01*
X17557Y885351D01*
X17539Y885332D01*
X17517Y885317D01*
X17418Y885207D01*
X17315Y885100D01*
X17301Y885078D01*
X17284Y885058D01*
X17212Y884928D01*
X17136Y884801D01*
X17128Y884776D01*
X17115Y884753D01*
X17075Y884610D01*
X17030Y884469D01*
X17028Y884443D01*
X17021Y884418D01*
X17001Y884174D01*
X17001Y882649D01*
X15476Y882649D01*
X15450Y882646D01*
X15424Y882648D01*
X15277Y882626D01*
X15130Y882609D01*
X15105Y882600D01*
X15079Y882597D01*
X14941Y882542D01*
X14802Y882492D01*
X14780Y882477D01*
X14755Y882468D01*
X14634Y882383D01*
X14509Y882303D01*
X14491Y882284D01*
X14469Y882269D01*
X14370Y882159D01*
X14267Y882052D01*
X14253Y882030D01*
X14236Y882010D01*
X14164Y881880D01*
X14088Y881753D01*
X14080Y881728D01*
X14067Y881705D01*
X14027Y881562D01*
X13982Y881421D01*
X13980Y881395D01*
X13972Y881370D01*
X13953Y881126D01*
X13953Y849877D01*
X13524Y849933D01*
X12078Y850321D01*
X12028Y850328D01*
X11979Y850344D01*
X11856Y850354D01*
X11734Y850372D01*
X11683Y850368D01*
X11632Y850372D01*
X11509Y850353D01*
X11386Y850343D01*
X11338Y850328D01*
X11287Y850320D01*
X11172Y850274D01*
X11054Y850237D01*
X11011Y850210D01*
X10963Y850191D01*
X10862Y850121D01*
X10756Y850057D01*
X10719Y850022D01*
X10677Y849992D01*
X10594Y849901D01*
X10505Y849815D01*
X10478Y849772D01*
X10444Y849734D01*
X10384Y849625D01*
X10317Y849521D01*
X10300Y849473D01*
X10275Y849429D01*
X10242Y849310D01*
X10200Y849193D01*
X10194Y849142D01*
X10180Y849093D01*
X10161Y848849D01*
X10161Y802151D01*
X10167Y802100D01*
X10164Y802049D01*
X10186Y801927D01*
X10201Y801804D01*
X10218Y801756D01*
X10227Y801706D01*
X10276Y801593D01*
X10318Y801476D01*
X10346Y801433D01*
X10366Y801387D01*
X10440Y801287D01*
X10507Y801183D01*
X10544Y801148D01*
X10574Y801107D01*
X10669Y801027D01*
X10758Y800941D01*
X10802Y800915D01*
X10841Y800882D01*
X10951Y800826D01*
X11057Y800762D01*
X11105Y800747D01*
X11151Y800724D01*
X11271Y800694D01*
X11389Y800656D01*
X11440Y800652D01*
X11489Y800640D01*
X11613Y800638D01*
X11736Y800628D01*
X11787Y800636D01*
X11838Y800635D01*
X12078Y800679D01*
X13524Y801067D01*
X13953Y801123D01*
X13953Y769874D01*
X13956Y769848D01*
X13954Y769822D01*
X13976Y769675D01*
X13993Y769528D01*
X14001Y769503D01*
X14005Y769477D01*
X14060Y769339D01*
X14110Y769200D01*
X14124Y769178D01*
X14134Y769153D01*
X14219Y769032D01*
X14299Y768907D01*
X14318Y768889D01*
X14333Y768867D01*
X14443Y768768D01*
X14550Y768665D01*
X14572Y768651D01*
X14592Y768634D01*
X14722Y768562D01*
X14849Y768486D01*
X14874Y768478D01*
X14897Y768465D01*
X15040Y768425D01*
X15181Y768380D01*
X15207Y768378D01*
X15232Y768371D01*
X15476Y768351D01*
X17001Y768351D01*
X17001Y768349D01*
X15476Y768349D01*
X15450Y768346D01*
X15424Y768348D01*
X15277Y768326D01*
X15130Y768309D01*
X15105Y768300D01*
X15079Y768297D01*
X14941Y768242D01*
X14802Y768192D01*
X14780Y768177D01*
X14755Y768168D01*
X14634Y768083D01*
X14509Y768003D01*
X14491Y767984D01*
X14469Y767969D01*
X14370Y767859D01*
X14267Y767752D01*
X14253Y767730D01*
X14236Y767710D01*
X14164Y767580D01*
X14088Y767453D01*
X14080Y767428D01*
X14067Y767405D01*
X14027Y767262D01*
X13982Y767121D01*
X13980Y767095D01*
X13972Y767070D01*
X13953Y766826D01*
X13953Y735577D01*
X13524Y735633D01*
X12078Y736021D01*
X12028Y736028D01*
X11979Y736044D01*
X11856Y736054D01*
X11734Y736072D01*
X11683Y736068D01*
X11632Y736072D01*
X11509Y736053D01*
X11386Y736043D01*
X11338Y736028D01*
X11287Y736020D01*
X11172Y735974D01*
X11054Y735937D01*
X11011Y735910D01*
X10963Y735891D01*
X10862Y735821D01*
X10756Y735757D01*
X10719Y735722D01*
X10677Y735692D01*
X10594Y735601D01*
X10505Y735515D01*
X10478Y735472D01*
X10444Y735434D01*
X10384Y735325D01*
X10317Y735221D01*
X10300Y735173D01*
X10275Y735129D01*
X10242Y735010D01*
X10200Y734893D01*
X10194Y734842D01*
X10180Y734793D01*
X10161Y734549D01*
X10161Y687851D01*
X10167Y687800D01*
X10164Y687749D01*
X10186Y687627D01*
X10201Y687504D01*
X10218Y687456D01*
X10227Y687406D01*
X10276Y687293D01*
X10318Y687176D01*
X10346Y687133D01*
X10366Y687087D01*
X10440Y686987D01*
X10507Y686883D01*
X10544Y686848D01*
X10574Y686807D01*
X10669Y686727D01*
X10758Y686641D01*
X10802Y686615D01*
X10841Y686582D01*
X10951Y686526D01*
X11057Y686462D01*
X11105Y686447D01*
X11151Y686424D01*
X11271Y686394D01*
X11389Y686356D01*
X11440Y686352D01*
X11489Y686340D01*
X11613Y686338D01*
X11736Y686328D01*
X11787Y686336D01*
X11838Y686335D01*
X12078Y686379D01*
X13524Y686767D01*
X13953Y686823D01*
X13953Y655574D01*
X13956Y655548D01*
X13954Y655522D01*
X13976Y655375D01*
X13993Y655228D01*
X14001Y655203D01*
X14005Y655177D01*
X14060Y655039D01*
X14110Y654900D01*
X14124Y654878D01*
X14134Y654853D01*
X14219Y654732D01*
X14299Y654607D01*
X14318Y654589D01*
X14333Y654567D01*
X14443Y654468D01*
X14550Y654365D01*
X14572Y654351D01*
X14592Y654334D01*
X14722Y654262D01*
X14849Y654186D01*
X14874Y654178D01*
X14897Y654165D01*
X15040Y654125D01*
X15181Y654080D01*
X15207Y654078D01*
X15232Y654071D01*
X15476Y654051D01*
X17001Y654051D01*
X17001Y654049D01*
X15476Y654049D01*
X15450Y654046D01*
X15424Y654048D01*
X15277Y654026D01*
X15130Y654009D01*
X15105Y654000D01*
X15079Y653997D01*
X14941Y653942D01*
X14802Y653892D01*
X14780Y653877D01*
X14755Y653868D01*
X14634Y653783D01*
X14509Y653703D01*
X14491Y653684D01*
X14469Y653669D01*
X14370Y653559D01*
X14267Y653452D01*
X14253Y653430D01*
X14236Y653410D01*
X14164Y653280D01*
X14088Y653153D01*
X14080Y653128D01*
X14067Y653105D01*
X14027Y652962D01*
X13982Y652821D01*
X13980Y652795D01*
X13972Y652770D01*
X13953Y652526D01*
X13953Y621277D01*
X13524Y621333D01*
X12078Y621721D01*
X12028Y621728D01*
X11979Y621744D01*
X11856Y621754D01*
X11734Y621772D01*
X11683Y621768D01*
X11632Y621772D01*
X11509Y621753D01*
X11386Y621743D01*
X11338Y621728D01*
X11287Y621720D01*
X11172Y621674D01*
X11054Y621637D01*
X11011Y621610D01*
X10963Y621591D01*
X10862Y621521D01*
X10756Y621457D01*
X10719Y621422D01*
X10677Y621392D01*
X10594Y621301D01*
X10505Y621215D01*
X10478Y621172D01*
X10444Y621134D01*
X10384Y621025D01*
X10317Y620921D01*
X10300Y620873D01*
X10275Y620829D01*
X10242Y620710D01*
X10200Y620593D01*
X10194Y620542D01*
X10180Y620493D01*
X10161Y620249D01*
X10161Y573551D01*
X10167Y573500D01*
X10164Y573449D01*
X10186Y573327D01*
X10201Y573204D01*
X10218Y573156D01*
X10227Y573106D01*
X10276Y572993D01*
X10318Y572876D01*
X10346Y572833D01*
X10366Y572787D01*
X10440Y572687D01*
X10507Y572583D01*
X10544Y572548D01*
X10574Y572507D01*
X10669Y572427D01*
X10758Y572341D01*
X10802Y572315D01*
X10841Y572282D01*
X10951Y572226D01*
X11057Y572162D01*
X11105Y572147D01*
X11151Y572124D01*
X11271Y572094D01*
X11389Y572056D01*
X11440Y572052D01*
X11489Y572040D01*
X11613Y572038D01*
X11736Y572028D01*
X11787Y572036D01*
X11838Y572035D01*
X12078Y572079D01*
X13524Y572467D01*
X13953Y572523D01*
X13953Y541274D01*
X13956Y541248D01*
X13954Y541222D01*
X13976Y541075D01*
X13993Y540928D01*
X14001Y540903D01*
X14005Y540877D01*
X14060Y540739D01*
X14110Y540600D01*
X14124Y540578D01*
X14134Y540553D01*
X14219Y540432D01*
X14299Y540307D01*
X14318Y540289D01*
X14333Y540267D01*
X14443Y540168D01*
X14550Y540065D01*
X14572Y540051D01*
X14592Y540034D01*
X14722Y539962D01*
X14849Y539886D01*
X14874Y539878D01*
X14897Y539865D01*
X15040Y539825D01*
X15181Y539780D01*
X15207Y539778D01*
X15232Y539771D01*
X15476Y539751D01*
X17001Y539751D01*
X17001Y539749D01*
X15476Y539749D01*
X15450Y539746D01*
X15424Y539748D01*
X15277Y539726D01*
X15130Y539709D01*
X15105Y539700D01*
X15079Y539697D01*
X14941Y539642D01*
X14802Y539592D01*
X14780Y539577D01*
X14755Y539568D01*
X14634Y539483D01*
X14509Y539403D01*
X14491Y539384D01*
X14469Y539369D01*
X14370Y539259D01*
X14267Y539152D01*
X14253Y539130D01*
X14236Y539110D01*
X14164Y538980D01*
X14088Y538853D01*
X14080Y538828D01*
X14067Y538805D01*
X14027Y538662D01*
X13982Y538521D01*
X13980Y538495D01*
X13972Y538470D01*
X13953Y538226D01*
X13953Y506977D01*
X13524Y507033D01*
X12078Y507421D01*
X12028Y507428D01*
X11979Y507444D01*
X11856Y507454D01*
X11734Y507472D01*
X11683Y507468D01*
X11632Y507472D01*
X11509Y507453D01*
X11386Y507443D01*
X11338Y507428D01*
X11287Y507420D01*
X11172Y507374D01*
X11054Y507337D01*
X11011Y507310D01*
X10963Y507291D01*
X10862Y507221D01*
X10756Y507157D01*
X10719Y507122D01*
X10677Y507092D01*
X10594Y507001D01*
X10505Y506915D01*
X10478Y506872D01*
X10444Y506834D01*
X10384Y506725D01*
X10317Y506621D01*
X10300Y506573D01*
X10275Y506529D01*
X10242Y506410D01*
X10200Y506293D01*
X10194Y506242D01*
X10180Y506193D01*
X10161Y505949D01*
X10161Y421151D01*
X10167Y421100D01*
X10164Y421049D01*
X10186Y420927D01*
X10201Y420804D01*
X10218Y420756D01*
X10227Y420706D01*
X10276Y420593D01*
X10318Y420476D01*
X10346Y420433D01*
X10366Y420387D01*
X10440Y420287D01*
X10507Y420183D01*
X10544Y420148D01*
X10574Y420107D01*
X10669Y420027D01*
X10758Y419941D01*
X10802Y419915D01*
X10841Y419882D01*
X10951Y419826D01*
X11057Y419762D01*
X11105Y419747D01*
X11151Y419724D01*
X11271Y419694D01*
X11389Y419656D01*
X11440Y419652D01*
X11489Y419640D01*
X11613Y419638D01*
X11736Y419628D01*
X11787Y419636D01*
X11838Y419635D01*
X12078Y419679D01*
X13524Y420067D01*
X13953Y420123D01*
X13953Y388874D01*
X13956Y388848D01*
X13954Y388822D01*
X13976Y388675D01*
X13993Y388528D01*
X14001Y388503D01*
X14005Y388477D01*
X14060Y388339D01*
X14110Y388200D01*
X14124Y388178D01*
X14134Y388153D01*
X14219Y388032D01*
X14299Y387907D01*
X14318Y387889D01*
X14333Y387867D01*
X14443Y387768D01*
X14550Y387665D01*
X14572Y387651D01*
X14592Y387634D01*
X14722Y387562D01*
X14849Y387486D01*
X14874Y387478D01*
X14897Y387465D01*
X15040Y387425D01*
X15181Y387380D01*
X15207Y387378D01*
X15232Y387371D01*
X15476Y387351D01*
X17001Y387351D01*
X17001Y387349D01*
X15476Y387349D01*
X15450Y387346D01*
X15424Y387348D01*
X15277Y387326D01*
X15130Y387309D01*
X15105Y387300D01*
X15079Y387297D01*
X14941Y387242D01*
X14802Y387192D01*
X14780Y387177D01*
X14755Y387168D01*
X14634Y387083D01*
X14509Y387003D01*
X14491Y386984D01*
X14469Y386969D01*
X14370Y386859D01*
X14267Y386752D01*
X14253Y386730D01*
X14236Y386710D01*
X14164Y386580D01*
X14088Y386453D01*
X14080Y386428D01*
X14067Y386405D01*
X14027Y386262D01*
X13982Y386121D01*
X13980Y386095D01*
X13972Y386070D01*
X13953Y385826D01*
X13953Y354577D01*
X13524Y354633D01*
X12078Y355021D01*
X12028Y355028D01*
X11979Y355044D01*
X11856Y355054D01*
X11734Y355072D01*
X11683Y355068D01*
X11632Y355072D01*
X11509Y355053D01*
X11386Y355043D01*
X11338Y355028D01*
X11287Y355020D01*
X11172Y354974D01*
X11054Y354937D01*
X11011Y354910D01*
X10963Y354891D01*
X10862Y354821D01*
X10756Y354757D01*
X10719Y354722D01*
X10677Y354692D01*
X10594Y354601D01*
X10505Y354515D01*
X10478Y354472D01*
X10444Y354434D01*
X10384Y354325D01*
X10317Y354221D01*
X10300Y354173D01*
X10275Y354129D01*
X10242Y354010D01*
X10200Y353893D01*
X10194Y353842D01*
X10180Y353793D01*
X10161Y353549D01*
X10161Y306851D01*
X10167Y306800D01*
X10164Y306749D01*
X10186Y306627D01*
X10201Y306504D01*
X10218Y306456D01*
X10227Y306406D01*
X10276Y306293D01*
X10318Y306176D01*
X10346Y306133D01*
X10366Y306087D01*
X10440Y305987D01*
X10507Y305883D01*
X10544Y305848D01*
X10574Y305807D01*
X10669Y305727D01*
X10758Y305641D01*
X10802Y305615D01*
X10841Y305582D01*
X10951Y305526D01*
X11057Y305462D01*
X11105Y305447D01*
X11151Y305424D01*
X11271Y305394D01*
X11389Y305356D01*
X11440Y305352D01*
X11489Y305340D01*
X11613Y305338D01*
X11736Y305328D01*
X11787Y305336D01*
X11838Y305335D01*
X12078Y305379D01*
X13524Y305767D01*
X13953Y305823D01*
X13953Y274574D01*
X13956Y274548D01*
X13954Y274522D01*
X13976Y274375D01*
X13993Y274228D01*
X14001Y274203D01*
X14005Y274177D01*
X14060Y274039D01*
X14110Y273900D01*
X14124Y273878D01*
X14134Y273853D01*
X14219Y273732D01*
X14299Y273607D01*
X14318Y273589D01*
X14333Y273567D01*
X14443Y273468D01*
X14550Y273365D01*
X14572Y273351D01*
X14592Y273334D01*
X14722Y273262D01*
X14849Y273186D01*
X14874Y273178D01*
X14897Y273165D01*
X15040Y273125D01*
X15181Y273080D01*
X15207Y273078D01*
X15232Y273071D01*
X15476Y273051D01*
X17001Y273051D01*
X17001Y273049D01*
X15476Y273049D01*
X15450Y273046D01*
X15424Y273048D01*
X15277Y273026D01*
X15130Y273009D01*
X15105Y273000D01*
X15079Y272997D01*
X14941Y272942D01*
X14802Y272892D01*
X14780Y272877D01*
X14755Y272868D01*
X14634Y272783D01*
X14509Y272703D01*
X14491Y272684D01*
X14469Y272669D01*
X14370Y272559D01*
X14267Y272452D01*
X14253Y272430D01*
X14236Y272410D01*
X14164Y272280D01*
X14088Y272153D01*
X14080Y272128D01*
X14067Y272105D01*
X14027Y271962D01*
X13982Y271821D01*
X13980Y271795D01*
X13972Y271770D01*
X13953Y271526D01*
X13953Y240277D01*
X13524Y240333D01*
X12078Y240721D01*
X12028Y240728D01*
X11979Y240744D01*
X11856Y240754D01*
X11734Y240772D01*
X11683Y240768D01*
X11632Y240772D01*
X11509Y240753D01*
X11386Y240743D01*
X11338Y240728D01*
X11287Y240720D01*
X11172Y240674D01*
X11054Y240637D01*
X11011Y240610D01*
X10963Y240591D01*
X10862Y240521D01*
X10756Y240457D01*
X10719Y240422D01*
X10677Y240392D01*
X10594Y240301D01*
X10505Y240215D01*
X10478Y240172D01*
X10444Y240134D01*
X10384Y240025D01*
X10317Y239921D01*
X10300Y239873D01*
X10275Y239829D01*
X10242Y239710D01*
X10200Y239593D01*
X10194Y239542D01*
X10180Y239493D01*
X10161Y239249D01*
X10161Y192551D01*
X10167Y192500D01*
X10164Y192449D01*
X10186Y192327D01*
X10201Y192204D01*
X10218Y192156D01*
X10227Y192106D01*
X10276Y191993D01*
X10318Y191876D01*
X10346Y191833D01*
X10366Y191787D01*
X10440Y191687D01*
X10507Y191583D01*
X10544Y191548D01*
X10574Y191507D01*
X10669Y191427D01*
X10758Y191341D01*
X10802Y191315D01*
X10841Y191282D01*
X10951Y191226D01*
X11057Y191162D01*
X11105Y191147D01*
X11151Y191124D01*
X11271Y191094D01*
X11389Y191056D01*
X11440Y191052D01*
X11489Y191040D01*
X11613Y191038D01*
X11736Y191028D01*
X11787Y191036D01*
X11838Y191035D01*
X12078Y191079D01*
X13524Y191467D01*
X13953Y191523D01*
X13953Y160274D01*
X13956Y160248D01*
X13954Y160222D01*
X13976Y160075D01*
X13993Y159928D01*
X14001Y159903D01*
X14005Y159877D01*
X14060Y159739D01*
X14110Y159600D01*
X14124Y159578D01*
X14134Y159553D01*
X14219Y159432D01*
X14299Y159307D01*
X14318Y159289D01*
X14333Y159267D01*
X14443Y159168D01*
X14550Y159065D01*
X14572Y159051D01*
X14592Y159034D01*
X14722Y158962D01*
X14849Y158886D01*
X14874Y158878D01*
X14897Y158865D01*
X15040Y158825D01*
X15181Y158780D01*
X15207Y158778D01*
X15232Y158771D01*
X15476Y158751D01*
X17001Y158751D01*
X17001Y158749D01*
X15476Y158749D01*
X15450Y158746D01*
X15424Y158748D01*
X15277Y158726D01*
X15130Y158709D01*
X15105Y158700D01*
X15079Y158697D01*
X14941Y158642D01*
X14802Y158592D01*
X14780Y158577D01*
X14755Y158568D01*
X14634Y158483D01*
X14509Y158403D01*
X14491Y158384D01*
X14469Y158369D01*
X14370Y158259D01*
X14267Y158152D01*
X14253Y158130D01*
X14236Y158110D01*
X14164Y157980D01*
X14088Y157853D01*
X14080Y157828D01*
X14067Y157805D01*
X14027Y157662D01*
X13982Y157521D01*
X13980Y157495D01*
X13972Y157470D01*
X13953Y157226D01*
X13953Y125977D01*
X13524Y126033D01*
X12078Y126421D01*
X12028Y126428D01*
X11979Y126444D01*
X11856Y126454D01*
X11734Y126472D01*
X11683Y126468D01*
X11632Y126472D01*
X11509Y126453D01*
X11386Y126443D01*
X11338Y126428D01*
X11287Y126420D01*
X11172Y126374D01*
X11054Y126337D01*
X11011Y126310D01*
X10963Y126291D01*
X10862Y126221D01*
X10756Y126157D01*
X10719Y126122D01*
X10677Y126092D01*
X10594Y126001D01*
X10505Y125915D01*
X10478Y125872D01*
X10444Y125834D01*
X10384Y125725D01*
X10317Y125621D01*
X10300Y125573D01*
X10275Y125529D01*
X10242Y125410D01*
X10200Y125293D01*
X10194Y125242D01*
X10180Y125193D01*
X10161Y124949D01*
X10161Y78251D01*
X10167Y78200D01*
X10164Y78149D01*
X10186Y78027D01*
X10201Y77904D01*
X10218Y77856D01*
X10227Y77806D01*
X10276Y77693D01*
X10318Y77576D01*
X10346Y77533D01*
X10366Y77487D01*
X10440Y77387D01*
X10507Y77283D01*
X10544Y77248D01*
X10574Y77207D01*
X10669Y77127D01*
X10758Y77041D01*
X10802Y77015D01*
X10841Y76982D01*
X10951Y76926D01*
X11057Y76862D01*
X11105Y76847D01*
X11151Y76824D01*
X11271Y76794D01*
X11389Y76756D01*
X11440Y76752D01*
X11489Y76740D01*
X11613Y76738D01*
X11736Y76728D01*
X11787Y76736D01*
X11838Y76735D01*
X12078Y76779D01*
X13524Y77167D01*
X13953Y77223D01*
X13953Y45974D01*
X13956Y45948D01*
X13954Y45922D01*
X13976Y45775D01*
X13993Y45628D01*
X14001Y45603D01*
X14005Y45577D01*
X14060Y45439D01*
X14110Y45300D01*
X14124Y45278D01*
X14134Y45253D01*
X14219Y45132D01*
X14299Y45007D01*
X14318Y44989D01*
X14333Y44967D01*
X14443Y44868D01*
X14550Y44765D01*
X14572Y44751D01*
X14592Y44734D01*
X14722Y44662D01*
X14849Y44586D01*
X14874Y44578D01*
X14897Y44565D01*
X15040Y44525D01*
X15181Y44480D01*
X15207Y44478D01*
X15232Y44471D01*
X15476Y44451D01*
X17001Y44451D01*
X17001Y42926D01*
X17004Y42900D01*
X17002Y42874D01*
X17024Y42727D01*
X17041Y42580D01*
X17050Y42555D01*
X17053Y42529D01*
X17108Y42391D01*
X17158Y42252D01*
X17173Y42230D01*
X17182Y42205D01*
X17267Y42084D01*
X17347Y41959D01*
X17366Y41941D01*
X17381Y41919D01*
X17491Y41820D01*
X17598Y41717D01*
X17620Y41703D01*
X17640Y41686D01*
X17770Y41614D01*
X17897Y41538D01*
X17922Y41530D01*
X17945Y41517D01*
X18088Y41477D01*
X18229Y41432D01*
X18255Y41430D01*
X18280Y41422D01*
X18524Y41403D01*
X34781Y41403D01*
X34781Y28045D01*
X34477Y25734D01*
X33873Y23482D01*
X32981Y21329D01*
X31816Y19310D01*
X31350Y18703D01*
X30397Y17461D01*
X28749Y15813D01*
X26900Y14394D01*
X24881Y13229D01*
X24549Y13091D01*
X24505Y13067D01*
X24458Y13050D01*
X24353Y12982D01*
X24245Y12922D01*
X24207Y12888D01*
X24165Y12861D01*
X24078Y12771D01*
X23986Y12688D01*
X23958Y12646D01*
X23923Y12610D01*
X23859Y12503D01*
X23788Y12401D01*
X23770Y12354D01*
X23744Y12311D01*
X23706Y12193D01*
X23660Y12077D01*
X23653Y12027D01*
X23638Y11979D01*
X23628Y11855D01*
X23610Y11732D01*
X23614Y11682D01*
X23610Y11632D01*
X23628Y11509D01*
X23639Y11385D01*
X23654Y11337D01*
X23661Y11287D01*
X23707Y11171D01*
X23746Y11053D01*
X23772Y11010D01*
X23790Y10963D01*
X23861Y10861D01*
X23925Y10755D01*
X23960Y10718D01*
X23989Y10677D01*
X24081Y10594D01*
X24168Y10505D01*
X24210Y10477D01*
X24248Y10444D01*
X24357Y10383D01*
X24461Y10316D01*
X24509Y10300D01*
X24553Y10275D01*
X24673Y10241D01*
X24790Y10200D01*
X24840Y10194D01*
X24888Y10180D01*
X25132Y10161D01*
X64523Y10161D01*
X64573Y10166D01*
G37*
%LPC*%
G36*
X124665Y355345D02*
X124665Y355345D01*
X118503Y357898D01*
X113788Y362613D01*
X111235Y368775D01*
X111235Y405925D01*
X113788Y412087D01*
X118503Y416802D01*
X123011Y418669D01*
X123078Y418707D01*
X123149Y418735D01*
X123230Y418791D01*
X123316Y418839D01*
X123372Y418890D01*
X123435Y418934D01*
X123501Y419007D01*
X123574Y419073D01*
X123617Y419136D01*
X123668Y419193D01*
X123716Y419279D01*
X123772Y419360D01*
X123800Y419431D01*
X123837Y419498D01*
X123864Y419592D01*
X123900Y419684D01*
X123911Y419759D01*
X123932Y419833D01*
X123944Y419982D01*
X123951Y420029D01*
X123949Y420048D01*
X123951Y420077D01*
X123951Y477513D01*
X182887Y536449D01*
X248913Y536449D01*
X249039Y536463D01*
X249165Y536470D01*
X249211Y536483D01*
X249259Y536489D01*
X249378Y536531D01*
X249500Y536566D01*
X249542Y536590D01*
X249587Y536606D01*
X249694Y536675D01*
X249804Y536736D01*
X249850Y536776D01*
X249880Y536795D01*
X249914Y536830D01*
X249990Y536895D01*
X250994Y537899D01*
X252944Y538707D01*
X255056Y538707D01*
X257006Y537899D01*
X258499Y536406D01*
X259307Y534456D01*
X259307Y532344D01*
X258499Y530394D01*
X257006Y528901D01*
X255056Y528093D01*
X252944Y528093D01*
X250994Y528901D01*
X249990Y529905D01*
X249891Y529984D01*
X249797Y530068D01*
X249755Y530092D01*
X249717Y530122D01*
X249603Y530176D01*
X249492Y530237D01*
X249446Y530250D01*
X249402Y530271D01*
X249279Y530297D01*
X249157Y530332D01*
X249096Y530337D01*
X249061Y530344D01*
X249013Y530343D01*
X248913Y530351D01*
X186044Y530351D01*
X185918Y530337D01*
X185792Y530330D01*
X185746Y530317D01*
X185698Y530311D01*
X185579Y530269D01*
X185457Y530234D01*
X185415Y530210D01*
X185369Y530194D01*
X185263Y530125D01*
X185153Y530064D01*
X185107Y530024D01*
X185077Y530005D01*
X185043Y529970D01*
X184967Y529905D01*
X130495Y475433D01*
X130416Y475334D01*
X130332Y475240D01*
X130308Y475198D01*
X130278Y475160D01*
X130224Y475046D01*
X130163Y474935D01*
X130150Y474889D01*
X130129Y474845D01*
X130103Y474722D01*
X130068Y474600D01*
X130063Y474539D01*
X130056Y474504D01*
X130057Y474456D01*
X130049Y474356D01*
X130049Y420878D01*
X130052Y420852D01*
X130050Y420826D01*
X130072Y420679D01*
X130089Y420532D01*
X130097Y420507D01*
X130101Y420481D01*
X130156Y420343D01*
X130206Y420204D01*
X130220Y420182D01*
X130230Y420157D01*
X130315Y420036D01*
X130395Y419911D01*
X130414Y419893D01*
X130429Y419871D01*
X130539Y419772D01*
X130646Y419669D01*
X130668Y419655D01*
X130688Y419638D01*
X130818Y419566D01*
X130945Y419490D01*
X130970Y419482D01*
X130993Y419469D01*
X131136Y419429D01*
X131225Y419400D01*
X137497Y416802D01*
X142212Y412087D01*
X144765Y405925D01*
X144765Y368775D01*
X142212Y362613D01*
X137497Y357898D01*
X131335Y355345D01*
X124665Y355345D01*
G37*
%LPD*%
%LPC*%
G36*
X124665Y126745D02*
X124665Y126745D01*
X118503Y129298D01*
X113788Y134013D01*
X111235Y140175D01*
X111235Y177325D01*
X113788Y183487D01*
X118503Y188202D01*
X124665Y190755D01*
X131335Y190755D01*
X137497Y188202D01*
X142212Y183487D01*
X144765Y177325D01*
X144765Y140175D01*
X142212Y134013D01*
X137497Y129298D01*
X131335Y126745D01*
X124665Y126745D01*
G37*
%LPD*%
%LPC*%
G36*
X66665Y241045D02*
X66665Y241045D01*
X60503Y243598D01*
X55788Y248313D01*
X53235Y254475D01*
X53235Y291625D01*
X55788Y297787D01*
X60503Y302502D01*
X66665Y305055D01*
X73335Y305055D01*
X79497Y302502D01*
X84212Y297787D01*
X86765Y291625D01*
X86765Y254475D01*
X84212Y248313D01*
X79497Y243598D01*
X73335Y241045D01*
X66665Y241045D01*
G37*
%LPD*%
%LPC*%
G36*
X124665Y241045D02*
X124665Y241045D01*
X118503Y243598D01*
X113788Y248313D01*
X111235Y254475D01*
X111235Y291625D01*
X113788Y297787D01*
X118503Y302502D01*
X124665Y305055D01*
X131335Y305055D01*
X137497Y302502D01*
X142212Y297787D01*
X144765Y291625D01*
X144765Y254475D01*
X142212Y248313D01*
X137497Y243598D01*
X131335Y241045D01*
X124665Y241045D01*
G37*
%LPD*%
%LPC*%
G36*
X66665Y355345D02*
X66665Y355345D01*
X60503Y357898D01*
X55788Y362613D01*
X53235Y368775D01*
X53235Y405925D01*
X55788Y412087D01*
X60503Y416802D01*
X66665Y419355D01*
X73335Y419355D01*
X79497Y416802D01*
X84212Y412087D01*
X86765Y405925D01*
X86765Y368775D01*
X84212Y362613D01*
X79497Y357898D01*
X73335Y355345D01*
X66665Y355345D01*
G37*
%LPD*%
%LPC*%
G36*
X124665Y622045D02*
X124665Y622045D01*
X118503Y624598D01*
X113788Y629313D01*
X111235Y635475D01*
X111235Y672625D01*
X113788Y678787D01*
X118503Y683502D01*
X124665Y686055D01*
X131335Y686055D01*
X137497Y683502D01*
X142212Y678787D01*
X144765Y672625D01*
X144765Y635475D01*
X142212Y629313D01*
X137497Y624598D01*
X131335Y622045D01*
X124665Y622045D01*
G37*
%LPD*%
%LPC*%
G36*
X124665Y736345D02*
X124665Y736345D01*
X118503Y738898D01*
X113788Y743613D01*
X111235Y749775D01*
X111235Y786925D01*
X113788Y793087D01*
X118503Y797802D01*
X124665Y800355D01*
X131335Y800355D01*
X137497Y797802D01*
X142212Y793087D01*
X144765Y786925D01*
X144765Y749775D01*
X142212Y743613D01*
X137497Y738898D01*
X131335Y736345D01*
X124665Y736345D01*
G37*
%LPD*%
%LPC*%
G36*
X66665Y126745D02*
X66665Y126745D01*
X60503Y129298D01*
X55788Y134013D01*
X53235Y140175D01*
X53235Y177325D01*
X55788Y183487D01*
X60503Y188202D01*
X66665Y190755D01*
X73335Y190755D01*
X79497Y188202D01*
X84212Y183487D01*
X86765Y177325D01*
X86765Y140175D01*
X84212Y134013D01*
X79497Y129298D01*
X73335Y126745D01*
X66665Y126745D01*
G37*
%LPD*%
%LPC*%
G36*
X66665Y736345D02*
X66665Y736345D01*
X60503Y738898D01*
X55788Y743613D01*
X53235Y749775D01*
X53235Y786925D01*
X55788Y793087D01*
X60503Y797802D01*
X66665Y800355D01*
X73335Y800355D01*
X79497Y797802D01*
X84212Y793087D01*
X86765Y786925D01*
X86765Y749775D01*
X84212Y743613D01*
X79497Y738898D01*
X73335Y736345D01*
X66665Y736345D01*
G37*
%LPD*%
%LPC*%
G36*
X66665Y507745D02*
X66665Y507745D01*
X60503Y510298D01*
X55788Y515013D01*
X53235Y521175D01*
X53235Y558325D01*
X55788Y564487D01*
X60503Y569202D01*
X66665Y571755D01*
X73335Y571755D01*
X79497Y569202D01*
X84212Y564487D01*
X86765Y558325D01*
X86765Y521175D01*
X84212Y515013D01*
X79497Y510298D01*
X73335Y507745D01*
X66665Y507745D01*
G37*
%LPD*%
%LPC*%
G36*
X124665Y507745D02*
X124665Y507745D01*
X118503Y510298D01*
X113788Y515013D01*
X111235Y521175D01*
X111235Y558325D01*
X113788Y564487D01*
X118503Y569202D01*
X124665Y571755D01*
X131335Y571755D01*
X137497Y569202D01*
X142212Y564487D01*
X144765Y558325D01*
X144765Y521175D01*
X142212Y515013D01*
X137497Y510298D01*
X131335Y507745D01*
X124665Y507745D01*
G37*
%LPD*%
%LPC*%
G36*
X66665Y622045D02*
X66665Y622045D01*
X60503Y624598D01*
X55788Y629313D01*
X53235Y635475D01*
X53235Y672625D01*
X55788Y678787D01*
X60503Y683502D01*
X66665Y686055D01*
X73335Y686055D01*
X79497Y683502D01*
X84212Y678787D01*
X86765Y672625D01*
X86765Y635475D01*
X84212Y629313D01*
X79497Y624598D01*
X73335Y622045D01*
X66665Y622045D01*
G37*
%LPD*%
%LPC*%
G36*
X263123Y302513D02*
X263123Y302513D01*
X258063Y307573D01*
X258063Y314727D01*
X263123Y319787D01*
X270277Y319787D01*
X274911Y315153D01*
X275010Y315074D01*
X275104Y314990D01*
X275146Y314966D01*
X275184Y314936D01*
X275298Y314882D01*
X275409Y314821D01*
X275456Y314808D01*
X275499Y314787D01*
X275623Y314761D01*
X275745Y314726D01*
X275805Y314721D01*
X275840Y314714D01*
X275888Y314715D01*
X275988Y314707D01*
X277296Y314707D01*
X277421Y314721D01*
X277548Y314728D01*
X277594Y314741D01*
X277642Y314747D01*
X277761Y314789D01*
X277882Y314824D01*
X277925Y314848D01*
X277970Y314864D01*
X278076Y314933D01*
X278187Y314994D01*
X278233Y315034D01*
X278263Y315053D01*
X278296Y315088D01*
X278373Y315153D01*
X288097Y324877D01*
X288176Y324976D01*
X288260Y325070D01*
X288284Y325112D01*
X288314Y325150D01*
X288368Y325264D01*
X288429Y325375D01*
X288442Y325422D01*
X288463Y325465D01*
X288489Y325589D01*
X288524Y325710D01*
X288529Y325771D01*
X288536Y325806D01*
X288535Y325854D01*
X288543Y325954D01*
X288543Y490601D01*
X288540Y490627D01*
X288542Y490653D01*
X288520Y490800D01*
X288503Y490947D01*
X288495Y490972D01*
X288491Y490998D01*
X288436Y491136D01*
X288386Y491275D01*
X288372Y491297D01*
X288362Y491322D01*
X288277Y491443D01*
X288197Y491568D01*
X288178Y491586D01*
X288163Y491608D01*
X288053Y491707D01*
X287946Y491810D01*
X287924Y491824D01*
X287904Y491841D01*
X287774Y491913D01*
X287647Y491989D01*
X287622Y491997D01*
X287599Y492010D01*
X287456Y492050D01*
X287315Y492095D01*
X287289Y492097D01*
X287264Y492105D01*
X287020Y492124D01*
X283855Y492124D01*
X280354Y493574D01*
X277674Y496254D01*
X276224Y499755D01*
X276224Y503545D01*
X277674Y507046D01*
X280354Y509726D01*
X283855Y511176D01*
X287645Y511176D01*
X291146Y509726D01*
X293826Y507046D01*
X295276Y503545D01*
X295276Y499755D01*
X294903Y498856D01*
X294882Y498783D01*
X294852Y498713D01*
X294835Y498616D01*
X294808Y498521D01*
X294804Y498445D01*
X294790Y498370D01*
X294796Y498271D01*
X294791Y498173D01*
X294804Y498098D01*
X294808Y498022D01*
X294836Y497927D01*
X294853Y497830D01*
X294884Y497760D01*
X294905Y497687D01*
X294953Y497601D01*
X294992Y497511D01*
X295038Y497449D01*
X295075Y497383D01*
X295172Y497269D01*
X295200Y497231D01*
X295215Y497219D01*
X295234Y497196D01*
X295657Y496773D01*
X295657Y322377D01*
X280873Y307593D01*
X275988Y307593D01*
X275863Y307579D01*
X275737Y307572D01*
X275690Y307559D01*
X275642Y307553D01*
X275523Y307511D01*
X275402Y307476D01*
X275359Y307452D01*
X275314Y307436D01*
X275208Y307367D01*
X275098Y307306D01*
X275051Y307266D01*
X275021Y307247D01*
X274988Y307212D01*
X274911Y307147D01*
X270277Y302513D01*
X263123Y302513D01*
G37*
%LPD*%
%LPC*%
G36*
X174433Y423671D02*
X174433Y423671D01*
X169671Y428433D01*
X169671Y435167D01*
X174433Y439929D01*
X181167Y439929D01*
X185801Y435295D01*
X185900Y435216D01*
X185994Y435132D01*
X186036Y435108D01*
X186074Y435078D01*
X186188Y435024D01*
X186299Y434963D01*
X186345Y434950D01*
X186389Y434929D01*
X186512Y434903D01*
X186634Y434868D01*
X186695Y434863D01*
X186730Y434856D01*
X186778Y434857D01*
X186878Y434849D01*
X210813Y434849D01*
X210939Y434863D01*
X211065Y434870D01*
X211111Y434883D01*
X211159Y434889D01*
X211278Y434931D01*
X211400Y434966D01*
X211442Y434990D01*
X211487Y435006D01*
X211593Y435075D01*
X211704Y435136D01*
X211750Y435176D01*
X211780Y435195D01*
X211814Y435230D01*
X211890Y435295D01*
X212894Y436299D01*
X214844Y437107D01*
X216956Y437107D01*
X218906Y436299D01*
X220399Y434806D01*
X221207Y432856D01*
X221207Y430744D01*
X220399Y428794D01*
X218906Y427301D01*
X216956Y426493D01*
X214844Y426493D01*
X212894Y427301D01*
X211890Y428305D01*
X211791Y428384D01*
X211697Y428468D01*
X211655Y428492D01*
X211617Y428522D01*
X211503Y428576D01*
X211392Y428637D01*
X211346Y428650D01*
X211302Y428671D01*
X211179Y428697D01*
X211057Y428732D01*
X210996Y428737D01*
X210961Y428744D01*
X210913Y428743D01*
X210813Y428751D01*
X186878Y428751D01*
X186752Y428737D01*
X186626Y428730D01*
X186580Y428717D01*
X186532Y428711D01*
X186413Y428669D01*
X186291Y428634D01*
X186249Y428610D01*
X186204Y428594D01*
X186097Y428525D01*
X185987Y428464D01*
X185941Y428424D01*
X185911Y428405D01*
X185877Y428370D01*
X185801Y428305D01*
X181167Y423671D01*
X174433Y423671D01*
G37*
%LPD*%
%LPC*%
G36*
X164044Y540793D02*
X164044Y540793D01*
X162094Y541601D01*
X160601Y543094D01*
X159793Y545044D01*
X159793Y547156D01*
X160601Y549106D01*
X162094Y550599D01*
X164044Y551407D01*
X166156Y551407D01*
X168106Y550599D01*
X169110Y549595D01*
X169209Y549516D01*
X169303Y549432D01*
X169345Y549408D01*
X169383Y549378D01*
X169497Y549324D01*
X169608Y549263D01*
X169654Y549250D01*
X169698Y549229D01*
X169821Y549203D01*
X169943Y549168D01*
X170004Y549163D01*
X170039Y549156D01*
X170087Y549157D01*
X170187Y549149D01*
X210813Y549149D01*
X210939Y549163D01*
X211065Y549170D01*
X211111Y549183D01*
X211159Y549189D01*
X211278Y549231D01*
X211400Y549266D01*
X211442Y549290D01*
X211487Y549306D01*
X211593Y549375D01*
X211704Y549436D01*
X211750Y549476D01*
X211780Y549495D01*
X211814Y549530D01*
X211890Y549595D01*
X212894Y550599D01*
X214844Y551407D01*
X216956Y551407D01*
X218906Y550599D01*
X220399Y549106D01*
X221207Y547156D01*
X221207Y545044D01*
X220399Y543094D01*
X218906Y541601D01*
X216956Y540793D01*
X214844Y540793D01*
X212894Y541601D01*
X211890Y542605D01*
X211791Y542684D01*
X211697Y542768D01*
X211655Y542792D01*
X211617Y542822D01*
X211503Y542876D01*
X211392Y542937D01*
X211346Y542950D01*
X211302Y542971D01*
X211179Y542997D01*
X211057Y543032D01*
X210996Y543037D01*
X210961Y543044D01*
X210913Y543043D01*
X210813Y543051D01*
X170187Y543051D01*
X170061Y543037D01*
X169935Y543030D01*
X169889Y543017D01*
X169841Y543011D01*
X169722Y542969D01*
X169600Y542934D01*
X169558Y542910D01*
X169513Y542894D01*
X169407Y542825D01*
X169296Y542764D01*
X169250Y542724D01*
X169220Y542705D01*
X169186Y542670D01*
X169110Y542605D01*
X168106Y541601D01*
X166156Y540793D01*
X164044Y540793D01*
G37*
%LPD*%
%LPC*%
G36*
X207679Y772921D02*
X207679Y772921D01*
X204691Y774159D01*
X202405Y776445D01*
X201167Y779433D01*
X201167Y782667D01*
X202405Y785655D01*
X204691Y787941D01*
X207679Y789179D01*
X224121Y789179D01*
X227109Y787941D01*
X229395Y785655D01*
X230633Y782667D01*
X230633Y779433D01*
X229395Y776445D01*
X227109Y774159D01*
X224121Y772921D01*
X207679Y772921D01*
G37*
%LPD*%
%LPC*%
G36*
X207679Y671321D02*
X207679Y671321D01*
X204691Y672559D01*
X202405Y674845D01*
X201167Y677833D01*
X201167Y681067D01*
X202405Y684055D01*
X204691Y686341D01*
X207679Y687579D01*
X224121Y687579D01*
X227109Y686341D01*
X229395Y684055D01*
X230633Y681067D01*
X230633Y677833D01*
X229395Y674845D01*
X227109Y672559D01*
X224121Y671321D01*
X207679Y671321D01*
G37*
%LPD*%
%LPC*%
G36*
X207679Y696721D02*
X207679Y696721D01*
X204691Y697959D01*
X202405Y700245D01*
X201167Y703233D01*
X201167Y706467D01*
X202405Y709455D01*
X204691Y711741D01*
X207679Y712979D01*
X224121Y712979D01*
X227109Y711741D01*
X229395Y709455D01*
X230633Y706467D01*
X230633Y703233D01*
X229395Y700245D01*
X227109Y697959D01*
X224121Y696721D01*
X207679Y696721D01*
G37*
%LPD*%
%LPC*%
G36*
X20047Y47497D02*
X20047Y47497D01*
X20047Y77223D01*
X20476Y77167D01*
X22728Y76563D01*
X24881Y75671D01*
X26900Y74506D01*
X28749Y73087D01*
X30397Y71439D01*
X31816Y69590D01*
X32981Y67571D01*
X33873Y65418D01*
X34477Y63166D01*
X34781Y60855D01*
X34781Y47497D01*
X20047Y47497D01*
G37*
%LPD*%
%LPC*%
G36*
X20047Y390397D02*
X20047Y390397D01*
X20047Y420123D01*
X20476Y420067D01*
X22728Y419463D01*
X24881Y418571D01*
X26900Y417406D01*
X28749Y415987D01*
X30397Y414339D01*
X31816Y412490D01*
X32981Y410471D01*
X33873Y408318D01*
X34477Y406066D01*
X34781Y403755D01*
X34781Y390397D01*
X20047Y390397D01*
G37*
%LPD*%
%LPC*%
G36*
X20047Y657097D02*
X20047Y657097D01*
X20047Y686823D01*
X20476Y686767D01*
X22728Y686163D01*
X24881Y685271D01*
X26900Y684106D01*
X28749Y682687D01*
X30397Y681039D01*
X31816Y679190D01*
X32981Y677171D01*
X33873Y675018D01*
X34477Y672766D01*
X34781Y670455D01*
X34781Y657097D01*
X20047Y657097D01*
G37*
%LPD*%
%LPC*%
G36*
X20047Y771397D02*
X20047Y771397D01*
X20047Y801123D01*
X20476Y801067D01*
X22728Y800463D01*
X24881Y799571D01*
X26900Y798406D01*
X28749Y796987D01*
X30397Y795339D01*
X31816Y793490D01*
X32981Y791471D01*
X33873Y789318D01*
X34477Y787066D01*
X34781Y784755D01*
X34781Y771397D01*
X20047Y771397D01*
G37*
%LPD*%
%LPC*%
G36*
X20047Y276097D02*
X20047Y276097D01*
X20047Y305823D01*
X20476Y305767D01*
X22728Y305163D01*
X24881Y304271D01*
X26900Y303106D01*
X28749Y301687D01*
X30397Y300039D01*
X31816Y298190D01*
X32981Y296171D01*
X33873Y294018D01*
X34477Y291766D01*
X34781Y289455D01*
X34781Y276097D01*
X20047Y276097D01*
G37*
%LPD*%
%LPC*%
G36*
X20047Y542797D02*
X20047Y542797D01*
X20047Y572523D01*
X20476Y572467D01*
X22728Y571863D01*
X24881Y570971D01*
X26900Y569806D01*
X28749Y568387D01*
X30397Y566739D01*
X31816Y564890D01*
X32981Y562871D01*
X33873Y560718D01*
X34477Y558466D01*
X34781Y556155D01*
X34781Y542797D01*
X20047Y542797D01*
G37*
%LPD*%
%LPC*%
G36*
X20047Y161797D02*
X20047Y161797D01*
X20047Y191523D01*
X20476Y191467D01*
X22728Y190863D01*
X24881Y189971D01*
X26900Y188806D01*
X28749Y187387D01*
X30397Y185739D01*
X31816Y183890D01*
X32981Y181871D01*
X33873Y179718D01*
X34477Y177466D01*
X34781Y175155D01*
X34781Y161797D01*
X20047Y161797D01*
G37*
%LPD*%
%LPC*%
G36*
X20047Y384303D02*
X20047Y384303D01*
X34781Y384303D01*
X34781Y370945D01*
X34477Y368634D01*
X33873Y366382D01*
X32981Y364229D01*
X31816Y362210D01*
X31221Y361435D01*
X31220Y361434D01*
X30397Y360361D01*
X28749Y358713D01*
X26900Y357294D01*
X24881Y356129D01*
X22728Y355237D01*
X20476Y354633D01*
X20047Y354577D01*
X20047Y384303D01*
G37*
%LPD*%
%LPC*%
G36*
X20047Y270003D02*
X20047Y270003D01*
X34781Y270003D01*
X34781Y256645D01*
X34477Y254334D01*
X33873Y252082D01*
X32981Y249929D01*
X31816Y247910D01*
X31264Y247191D01*
X30397Y246061D01*
X28749Y244413D01*
X26900Y242994D01*
X24881Y241829D01*
X22728Y240937D01*
X20476Y240333D01*
X20047Y240277D01*
X20047Y270003D01*
G37*
%LPD*%
%LPC*%
G36*
X20047Y155703D02*
X20047Y155703D01*
X34781Y155703D01*
X34781Y142345D01*
X34477Y140034D01*
X33873Y137782D01*
X32981Y135629D01*
X31816Y133610D01*
X31307Y132947D01*
X30397Y131761D01*
X28749Y130113D01*
X26900Y128694D01*
X24881Y127529D01*
X22728Y126637D01*
X20476Y126033D01*
X20047Y125977D01*
X20047Y155703D01*
G37*
%LPD*%
%LPC*%
G36*
X20047Y536703D02*
X20047Y536703D01*
X34781Y536703D01*
X34781Y523345D01*
X34477Y521034D01*
X33873Y518782D01*
X32981Y516629D01*
X31816Y514610D01*
X31163Y513760D01*
X31163Y513759D01*
X30397Y512761D01*
X28749Y511113D01*
X26900Y509694D01*
X24881Y508529D01*
X22728Y507637D01*
X20476Y507033D01*
X20047Y506977D01*
X20047Y536703D01*
G37*
%LPD*%
%LPC*%
G36*
X20047Y765303D02*
X20047Y765303D01*
X34781Y765303D01*
X34781Y751945D01*
X34477Y749634D01*
X33873Y747382D01*
X32981Y745229D01*
X31816Y743210D01*
X31077Y742247D01*
X31076Y742247D01*
X30397Y741361D01*
X28749Y739713D01*
X26900Y738294D01*
X24881Y737129D01*
X22728Y736237D01*
X20476Y735633D01*
X20047Y735577D01*
X20047Y765303D01*
G37*
%LPD*%
%LPC*%
G36*
X20047Y651003D02*
X20047Y651003D01*
X34781Y651003D01*
X34781Y637645D01*
X34477Y635334D01*
X33873Y633082D01*
X32981Y630929D01*
X31816Y628910D01*
X31120Y628003D01*
X30397Y627061D01*
X28749Y625413D01*
X26900Y623994D01*
X24881Y622829D01*
X22728Y621937D01*
X20476Y621333D01*
X20047Y621277D01*
X20047Y651003D01*
G37*
%LPD*%
%LPC*%
G36*
X20047Y879603D02*
X20047Y879603D01*
X34781Y879603D01*
X34781Y866245D01*
X34477Y863934D01*
X33873Y861682D01*
X32981Y859529D01*
X31816Y857510D01*
X31034Y856491D01*
X31033Y856491D01*
X31033Y856490D01*
X30397Y855661D01*
X28749Y854013D01*
X26900Y852594D01*
X24881Y851429D01*
X22728Y850537D01*
X20476Y849933D01*
X20047Y849877D01*
X20047Y879603D01*
G37*
%LPD*%
%LPC*%
G36*
X208355Y119435D02*
X208355Y119435D01*
X205575Y120587D01*
X203447Y122715D01*
X202295Y125495D01*
X202295Y128505D01*
X203447Y131285D01*
X205575Y133413D01*
X208355Y134565D01*
X223445Y134565D01*
X226225Y133413D01*
X228353Y131285D01*
X229505Y128505D01*
X229505Y125495D01*
X228353Y122715D01*
X226225Y120587D01*
X223445Y119435D01*
X208355Y119435D01*
G37*
%LPD*%
%LPC*%
G36*
X218304Y492124D02*
X218304Y492124D01*
X212724Y497704D01*
X212724Y505596D01*
X218304Y511176D01*
X226196Y511176D01*
X231776Y505596D01*
X231776Y497704D01*
X226196Y492124D01*
X218304Y492124D01*
G37*
%LPD*%
%LPC*%
G36*
X237723Y302513D02*
X237723Y302513D01*
X232663Y307573D01*
X232663Y314727D01*
X237723Y319787D01*
X244877Y319787D01*
X249937Y314727D01*
X249937Y307573D01*
X244877Y302513D01*
X237723Y302513D01*
G37*
%LPD*%
%LPC*%
G36*
X237723Y404113D02*
X237723Y404113D01*
X232663Y409173D01*
X232663Y416327D01*
X237723Y421387D01*
X244877Y421387D01*
X249937Y416327D01*
X249937Y409173D01*
X244877Y404113D01*
X237723Y404113D01*
G37*
%LPD*%
%LPC*%
G36*
X263123Y404113D02*
X263123Y404113D01*
X258063Y409173D01*
X258063Y416327D01*
X263123Y421387D01*
X270277Y421387D01*
X275337Y416327D01*
X275337Y409173D01*
X270277Y404113D01*
X263123Y404113D01*
G37*
%LPD*%
%LPC*%
G36*
X174433Y576071D02*
X174433Y576071D01*
X169671Y580833D01*
X169671Y587567D01*
X174433Y592329D01*
X181167Y592329D01*
X185929Y587567D01*
X185929Y580833D01*
X181167Y576071D01*
X174433Y576071D01*
G37*
%LPD*%
%LPC*%
G36*
X276033Y226821D02*
X276033Y226821D01*
X271271Y231583D01*
X271271Y238317D01*
X276033Y243079D01*
X282767Y243079D01*
X287529Y238317D01*
X287529Y231583D01*
X282767Y226821D01*
X276033Y226821D01*
G37*
%LPD*%
%LPC*%
G36*
X174433Y334771D02*
X174433Y334771D01*
X169671Y339533D01*
X169671Y346267D01*
X174433Y351029D01*
X181167Y351029D01*
X185929Y346267D01*
X185929Y339533D01*
X181167Y334771D01*
X174433Y334771D01*
G37*
%LPD*%
%LPC*%
G36*
X174433Y309371D02*
X174433Y309371D01*
X169671Y314133D01*
X169671Y320867D01*
X174433Y325629D01*
X181167Y325629D01*
X185929Y320867D01*
X185929Y314133D01*
X181167Y309371D01*
X174433Y309371D01*
G37*
%LPD*%
%LPC*%
G36*
X174433Y214121D02*
X174433Y214121D01*
X169671Y218883D01*
X169671Y225617D01*
X174433Y230379D01*
X181167Y230379D01*
X185929Y225617D01*
X185929Y218883D01*
X181167Y214121D01*
X174433Y214121D01*
G37*
%LPD*%
%LPC*%
G36*
X174433Y144271D02*
X174433Y144271D01*
X169671Y149033D01*
X169671Y155767D01*
X174433Y160529D01*
X181167Y160529D01*
X185929Y155767D01*
X185929Y149033D01*
X181167Y144271D01*
X174433Y144271D01*
G37*
%LPD*%
%LPC*%
G36*
X225233Y588771D02*
X225233Y588771D01*
X220471Y593533D01*
X220471Y600267D01*
X225233Y605029D01*
X231967Y605029D01*
X236729Y600267D01*
X236729Y593533D01*
X231967Y588771D01*
X225233Y588771D01*
G37*
%LPD*%
%LPC*%
G36*
X225233Y87121D02*
X225233Y87121D01*
X220471Y91883D01*
X220471Y98617D01*
X225233Y103379D01*
X231967Y103379D01*
X236729Y98617D01*
X236729Y91883D01*
X231967Y87121D01*
X225233Y87121D01*
G37*
%LPD*%
%LPC*%
G36*
X174433Y709421D02*
X174433Y709421D01*
X169671Y714183D01*
X169671Y720917D01*
X174433Y725679D01*
X181167Y725679D01*
X185929Y720917D01*
X185929Y714183D01*
X181167Y709421D01*
X174433Y709421D01*
G37*
%LPD*%
%LPC*%
G36*
X174433Y804671D02*
X174433Y804671D01*
X169671Y809433D01*
X169671Y816167D01*
X174433Y820929D01*
X181167Y820929D01*
X185929Y816167D01*
X185929Y809433D01*
X181167Y804671D01*
X174433Y804671D01*
G37*
%LPD*%
%LPC*%
G36*
X174433Y830071D02*
X174433Y830071D01*
X169671Y834833D01*
X169671Y841567D01*
X174433Y846329D01*
X181167Y846329D01*
X185929Y841567D01*
X185929Y834833D01*
X181167Y830071D01*
X174433Y830071D01*
G37*
%LPD*%
%LPC*%
G36*
X174433Y118871D02*
X174433Y118871D01*
X169671Y123633D01*
X169671Y130367D01*
X174433Y135129D01*
X181167Y135129D01*
X185929Y130367D01*
X185929Y123633D01*
X181167Y118871D01*
X174433Y118871D01*
G37*
%LPD*%
%LPC*%
G36*
X276033Y804671D02*
X276033Y804671D01*
X271271Y809433D01*
X271271Y816167D01*
X276033Y820929D01*
X282767Y820929D01*
X287529Y816167D01*
X287529Y809433D01*
X282767Y804671D01*
X276033Y804671D01*
G37*
%LPD*%
%LPC*%
G36*
X174433Y601471D02*
X174433Y601471D01*
X169671Y606233D01*
X169671Y612967D01*
X174433Y617729D01*
X181167Y617729D01*
X185929Y612967D01*
X185929Y606233D01*
X181167Y601471D01*
X174433Y601471D01*
G37*
%LPD*%
%LPC*%
G36*
X262381Y503681D02*
X262381Y503681D01*
X262381Y512192D01*
X264717Y512192D01*
X270892Y506017D01*
X270892Y503681D01*
X262381Y503681D01*
G37*
%LPD*%
%LPC*%
G36*
X249808Y503681D02*
X249808Y503681D01*
X249808Y506017D01*
X255983Y512192D01*
X258319Y512192D01*
X258319Y503681D01*
X249808Y503681D01*
G37*
%LPD*%
%LPC*%
G36*
X262381Y491108D02*
X262381Y491108D01*
X262381Y499619D01*
X270892Y499619D01*
X270892Y497283D01*
X264717Y491108D01*
X262381Y491108D01*
G37*
%LPD*%
%LPC*%
G36*
X255983Y491108D02*
X255983Y491108D01*
X249808Y497283D01*
X249808Y499619D01*
X258319Y499619D01*
X258319Y491108D01*
X255983Y491108D01*
G37*
%LPD*%
%LPC*%
G36*
X198881Y503681D02*
X198881Y503681D01*
X198881Y512001D01*
X199319Y511932D01*
X200897Y511419D01*
X202375Y510666D01*
X203718Y509691D01*
X204891Y508518D01*
X205866Y507175D01*
X206619Y505697D01*
X207132Y504119D01*
X207201Y503681D01*
X198881Y503681D01*
G37*
%LPD*%
%LPC*%
G36*
X198881Y499619D02*
X198881Y499619D01*
X207201Y499619D01*
X207132Y499181D01*
X206619Y497603D01*
X205866Y496125D01*
X204891Y494782D01*
X203718Y493609D01*
X202375Y492634D01*
X200897Y491881D01*
X199319Y491368D01*
X198881Y491299D01*
X198881Y499619D01*
G37*
%LPD*%
%LPC*%
G36*
X186499Y503681D02*
X186499Y503681D01*
X186568Y504119D01*
X187081Y505697D01*
X187834Y507175D01*
X188809Y508518D01*
X189982Y509691D01*
X191325Y510666D01*
X192803Y511419D01*
X194381Y511932D01*
X194819Y512001D01*
X194819Y503681D01*
X186499Y503681D01*
G37*
%LPD*%
%LPC*%
G36*
X194381Y491368D02*
X194381Y491368D01*
X192803Y491881D01*
X191325Y492634D01*
X189982Y493609D01*
X188809Y494782D01*
X187834Y496125D01*
X187081Y497603D01*
X186568Y499181D01*
X186499Y499619D01*
X194819Y499619D01*
X194819Y491299D01*
X194381Y491368D01*
G37*
%LPD*%
%LPC*%
G36*
X268985Y389635D02*
X268985Y389635D01*
X268985Y397003D01*
X270698Y397003D01*
X276353Y391348D01*
X276353Y389635D01*
X268985Y389635D01*
G37*
%LPD*%
%LPC*%
G36*
X243585Y338835D02*
X243585Y338835D01*
X243585Y346203D01*
X245298Y346203D01*
X250953Y340548D01*
X250953Y338835D01*
X243585Y338835D01*
G37*
%LPD*%
%LPC*%
G36*
X243585Y389635D02*
X243585Y389635D01*
X243585Y397003D01*
X245298Y397003D01*
X250953Y391348D01*
X250953Y389635D01*
X243585Y389635D01*
G37*
%LPD*%
%LPC*%
G36*
X243585Y364235D02*
X243585Y364235D01*
X243585Y371603D01*
X245298Y371603D01*
X250953Y365948D01*
X250953Y364235D01*
X243585Y364235D01*
G37*
%LPD*%
%LPC*%
G36*
X268985Y364235D02*
X268985Y364235D01*
X268985Y371603D01*
X270698Y371603D01*
X276353Y365948D01*
X276353Y364235D01*
X268985Y364235D01*
G37*
%LPD*%
%LPC*%
G36*
X268985Y338835D02*
X268985Y338835D01*
X268985Y346203D01*
X270698Y346203D01*
X276353Y340548D01*
X276353Y338835D01*
X268985Y338835D01*
G37*
%LPD*%
%LPC*%
G36*
X257047Y364235D02*
X257047Y364235D01*
X257047Y365948D01*
X262702Y371603D01*
X264415Y371603D01*
X264415Y364235D01*
X257047Y364235D01*
G37*
%LPD*%
%LPC*%
G36*
X268985Y377697D02*
X268985Y377697D01*
X268985Y385065D01*
X276353Y385065D01*
X276353Y383352D01*
X270698Y377697D01*
X268985Y377697D01*
G37*
%LPD*%
%LPC*%
G36*
X243585Y377697D02*
X243585Y377697D01*
X243585Y385065D01*
X250953Y385065D01*
X250953Y383352D01*
X245298Y377697D01*
X243585Y377697D01*
G37*
%LPD*%
%LPC*%
G36*
X231647Y364235D02*
X231647Y364235D01*
X231647Y365948D01*
X237302Y371603D01*
X239015Y371603D01*
X239015Y364235D01*
X231647Y364235D01*
G37*
%LPD*%
%LPC*%
G36*
X231647Y389635D02*
X231647Y389635D01*
X231647Y391348D01*
X237302Y397003D01*
X239015Y397003D01*
X239015Y389635D01*
X231647Y389635D01*
G37*
%LPD*%
%LPC*%
G36*
X268985Y352297D02*
X268985Y352297D01*
X268985Y359665D01*
X276353Y359665D01*
X276353Y357952D01*
X270698Y352297D01*
X268985Y352297D01*
G37*
%LPD*%
%LPC*%
G36*
X268985Y326897D02*
X268985Y326897D01*
X268985Y334265D01*
X276353Y334265D01*
X276353Y332552D01*
X270698Y326897D01*
X268985Y326897D01*
G37*
%LPD*%
%LPC*%
G36*
X243585Y352297D02*
X243585Y352297D01*
X243585Y359665D01*
X250953Y359665D01*
X250953Y357952D01*
X245298Y352297D01*
X243585Y352297D01*
G37*
%LPD*%
%LPC*%
G36*
X243585Y326897D02*
X243585Y326897D01*
X243585Y334265D01*
X250953Y334265D01*
X250953Y332552D01*
X245298Y326897D01*
X243585Y326897D01*
G37*
%LPD*%
%LPC*%
G36*
X257047Y338835D02*
X257047Y338835D01*
X257047Y340548D01*
X262702Y346203D01*
X264415Y346203D01*
X264415Y338835D01*
X257047Y338835D01*
G37*
%LPD*%
%LPC*%
G36*
X257047Y389635D02*
X257047Y389635D01*
X257047Y391348D01*
X262702Y397003D01*
X264415Y397003D01*
X264415Y389635D01*
X257047Y389635D01*
G37*
%LPD*%
%LPC*%
G36*
X231647Y338835D02*
X231647Y338835D01*
X231647Y340548D01*
X237302Y346203D01*
X239015Y346203D01*
X239015Y338835D01*
X231647Y338835D01*
G37*
%LPD*%
%LPC*%
G36*
X237302Y377697D02*
X237302Y377697D01*
X231647Y383352D01*
X231647Y385065D01*
X239015Y385065D01*
X239015Y377697D01*
X237302Y377697D01*
G37*
%LPD*%
%LPC*%
G36*
X262702Y326897D02*
X262702Y326897D01*
X257047Y332552D01*
X257047Y334265D01*
X264415Y334265D01*
X264415Y326897D01*
X262702Y326897D01*
G37*
%LPD*%
%LPC*%
G36*
X262702Y377697D02*
X262702Y377697D01*
X257047Y383352D01*
X257047Y385065D01*
X264415Y385065D01*
X264415Y377697D01*
X262702Y377697D01*
G37*
%LPD*%
%LPC*%
G36*
X237302Y326897D02*
X237302Y326897D01*
X231647Y332552D01*
X231647Y334265D01*
X239015Y334265D01*
X239015Y326897D01*
X237302Y326897D01*
G37*
%LPD*%
%LPC*%
G36*
X262702Y352297D02*
X262702Y352297D01*
X257047Y357952D01*
X257047Y359665D01*
X264415Y359665D01*
X264415Y352297D01*
X262702Y352297D01*
G37*
%LPD*%
%LPC*%
G36*
X237302Y352297D02*
X237302Y352297D01*
X231647Y357952D01*
X231647Y359665D01*
X239015Y359665D01*
X239015Y352297D01*
X237302Y352297D01*
G37*
%LPD*%
%LPC*%
G36*
X179831Y865631D02*
X179831Y865631D01*
X179831Y872745D01*
X181588Y872745D01*
X186945Y867388D01*
X186945Y865631D01*
X179831Y865631D01*
G37*
%LPD*%
%LPC*%
G36*
X179831Y408431D02*
X179831Y408431D01*
X179831Y415545D01*
X181588Y415545D01*
X186945Y410188D01*
X186945Y408431D01*
X179831Y408431D01*
G37*
%LPD*%
%LPC*%
G36*
X281431Y97281D02*
X281431Y97281D01*
X281431Y104395D01*
X283188Y104395D01*
X288545Y99038D01*
X288545Y97281D01*
X281431Y97281D01*
G37*
%LPD*%
%LPC*%
G36*
X281431Y598931D02*
X281431Y598931D01*
X281431Y606045D01*
X283188Y606045D01*
X288545Y600688D01*
X288545Y598931D01*
X281431Y598931D01*
G37*
%LPD*%
%LPC*%
G36*
X230631Y814831D02*
X230631Y814831D01*
X230631Y821945D01*
X232388Y821945D01*
X237745Y816588D01*
X237745Y814831D01*
X230631Y814831D01*
G37*
%LPD*%
%LPC*%
G36*
X230631Y236981D02*
X230631Y236981D01*
X230631Y244095D01*
X232388Y244095D01*
X237745Y238738D01*
X237745Y236981D01*
X230631Y236981D01*
G37*
%LPD*%
%LPC*%
G36*
X219455Y236981D02*
X219455Y236981D01*
X219455Y238738D01*
X224812Y244095D01*
X226569Y244095D01*
X226569Y236981D01*
X219455Y236981D01*
G37*
%LPD*%
%LPC*%
G36*
X270255Y97281D02*
X270255Y97281D01*
X270255Y99038D01*
X275612Y104395D01*
X277369Y104395D01*
X277369Y97281D01*
X270255Y97281D01*
G37*
%LPD*%
%LPC*%
G36*
X270255Y598931D02*
X270255Y598931D01*
X270255Y600688D01*
X275612Y606045D01*
X277369Y606045D01*
X277369Y598931D01*
X270255Y598931D01*
G37*
%LPD*%
%LPC*%
G36*
X219455Y814831D02*
X219455Y814831D01*
X219455Y816588D01*
X224812Y821945D01*
X226569Y821945D01*
X226569Y814831D01*
X219455Y814831D01*
G37*
%LPD*%
%LPC*%
G36*
X179831Y404369D02*
X179831Y404369D01*
X186945Y404369D01*
X186945Y402612D01*
X181588Y397255D01*
X179831Y397255D01*
X179831Y404369D01*
G37*
%LPD*%
%LPC*%
G36*
X179831Y861569D02*
X179831Y861569D01*
X186945Y861569D01*
X186945Y859812D01*
X181588Y854455D01*
X179831Y854455D01*
X179831Y861569D01*
G37*
%LPD*%
%LPC*%
G36*
X230631Y225805D02*
X230631Y225805D01*
X230631Y232919D01*
X237745Y232919D01*
X237745Y231162D01*
X232388Y225805D01*
X230631Y225805D01*
G37*
%LPD*%
%LPC*%
G36*
X168655Y865631D02*
X168655Y865631D01*
X168655Y867388D01*
X174012Y872745D01*
X175769Y872745D01*
X175769Y865631D01*
X168655Y865631D01*
G37*
%LPD*%
%LPC*%
G36*
X281431Y86105D02*
X281431Y86105D01*
X281431Y93219D01*
X288545Y93219D01*
X288545Y91462D01*
X283188Y86105D01*
X281431Y86105D01*
G37*
%LPD*%
%LPC*%
G36*
X281431Y587755D02*
X281431Y587755D01*
X281431Y594869D01*
X288545Y594869D01*
X288545Y593112D01*
X283188Y587755D01*
X281431Y587755D01*
G37*
%LPD*%
%LPC*%
G36*
X230631Y803655D02*
X230631Y803655D01*
X230631Y810769D01*
X237745Y810769D01*
X237745Y809012D01*
X232388Y803655D01*
X230631Y803655D01*
G37*
%LPD*%
%LPC*%
G36*
X168655Y408431D02*
X168655Y408431D01*
X168655Y410188D01*
X174012Y415545D01*
X175769Y415545D01*
X175769Y408431D01*
X168655Y408431D01*
G37*
%LPD*%
%LPC*%
G36*
X174012Y854455D02*
X174012Y854455D01*
X168655Y859812D01*
X168655Y861569D01*
X175769Y861569D01*
X175769Y854455D01*
X174012Y854455D01*
G37*
%LPD*%
%LPC*%
G36*
X174012Y397255D02*
X174012Y397255D01*
X168655Y402612D01*
X168655Y404369D01*
X175769Y404369D01*
X175769Y397255D01*
X174012Y397255D01*
G37*
%LPD*%
%LPC*%
G36*
X224812Y225805D02*
X224812Y225805D01*
X219455Y231162D01*
X219455Y232919D01*
X226569Y232919D01*
X226569Y225805D01*
X224812Y225805D01*
G37*
%LPD*%
%LPC*%
G36*
X275612Y86105D02*
X275612Y86105D01*
X270255Y91462D01*
X270255Y93219D01*
X277369Y93219D01*
X277369Y86105D01*
X275612Y86105D01*
G37*
%LPD*%
%LPC*%
G36*
X275612Y587755D02*
X275612Y587755D01*
X270255Y593112D01*
X270255Y594869D01*
X277369Y594869D01*
X277369Y587755D01*
X275612Y587755D01*
G37*
%LPD*%
%LPC*%
G36*
X224812Y803655D02*
X224812Y803655D01*
X219455Y809012D01*
X219455Y810769D01*
X226569Y810769D01*
X226569Y803655D01*
X224812Y803655D01*
G37*
%LPD*%
D10*
X228600Y596900D03*
X279400Y596900D03*
D11*
X279400Y812800D03*
X228600Y812800D03*
D10*
X228600Y95250D03*
X279400Y95250D03*
D11*
X279400Y234950D03*
X228600Y234950D03*
D12*
X222250Y501650D03*
D13*
X196850Y501650D03*
D14*
X260350Y501650D03*
D13*
X285750Y501650D03*
D15*
X70000Y867410D02*
X70000Y897890D01*
X17000Y897890D02*
X17000Y867410D01*
X128000Y867410D02*
X128000Y897890D01*
X70000Y783590D02*
X70000Y753110D01*
X17000Y753110D02*
X17000Y783590D01*
X128000Y783590D02*
X128000Y753110D01*
X70000Y669290D02*
X70000Y638810D01*
X17000Y638810D02*
X17000Y669290D01*
X128000Y669290D02*
X128000Y638810D01*
X70000Y554990D02*
X70000Y524510D01*
X17000Y524510D02*
X17000Y554990D01*
X128000Y554990D02*
X128000Y524510D01*
X70000Y402590D02*
X70000Y372110D01*
X17000Y372110D02*
X17000Y402590D01*
X128000Y402590D02*
X128000Y372110D01*
X70000Y288290D02*
X70000Y257810D01*
X17000Y257810D02*
X17000Y288290D01*
X128000Y288290D02*
X128000Y257810D01*
X70000Y173990D02*
X70000Y143510D01*
X17000Y143510D02*
X17000Y173990D01*
X128000Y173990D02*
X128000Y143510D01*
X70000Y59690D02*
X70000Y29210D01*
X17000Y29210D02*
X17000Y59690D01*
X128000Y59690D02*
X128000Y29210D01*
D16*
X285496Y628650D02*
X298704Y628650D01*
X298704Y654050D02*
X285496Y654050D01*
X285496Y781050D02*
X298704Y781050D01*
X222504Y781050D02*
X209296Y781050D01*
X285496Y679450D02*
X298704Y679450D01*
X298704Y704850D02*
X285496Y704850D01*
X285496Y755650D02*
X298704Y755650D01*
X298704Y730250D02*
X285496Y730250D01*
X222504Y755650D02*
X209296Y755650D01*
X209296Y730250D02*
X222504Y730250D01*
X222504Y704850D02*
X209296Y704850D01*
X209296Y679450D02*
X222504Y679450D01*
X222504Y654050D02*
X209296Y654050D01*
X209296Y628650D02*
X222504Y628650D01*
D17*
X286060Y127000D02*
X298140Y127000D01*
X298140Y152400D02*
X286060Y152400D01*
X286060Y177800D02*
X298140Y177800D01*
X298140Y203200D02*
X286060Y203200D01*
X221940Y203200D02*
X209860Y203200D01*
X209860Y177800D02*
X221940Y177800D01*
X221940Y152400D02*
X209860Y152400D01*
X209860Y127000D02*
X221940Y127000D01*
D18*
X266700Y311150D03*
X241300Y311150D03*
X266700Y336550D03*
X241300Y336550D03*
X266700Y361950D03*
X241300Y361950D03*
X266700Y387350D03*
X241300Y387350D03*
X266700Y412750D03*
X241300Y412750D03*
D19*
X177800Y787400D03*
X177800Y812800D03*
D20*
X177800Y742950D03*
X177800Y717550D03*
X177800Y609600D03*
X177800Y584200D03*
X177800Y342900D03*
X177800Y317500D03*
D19*
X177800Y196850D03*
X177800Y222250D03*
D20*
X177800Y152400D03*
X177800Y127000D03*
D19*
X177800Y406400D03*
X177800Y431800D03*
D20*
X177800Y863600D03*
X177800Y838200D03*
D21*
X254000Y730250D02*
X292100Y730250D01*
X292100Y679450D02*
X254000Y679450D01*
X254000Y533400D02*
X184150Y533400D01*
X127000Y476250D01*
X128000Y387350D02*
X127000Y385330D01*
X127000Y476250D01*
D22*
X254000Y533400D03*
X254000Y730250D03*
X254000Y679450D03*
D21*
X260350Y755650D02*
X292100Y755650D01*
X260350Y755650D02*
X247650Y742950D01*
X177800Y742950D01*
X158750Y768350D02*
X177800Y787400D01*
X158750Y768350D02*
X158750Y666750D01*
X184150Y641350D01*
X247650Y641350D01*
X260350Y654050D01*
X292100Y654050D01*
D22*
X241300Y717550D03*
D21*
X266700Y177800D02*
X292100Y177800D01*
X266700Y177800D02*
X241300Y203200D01*
X215900Y203200D01*
X215900Y431800D02*
X177800Y431800D01*
D22*
X215900Y431800D03*
D21*
X215900Y546100D02*
X165100Y546100D01*
D22*
X165100Y546100D03*
X215900Y546100D03*
D21*
X177800Y196850D02*
X177800Y184150D01*
X196850Y165100D01*
X247650Y165100D02*
X260350Y152400D01*
X292100Y152400D01*
X247650Y165100D02*
X196850Y165100D01*
D23*
X292100Y323850D02*
X292100Y495300D01*
X285750Y501650D01*
X279400Y311150D02*
X266700Y311150D01*
X279400Y311150D02*
X292100Y323850D01*
M02*
