G04 EAGLE Gerber RS-274X export*
G75*
%MOMM*%
%FSLAX34Y34*%
%LPD*%
%INTop Copper*%
%IPPOS*%
%AMOC8*
5,1,8,0,0,1.08239X$1,22.5*%
G01*
%ADD10P,1.429621X8X22.500000*%
%ADD11P,1.429621X8X202.500000*%
%ADD12P,1.732040X8X22.500000*%
%ADD13C,1.600200*%
%ADD14P,1.732040X8X202.500000*%
%ADD15C,3.048000*%
%ADD16C,1.320800*%
%ADD17C,1.208000*%
%ADD18P,1.539592X8X112.500000*%
%ADD19P,1.429621X8X112.500000*%
%ADD20P,1.429621X8X292.500000*%
%ADD21C,0.304800*%
%ADD22C,0.756400*%
%ADD23C,0.406400*%

G36*
X64573Y10166D02*
X64573Y10166D01*
X64623Y10164D01*
X64746Y10186D01*
X64869Y10201D01*
X64916Y10218D01*
X64966Y10227D01*
X65080Y10276D01*
X65197Y10318D01*
X65239Y10345D01*
X65286Y10365D01*
X65385Y10440D01*
X65490Y10507D01*
X65525Y10543D01*
X65565Y10573D01*
X65646Y10668D01*
X65732Y10758D01*
X65758Y10801D01*
X65790Y10839D01*
X65847Y10950D01*
X65911Y11057D01*
X65926Y11105D01*
X65949Y11150D01*
X65979Y11270D01*
X66017Y11389D01*
X66021Y11439D01*
X66033Y11488D01*
X66035Y11612D01*
X66045Y11736D01*
X66038Y11786D01*
X66038Y11836D01*
X66012Y11958D01*
X65993Y12081D01*
X65975Y12128D01*
X65964Y12177D01*
X65911Y12289D01*
X65865Y12405D01*
X65836Y12446D01*
X65814Y12492D01*
X65737Y12589D01*
X65666Y12691D01*
X65628Y12725D01*
X65597Y12764D01*
X65499Y12841D01*
X65407Y12924D01*
X65363Y12949D01*
X65323Y12980D01*
X65106Y13091D01*
X60503Y14998D01*
X55788Y19713D01*
X53235Y25875D01*
X53235Y63025D01*
X55788Y69187D01*
X60503Y73902D01*
X66665Y76455D01*
X73335Y76455D01*
X76042Y75333D01*
X76115Y75312D01*
X76186Y75282D01*
X76282Y75265D01*
X76377Y75238D01*
X76453Y75234D01*
X76529Y75220D01*
X76627Y75225D01*
X76725Y75221D01*
X76800Y75234D01*
X76877Y75238D01*
X76971Y75266D01*
X77068Y75283D01*
X77138Y75314D01*
X77212Y75335D01*
X77297Y75383D01*
X77388Y75422D01*
X77449Y75468D01*
X77516Y75505D01*
X77629Y75602D01*
X77667Y75630D01*
X77680Y75645D01*
X77702Y75664D01*
X91755Y89717D01*
X93987Y91949D01*
X163206Y91949D01*
X163332Y91963D01*
X163458Y91970D01*
X163504Y91983D01*
X163552Y91989D01*
X163671Y92031D01*
X163793Y92066D01*
X163835Y92090D01*
X163881Y92106D01*
X163987Y92175D01*
X164097Y92236D01*
X164143Y92276D01*
X164173Y92295D01*
X164207Y92330D01*
X164283Y92395D01*
X174305Y102417D01*
X174384Y102516D01*
X174468Y102610D01*
X174492Y102652D01*
X174522Y102690D01*
X174576Y102804D01*
X174637Y102915D01*
X174650Y102961D01*
X174671Y103005D01*
X174697Y103128D01*
X174732Y103250D01*
X174737Y103311D01*
X174744Y103346D01*
X174743Y103394D01*
X174751Y103494D01*
X174751Y117922D01*
X174737Y118048D01*
X174730Y118174D01*
X174717Y118220D01*
X174711Y118268D01*
X174669Y118387D01*
X174634Y118509D01*
X174610Y118551D01*
X174594Y118596D01*
X174525Y118703D01*
X174464Y118813D01*
X174424Y118859D01*
X174405Y118889D01*
X174370Y118923D01*
X174305Y118999D01*
X169671Y123633D01*
X169671Y130367D01*
X174433Y135129D01*
X181167Y135129D01*
X185929Y130367D01*
X185929Y123633D01*
X181295Y118999D01*
X181216Y118900D01*
X181132Y118806D01*
X181108Y118764D01*
X181078Y118726D01*
X181024Y118612D01*
X180963Y118501D01*
X180950Y118455D01*
X180929Y118411D01*
X180903Y118288D01*
X180868Y118166D01*
X180863Y118105D01*
X180856Y118070D01*
X180857Y118022D01*
X180849Y117922D01*
X180849Y100337D01*
X166363Y85851D01*
X97144Y85851D01*
X97018Y85837D01*
X96892Y85830D01*
X96846Y85817D01*
X96798Y85811D01*
X96679Y85769D01*
X96557Y85734D01*
X96515Y85710D01*
X96469Y85694D01*
X96363Y85625D01*
X96253Y85564D01*
X96207Y85524D01*
X96177Y85505D01*
X96143Y85470D01*
X96067Y85405D01*
X83107Y72446D01*
X83091Y72425D01*
X83071Y72408D01*
X82983Y72289D01*
X82891Y72173D01*
X82880Y72149D01*
X82864Y72128D01*
X82805Y71992D01*
X82742Y71858D01*
X82736Y71832D01*
X82726Y71808D01*
X82700Y71662D01*
X82668Y71517D01*
X82669Y71491D01*
X82664Y71465D01*
X82672Y71316D01*
X82674Y71169D01*
X82681Y71143D01*
X82682Y71117D01*
X82723Y70974D01*
X82759Y70831D01*
X82771Y70807D01*
X82779Y70782D01*
X82851Y70653D01*
X82919Y70521D01*
X82936Y70501D01*
X82949Y70478D01*
X83107Y70292D01*
X84212Y69186D01*
X86765Y63025D01*
X86765Y25875D01*
X84212Y19713D01*
X79497Y14998D01*
X74894Y13091D01*
X74850Y13067D01*
X74803Y13050D01*
X74698Y12982D01*
X74590Y12922D01*
X74552Y12888D01*
X74510Y12861D01*
X74424Y12771D01*
X74332Y12688D01*
X74303Y12646D01*
X74268Y12610D01*
X74204Y12503D01*
X74133Y12401D01*
X74115Y12354D01*
X74089Y12311D01*
X74051Y12193D01*
X74006Y12077D01*
X73998Y12027D01*
X73983Y11979D01*
X73973Y11855D01*
X73955Y11732D01*
X73959Y11682D01*
X73955Y11632D01*
X73973Y11509D01*
X73984Y11385D01*
X73999Y11337D01*
X74007Y11287D01*
X74052Y11172D01*
X74091Y11053D01*
X74117Y11010D01*
X74135Y10963D01*
X74206Y10861D01*
X74270Y10755D01*
X74306Y10718D01*
X74334Y10677D01*
X74426Y10594D01*
X74513Y10505D01*
X74556Y10477D01*
X74593Y10444D01*
X74702Y10384D01*
X74807Y10316D01*
X74854Y10299D01*
X74898Y10275D01*
X75018Y10241D01*
X75135Y10200D01*
X75185Y10194D01*
X75233Y10180D01*
X75477Y10161D01*
X122523Y10161D01*
X122573Y10166D01*
X122623Y10164D01*
X122746Y10186D01*
X122869Y10201D01*
X122916Y10218D01*
X122966Y10227D01*
X123080Y10276D01*
X123197Y10318D01*
X123239Y10345D01*
X123286Y10365D01*
X123385Y10440D01*
X123490Y10507D01*
X123525Y10543D01*
X123565Y10573D01*
X123646Y10668D01*
X123732Y10758D01*
X123758Y10801D01*
X123790Y10839D01*
X123847Y10950D01*
X123911Y11057D01*
X123926Y11105D01*
X123949Y11150D01*
X123979Y11270D01*
X124017Y11389D01*
X124021Y11439D01*
X124033Y11488D01*
X124035Y11612D01*
X124045Y11736D01*
X124038Y11786D01*
X124038Y11836D01*
X124012Y11958D01*
X123993Y12081D01*
X123975Y12128D01*
X123964Y12177D01*
X123911Y12289D01*
X123865Y12405D01*
X123836Y12446D01*
X123814Y12492D01*
X123737Y12589D01*
X123666Y12691D01*
X123628Y12725D01*
X123597Y12764D01*
X123499Y12841D01*
X123407Y12924D01*
X123363Y12949D01*
X123323Y12980D01*
X123106Y13091D01*
X118503Y14998D01*
X113788Y19713D01*
X111235Y25875D01*
X111235Y63025D01*
X113788Y69187D01*
X118503Y73902D01*
X124665Y76455D01*
X131335Y76455D01*
X137497Y73902D01*
X142212Y69187D01*
X144765Y63025D01*
X144765Y25875D01*
X142212Y19713D01*
X137497Y14998D01*
X132894Y13091D01*
X132850Y13067D01*
X132803Y13050D01*
X132698Y12982D01*
X132590Y12922D01*
X132552Y12888D01*
X132510Y12861D01*
X132424Y12771D01*
X132332Y12688D01*
X132303Y12646D01*
X132268Y12610D01*
X132204Y12503D01*
X132133Y12401D01*
X132115Y12354D01*
X132089Y12311D01*
X132051Y12193D01*
X132006Y12077D01*
X131998Y12027D01*
X131983Y11979D01*
X131973Y11855D01*
X131955Y11732D01*
X131959Y11682D01*
X131955Y11632D01*
X131973Y11509D01*
X131984Y11385D01*
X131999Y11337D01*
X132007Y11287D01*
X132052Y11172D01*
X132091Y11053D01*
X132117Y11010D01*
X132135Y10963D01*
X132206Y10861D01*
X132270Y10755D01*
X132306Y10718D01*
X132334Y10677D01*
X132426Y10594D01*
X132513Y10505D01*
X132556Y10477D01*
X132593Y10444D01*
X132702Y10384D01*
X132807Y10316D01*
X132854Y10299D01*
X132898Y10275D01*
X133018Y10241D01*
X133135Y10200D01*
X133185Y10194D01*
X133233Y10180D01*
X133477Y10161D01*
X305816Y10161D01*
X305842Y10164D01*
X305868Y10162D01*
X306015Y10184D01*
X306162Y10201D01*
X306187Y10209D01*
X306213Y10213D01*
X306351Y10268D01*
X306490Y10318D01*
X306512Y10332D01*
X306537Y10342D01*
X306658Y10427D01*
X306783Y10507D01*
X306801Y10526D01*
X306823Y10541D01*
X306922Y10651D01*
X307025Y10758D01*
X307039Y10780D01*
X307056Y10800D01*
X307128Y10930D01*
X307204Y11057D01*
X307212Y11082D01*
X307225Y11105D01*
X307265Y11248D01*
X307310Y11389D01*
X307312Y11415D01*
X307320Y11440D01*
X307339Y11684D01*
X307339Y121824D01*
X307328Y121924D01*
X307326Y122024D01*
X307308Y122096D01*
X307299Y122170D01*
X307266Y122264D01*
X307241Y122362D01*
X307207Y122428D01*
X307182Y122498D01*
X307127Y122582D01*
X307081Y122672D01*
X307033Y122728D01*
X306993Y122791D01*
X306921Y122861D01*
X306856Y122937D01*
X306796Y122981D01*
X306742Y123033D01*
X306656Y123085D01*
X306575Y123144D01*
X306507Y123174D01*
X306443Y123212D01*
X306347Y123242D01*
X306255Y123282D01*
X306182Y123295D01*
X306111Y123318D01*
X306011Y123326D01*
X305912Y123344D01*
X305838Y123340D01*
X305764Y123346D01*
X305664Y123331D01*
X305564Y123326D01*
X305493Y123305D01*
X305419Y123294D01*
X305326Y123257D01*
X305229Y123229D01*
X305164Y123193D01*
X305095Y123166D01*
X305013Y123108D01*
X304925Y123059D01*
X304849Y122994D01*
X304809Y122967D01*
X304785Y122940D01*
X304739Y122901D01*
X302425Y120587D01*
X299645Y119435D01*
X284555Y119435D01*
X281775Y120587D01*
X279647Y122715D01*
X278495Y125495D01*
X278495Y128505D01*
X279647Y131285D01*
X281775Y133413D01*
X284555Y134565D01*
X287528Y134565D01*
X287554Y134568D01*
X287580Y134566D01*
X287727Y134588D01*
X287874Y134605D01*
X287899Y134613D01*
X287925Y134617D01*
X288063Y134672D01*
X288202Y134722D01*
X288224Y134736D01*
X288249Y134746D01*
X288370Y134831D01*
X288495Y134911D01*
X288513Y134930D01*
X288535Y134945D01*
X288634Y135055D01*
X288737Y135162D01*
X288751Y135184D01*
X288768Y135204D01*
X288840Y135334D01*
X288916Y135461D01*
X288924Y135486D01*
X288937Y135509D01*
X288977Y135652D01*
X289022Y135793D01*
X289024Y135819D01*
X289032Y135844D01*
X289051Y136088D01*
X289051Y143312D01*
X289048Y143338D01*
X289050Y143364D01*
X289028Y143511D01*
X289011Y143658D01*
X289003Y143683D01*
X288999Y143709D01*
X288944Y143847D01*
X288894Y143986D01*
X288880Y144008D01*
X288870Y144033D01*
X288785Y144154D01*
X288705Y144279D01*
X288686Y144297D01*
X288671Y144319D01*
X288561Y144418D01*
X288454Y144521D01*
X288432Y144535D01*
X288412Y144552D01*
X288282Y144624D01*
X288155Y144700D01*
X288130Y144708D01*
X288107Y144721D01*
X287964Y144761D01*
X287823Y144806D01*
X287797Y144808D01*
X287772Y144816D01*
X287528Y144835D01*
X284555Y144835D01*
X281775Y145987D01*
X279647Y148115D01*
X278495Y150895D01*
X278495Y153905D01*
X279647Y156685D01*
X281775Y158813D01*
X284555Y159965D01*
X299645Y159965D01*
X302425Y158813D01*
X304739Y156499D01*
X304817Y156437D01*
X304890Y156367D01*
X304954Y156329D01*
X305012Y156283D01*
X305103Y156240D01*
X305189Y156188D01*
X305260Y156165D01*
X305327Y156134D01*
X305425Y156113D01*
X305521Y156082D01*
X305595Y156076D01*
X305668Y156060D01*
X305768Y156062D01*
X305868Y156054D01*
X305942Y156065D01*
X306016Y156066D01*
X306113Y156091D01*
X306213Y156106D01*
X306282Y156133D01*
X306354Y156151D01*
X306443Y156197D01*
X306537Y156234D01*
X306598Y156277D01*
X306664Y156311D01*
X306740Y156376D01*
X306823Y156433D01*
X306873Y156488D01*
X306929Y156537D01*
X306989Y156618D01*
X307056Y156692D01*
X307092Y156757D01*
X307137Y156817D01*
X307176Y156909D01*
X307225Y156997D01*
X307245Y157069D01*
X307275Y157137D01*
X307292Y157236D01*
X307320Y157333D01*
X307328Y157433D01*
X307336Y157480D01*
X307334Y157516D01*
X307339Y157576D01*
X307339Y172624D01*
X307328Y172724D01*
X307326Y172824D01*
X307308Y172896D01*
X307299Y172970D01*
X307266Y173064D01*
X307241Y173162D01*
X307207Y173228D01*
X307182Y173298D01*
X307127Y173382D01*
X307081Y173472D01*
X307033Y173528D01*
X306993Y173591D01*
X306921Y173661D01*
X306856Y173737D01*
X306796Y173781D01*
X306742Y173833D01*
X306656Y173885D01*
X306575Y173944D01*
X306507Y173974D01*
X306443Y174012D01*
X306347Y174042D01*
X306255Y174082D01*
X306182Y174095D01*
X306111Y174118D01*
X306011Y174126D01*
X305912Y174144D01*
X305838Y174140D01*
X305764Y174146D01*
X305664Y174131D01*
X305564Y174126D01*
X305493Y174105D01*
X305419Y174094D01*
X305326Y174057D01*
X305229Y174029D01*
X305164Y173993D01*
X305095Y173966D01*
X305013Y173908D01*
X304925Y173859D01*
X304849Y173794D01*
X304809Y173767D01*
X304785Y173740D01*
X304739Y173701D01*
X302425Y171387D01*
X299645Y170235D01*
X284555Y170235D01*
X281775Y171387D01*
X279647Y173515D01*
X278495Y176295D01*
X278495Y179305D01*
X279647Y182085D01*
X281775Y184213D01*
X284555Y185365D01*
X299645Y185365D01*
X302425Y184213D01*
X304739Y181899D01*
X304817Y181837D01*
X304890Y181767D01*
X304954Y181729D01*
X305012Y181683D01*
X305103Y181640D01*
X305189Y181588D01*
X305260Y181565D01*
X305327Y181534D01*
X305425Y181513D01*
X305521Y181482D01*
X305595Y181476D01*
X305668Y181460D01*
X305768Y181462D01*
X305868Y181454D01*
X305942Y181465D01*
X306016Y181466D01*
X306113Y181491D01*
X306213Y181506D01*
X306282Y181533D01*
X306354Y181551D01*
X306443Y181597D01*
X306537Y181634D01*
X306598Y181677D01*
X306664Y181711D01*
X306740Y181776D01*
X306823Y181833D01*
X306873Y181888D01*
X306929Y181937D01*
X306989Y182018D01*
X307056Y182092D01*
X307092Y182157D01*
X307137Y182217D01*
X307176Y182309D01*
X307225Y182397D01*
X307245Y182469D01*
X307275Y182537D01*
X307292Y182636D01*
X307320Y182733D01*
X307328Y182833D01*
X307336Y182880D01*
X307334Y182916D01*
X307339Y182976D01*
X307339Y198024D01*
X307328Y198124D01*
X307326Y198224D01*
X307308Y198296D01*
X307299Y198370D01*
X307266Y198464D01*
X307241Y198562D01*
X307207Y198628D01*
X307182Y198698D01*
X307127Y198782D01*
X307081Y198872D01*
X307033Y198928D01*
X306993Y198991D01*
X306921Y199061D01*
X306856Y199137D01*
X306796Y199181D01*
X306742Y199233D01*
X306656Y199285D01*
X306575Y199344D01*
X306507Y199374D01*
X306443Y199412D01*
X306347Y199442D01*
X306255Y199482D01*
X306182Y199495D01*
X306111Y199518D01*
X306011Y199526D01*
X305912Y199544D01*
X305838Y199540D01*
X305764Y199546D01*
X305664Y199531D01*
X305564Y199526D01*
X305493Y199505D01*
X305419Y199494D01*
X305326Y199457D01*
X305229Y199429D01*
X305164Y199393D01*
X305095Y199366D01*
X305013Y199308D01*
X304925Y199259D01*
X304849Y199194D01*
X304809Y199167D01*
X304785Y199140D01*
X304739Y199101D01*
X302425Y196787D01*
X299645Y195635D01*
X284555Y195635D01*
X281775Y196787D01*
X279647Y198915D01*
X278495Y201695D01*
X278495Y204705D01*
X279647Y207485D01*
X281775Y209613D01*
X284555Y210765D01*
X287020Y210765D01*
X287046Y210768D01*
X287072Y210766D01*
X287219Y210788D01*
X287366Y210805D01*
X287391Y210813D01*
X287417Y210817D01*
X287555Y210872D01*
X287694Y210922D01*
X287716Y210936D01*
X287741Y210946D01*
X287862Y211031D01*
X287987Y211111D01*
X288005Y211130D01*
X288027Y211145D01*
X288126Y211255D01*
X288229Y211362D01*
X288243Y211384D01*
X288260Y211404D01*
X288332Y211534D01*
X288408Y211661D01*
X288416Y211686D01*
X288429Y211709D01*
X288469Y211852D01*
X288514Y211993D01*
X288516Y212019D01*
X288524Y212044D01*
X288543Y212288D01*
X288543Y228920D01*
X288532Y229020D01*
X288530Y229120D01*
X288512Y229192D01*
X288503Y229266D01*
X288470Y229361D01*
X288445Y229458D01*
X288411Y229524D01*
X288386Y229594D01*
X288331Y229679D01*
X288285Y229768D01*
X288237Y229825D01*
X288197Y229887D01*
X288125Y229957D01*
X288060Y230033D01*
X288000Y230078D01*
X287946Y230129D01*
X287860Y230181D01*
X287779Y230241D01*
X287711Y230270D01*
X287647Y230308D01*
X287551Y230339D01*
X287459Y230379D01*
X287386Y230392D01*
X287315Y230414D01*
X287215Y230423D01*
X287116Y230440D01*
X287042Y230436D01*
X286968Y230442D01*
X286868Y230428D01*
X286768Y230422D01*
X286697Y230402D01*
X286623Y230391D01*
X286530Y230354D01*
X286433Y230326D01*
X286368Y230289D01*
X286299Y230262D01*
X286217Y230205D01*
X286129Y230156D01*
X286053Y230091D01*
X286013Y230063D01*
X285989Y230037D01*
X285943Y229997D01*
X282767Y226821D01*
X276033Y226821D01*
X271271Y231583D01*
X271271Y238317D01*
X276033Y243079D01*
X282767Y243079D01*
X286893Y238953D01*
X286992Y238874D01*
X287086Y238790D01*
X287128Y238766D01*
X287166Y238736D01*
X287280Y238682D01*
X287391Y238621D01*
X287437Y238608D01*
X287481Y238587D01*
X287604Y238561D01*
X287726Y238526D01*
X287787Y238521D01*
X287822Y238514D01*
X287870Y238515D01*
X287970Y238507D01*
X289996Y238507D01*
X290121Y238521D01*
X290248Y238528D01*
X290294Y238541D01*
X290342Y238547D01*
X290461Y238589D01*
X290582Y238624D01*
X290625Y238648D01*
X290670Y238664D01*
X290776Y238733D01*
X290887Y238794D01*
X290933Y238834D01*
X290963Y238853D01*
X290996Y238888D01*
X291073Y238953D01*
X300797Y248677D01*
X300876Y248776D01*
X300960Y248870D01*
X300984Y248912D01*
X301014Y248950D01*
X301068Y249064D01*
X301129Y249175D01*
X301142Y249222D01*
X301163Y249265D01*
X301189Y249389D01*
X301224Y249510D01*
X301229Y249571D01*
X301236Y249606D01*
X301235Y249654D01*
X301243Y249754D01*
X301243Y385246D01*
X301229Y385371D01*
X301222Y385498D01*
X301209Y385544D01*
X301203Y385592D01*
X301161Y385711D01*
X301126Y385832D01*
X301102Y385875D01*
X301086Y385920D01*
X301017Y386026D01*
X300956Y386137D01*
X300916Y386183D01*
X300897Y386213D01*
X300862Y386246D01*
X300797Y386323D01*
X278373Y408747D01*
X278274Y408826D01*
X278180Y408910D01*
X278138Y408934D01*
X278100Y408964D01*
X277986Y409018D01*
X277875Y409079D01*
X277828Y409092D01*
X277785Y409113D01*
X277661Y409139D01*
X277540Y409174D01*
X277479Y409179D01*
X277444Y409186D01*
X277396Y409185D01*
X277296Y409193D01*
X275988Y409193D01*
X275863Y409179D01*
X275737Y409172D01*
X275690Y409159D01*
X275642Y409153D01*
X275523Y409111D01*
X275402Y409076D01*
X275359Y409052D01*
X275314Y409036D01*
X275208Y408967D01*
X275098Y408906D01*
X275051Y408866D01*
X275021Y408847D01*
X274988Y408812D01*
X274911Y408747D01*
X270277Y404113D01*
X263123Y404113D01*
X258489Y408747D01*
X258390Y408826D01*
X258296Y408910D01*
X258254Y408934D01*
X258216Y408964D01*
X258102Y409018D01*
X257991Y409079D01*
X257944Y409092D01*
X257901Y409113D01*
X257777Y409139D01*
X257655Y409174D01*
X257595Y409179D01*
X257560Y409186D01*
X257512Y409185D01*
X257412Y409193D01*
X250588Y409193D01*
X250463Y409179D01*
X250337Y409172D01*
X250290Y409159D01*
X250242Y409153D01*
X250123Y409111D01*
X250002Y409076D01*
X249959Y409052D01*
X249914Y409036D01*
X249808Y408967D01*
X249698Y408906D01*
X249651Y408866D01*
X249621Y408847D01*
X249588Y408812D01*
X249511Y408747D01*
X244877Y404113D01*
X237723Y404113D01*
X232663Y409173D01*
X232663Y416327D01*
X237297Y420961D01*
X237376Y421060D01*
X237460Y421154D01*
X237484Y421196D01*
X237514Y421234D01*
X237568Y421348D01*
X237629Y421459D01*
X237642Y421506D01*
X237663Y421549D01*
X237689Y421673D01*
X237724Y421795D01*
X237729Y421855D01*
X237736Y421890D01*
X237735Y421938D01*
X237743Y422038D01*
X237743Y496570D01*
X237740Y496596D01*
X237742Y496622D01*
X237720Y496769D01*
X237703Y496916D01*
X237695Y496941D01*
X237691Y496967D01*
X237636Y497105D01*
X237586Y497244D01*
X237572Y497266D01*
X237562Y497291D01*
X237477Y497412D01*
X237397Y497537D01*
X237378Y497555D01*
X237363Y497577D01*
X237254Y497676D01*
X237146Y497779D01*
X237124Y497793D01*
X237104Y497810D01*
X236974Y497882D01*
X236847Y497958D01*
X236822Y497966D01*
X236799Y497979D01*
X236656Y498019D01*
X236515Y498064D01*
X236489Y498066D01*
X236464Y498074D01*
X236220Y498093D01*
X232796Y498093D01*
X232670Y498079D01*
X232544Y498072D01*
X232497Y498059D01*
X232449Y498053D01*
X232330Y498011D01*
X232209Y497976D01*
X232167Y497952D01*
X232121Y497936D01*
X232015Y497867D01*
X231905Y497806D01*
X231859Y497766D01*
X231829Y497747D01*
X231795Y497712D01*
X231719Y497647D01*
X226196Y492124D01*
X218304Y492124D01*
X212724Y497704D01*
X212724Y505596D01*
X218304Y511176D01*
X226196Y511176D01*
X231719Y505653D01*
X231818Y505574D01*
X231911Y505490D01*
X231954Y505466D01*
X231992Y505436D01*
X232106Y505382D01*
X232216Y505321D01*
X232263Y505308D01*
X232307Y505287D01*
X232430Y505261D01*
X232552Y505226D01*
X232613Y505221D01*
X232647Y505214D01*
X232695Y505215D01*
X232796Y505207D01*
X236220Y505207D01*
X236246Y505210D01*
X236272Y505208D01*
X236419Y505230D01*
X236566Y505247D01*
X236591Y505255D01*
X236617Y505259D01*
X236755Y505314D01*
X236894Y505364D01*
X236916Y505378D01*
X236941Y505388D01*
X237062Y505473D01*
X237187Y505553D01*
X237205Y505572D01*
X237227Y505587D01*
X237326Y505697D01*
X237429Y505804D01*
X237443Y505826D01*
X237460Y505846D01*
X237532Y505976D01*
X237608Y506103D01*
X237616Y506128D01*
X237629Y506151D01*
X237669Y506294D01*
X237714Y506435D01*
X237716Y506461D01*
X237724Y506486D01*
X237743Y506730D01*
X237743Y590870D01*
X237732Y590970D01*
X237730Y591070D01*
X237712Y591142D01*
X237703Y591216D01*
X237670Y591311D01*
X237645Y591408D01*
X237611Y591474D01*
X237586Y591544D01*
X237531Y591629D01*
X237485Y591718D01*
X237437Y591775D01*
X237397Y591837D01*
X237325Y591907D01*
X237260Y591983D01*
X237200Y592028D01*
X237146Y592079D01*
X237060Y592131D01*
X236979Y592191D01*
X236911Y592220D01*
X236847Y592258D01*
X236751Y592289D01*
X236659Y592329D01*
X236586Y592342D01*
X236515Y592364D01*
X236415Y592373D01*
X236316Y592390D01*
X236242Y592386D01*
X236168Y592392D01*
X236068Y592378D01*
X235968Y592372D01*
X235897Y592352D01*
X235823Y592341D01*
X235730Y592304D01*
X235633Y592276D01*
X235568Y592239D01*
X235499Y592212D01*
X235417Y592155D01*
X235329Y592106D01*
X235253Y592041D01*
X235213Y592013D01*
X235189Y591987D01*
X235143Y591947D01*
X231967Y588771D01*
X225233Y588771D01*
X221549Y592455D01*
X221471Y592518D01*
X221398Y592587D01*
X221334Y592626D01*
X221276Y592672D01*
X221185Y592715D01*
X221099Y592766D01*
X221028Y592789D01*
X220961Y592821D01*
X220863Y592842D01*
X220767Y592872D01*
X220693Y592878D01*
X220620Y592894D01*
X220520Y592892D01*
X220420Y592900D01*
X220346Y592889D01*
X220272Y592888D01*
X220175Y592864D01*
X220075Y592849D01*
X220006Y592821D01*
X219934Y592803D01*
X219844Y592757D01*
X219751Y592720D01*
X219690Y592678D01*
X219624Y592643D01*
X219547Y592578D01*
X219465Y592521D01*
X219415Y592466D01*
X219359Y592418D01*
X219299Y592337D01*
X219232Y592262D01*
X219196Y592197D01*
X219151Y592137D01*
X219112Y592045D01*
X219063Y591957D01*
X219043Y591886D01*
X219013Y591817D01*
X218996Y591719D01*
X218968Y591622D01*
X218960Y591522D01*
X218952Y591474D01*
X218954Y591439D01*
X218949Y591378D01*
X218949Y551187D01*
X218963Y551061D01*
X218970Y550935D01*
X218983Y550889D01*
X218989Y550841D01*
X219031Y550722D01*
X219066Y550600D01*
X219090Y550558D01*
X219106Y550513D01*
X219175Y550407D01*
X219236Y550296D01*
X219276Y550250D01*
X219295Y550220D01*
X219330Y550186D01*
X219395Y550110D01*
X220399Y549106D01*
X221207Y547156D01*
X221207Y545044D01*
X220399Y543094D01*
X218906Y541601D01*
X216956Y540793D01*
X214844Y540793D01*
X212894Y541601D01*
X211401Y543094D01*
X210593Y545044D01*
X210593Y547156D01*
X211401Y549106D01*
X212405Y550110D01*
X212484Y550209D01*
X212568Y550303D01*
X212592Y550345D01*
X212622Y550383D01*
X212676Y550497D01*
X212737Y550608D01*
X212750Y550654D01*
X212771Y550698D01*
X212797Y550821D01*
X212832Y550943D01*
X212837Y551004D01*
X212844Y551039D01*
X212843Y551087D01*
X212851Y551187D01*
X212851Y618998D01*
X212848Y619024D01*
X212850Y619050D01*
X212828Y619197D01*
X212811Y619344D01*
X212803Y619369D01*
X212799Y619395D01*
X212744Y619533D01*
X212694Y619672D01*
X212680Y619694D01*
X212670Y619719D01*
X212585Y619840D01*
X212505Y619965D01*
X212486Y619983D01*
X212471Y620005D01*
X212361Y620104D01*
X212254Y620207D01*
X212232Y620221D01*
X212212Y620238D01*
X212082Y620310D01*
X211955Y620386D01*
X211930Y620394D01*
X211907Y620407D01*
X211764Y620447D01*
X211623Y620492D01*
X211597Y620494D01*
X211572Y620502D01*
X211328Y620521D01*
X207679Y620521D01*
X204691Y621759D01*
X202499Y623951D01*
X202421Y624014D01*
X202348Y624083D01*
X202284Y624122D01*
X202226Y624168D01*
X202135Y624211D01*
X202049Y624262D01*
X201978Y624285D01*
X201911Y624317D01*
X201813Y624338D01*
X201717Y624368D01*
X201643Y624374D01*
X201570Y624390D01*
X201470Y624388D01*
X201370Y624396D01*
X201296Y624385D01*
X201222Y624384D01*
X201125Y624360D01*
X201025Y624345D01*
X200956Y624317D01*
X200884Y624299D01*
X200795Y624253D01*
X200701Y624216D01*
X200640Y624174D01*
X200574Y624139D01*
X200498Y624074D01*
X200415Y624017D01*
X200365Y623962D01*
X200309Y623914D01*
X200249Y623833D01*
X200182Y623758D01*
X200146Y623693D01*
X200101Y623633D01*
X200062Y623541D01*
X200013Y623453D01*
X199993Y623382D01*
X199963Y623313D01*
X199946Y623215D01*
X199918Y623118D01*
X199910Y623018D01*
X199902Y622970D01*
X199904Y622935D01*
X199899Y622874D01*
X199899Y563887D01*
X181295Y545283D01*
X181216Y545184D01*
X181132Y545090D01*
X181108Y545048D01*
X181078Y545010D01*
X181024Y544896D01*
X180963Y544785D01*
X180950Y544739D01*
X180929Y544695D01*
X180903Y544572D01*
X180868Y544450D01*
X180863Y544389D01*
X180856Y544354D01*
X180857Y544306D01*
X180849Y544206D01*
X180849Y484494D01*
X180863Y484368D01*
X180870Y484242D01*
X180883Y484196D01*
X180889Y484148D01*
X180931Y484029D01*
X180966Y483907D01*
X180990Y483865D01*
X181006Y483819D01*
X181075Y483713D01*
X181136Y483603D01*
X181176Y483557D01*
X181195Y483527D01*
X181230Y483493D01*
X181295Y483417D01*
X218949Y445763D01*
X218949Y436887D01*
X218963Y436761D01*
X218970Y436635D01*
X218983Y436589D01*
X218989Y436541D01*
X219031Y436422D01*
X219066Y436300D01*
X219090Y436258D01*
X219106Y436213D01*
X219175Y436107D01*
X219236Y435996D01*
X219276Y435950D01*
X219295Y435920D01*
X219330Y435886D01*
X219395Y435810D01*
X220399Y434806D01*
X221207Y432856D01*
X221207Y430744D01*
X220399Y428794D01*
X219395Y427790D01*
X219316Y427691D01*
X219232Y427597D01*
X219208Y427555D01*
X219178Y427517D01*
X219124Y427403D01*
X219063Y427292D01*
X219050Y427246D01*
X219029Y427202D01*
X219003Y427079D01*
X218968Y426957D01*
X218963Y426896D01*
X218956Y426861D01*
X218957Y426813D01*
X218949Y426713D01*
X218949Y241909D01*
X218960Y241809D01*
X218962Y241709D01*
X218980Y241636D01*
X218989Y241563D01*
X219022Y241468D01*
X219047Y241371D01*
X219081Y241304D01*
X219106Y241234D01*
X219161Y241150D01*
X219207Y241061D01*
X219255Y241004D01*
X219295Y240942D01*
X219367Y240872D01*
X219432Y240795D01*
X219492Y240751D01*
X219546Y240699D01*
X219632Y240648D01*
X219713Y240588D01*
X219781Y240559D01*
X219845Y240521D01*
X219941Y240490D01*
X220033Y240450D01*
X220106Y240437D01*
X220177Y240414D01*
X220277Y240406D01*
X220376Y240389D01*
X220450Y240392D01*
X220524Y240386D01*
X220624Y240401D01*
X220724Y240406D01*
X220795Y240427D01*
X220869Y240438D01*
X220962Y240475D01*
X221059Y240503D01*
X221124Y240539D01*
X221193Y240567D01*
X221275Y240624D01*
X221363Y240673D01*
X221439Y240738D01*
X221479Y240766D01*
X221503Y240792D01*
X221549Y240832D01*
X224812Y244095D01*
X226569Y244095D01*
X226569Y235458D01*
X226572Y235432D01*
X226570Y235406D01*
X226592Y235259D01*
X226609Y235112D01*
X226617Y235087D01*
X226621Y235061D01*
X226664Y234954D01*
X226643Y234878D01*
X226598Y234737D01*
X226595Y234711D01*
X226588Y234686D01*
X226569Y234442D01*
X226569Y225805D01*
X224812Y225805D01*
X221549Y229068D01*
X221471Y229131D01*
X221398Y229201D01*
X221374Y229215D01*
X221362Y229226D01*
X221325Y229246D01*
X221276Y229285D01*
X221185Y229328D01*
X221099Y229379D01*
X221063Y229391D01*
X221057Y229394D01*
X221026Y229403D01*
X220961Y229434D01*
X220863Y229455D01*
X220767Y229486D01*
X220693Y229492D01*
X220620Y229507D01*
X220520Y229506D01*
X220420Y229514D01*
X220346Y229503D01*
X220272Y229501D01*
X220175Y229477D01*
X220075Y229462D01*
X220006Y229434D01*
X219934Y229416D01*
X219844Y229370D01*
X219751Y229333D01*
X219690Y229291D01*
X219624Y229257D01*
X219548Y229192D01*
X219514Y229168D01*
X219505Y229162D01*
X219504Y229161D01*
X219465Y229134D01*
X219415Y229079D01*
X219359Y229031D01*
X219299Y228950D01*
X219288Y228938D01*
X219263Y228912D01*
X219259Y228906D01*
X219232Y228875D01*
X219196Y228810D01*
X219151Y228751D01*
X219113Y228662D01*
X219084Y228613D01*
X219080Y228601D01*
X219063Y228570D01*
X219043Y228499D01*
X219013Y228431D01*
X218998Y228344D01*
X218978Y228281D01*
X218976Y228263D01*
X218968Y228235D01*
X218960Y228135D01*
X218952Y228087D01*
X218954Y228052D01*
X218949Y227991D01*
X218949Y212288D01*
X218952Y212262D01*
X218950Y212236D01*
X218972Y212089D01*
X218989Y211942D01*
X218997Y211917D01*
X219001Y211891D01*
X219056Y211753D01*
X219106Y211614D01*
X219120Y211592D01*
X219130Y211567D01*
X219215Y211446D01*
X219295Y211321D01*
X219314Y211303D01*
X219329Y211281D01*
X219439Y211182D01*
X219546Y211079D01*
X219568Y211065D01*
X219588Y211048D01*
X219718Y210976D01*
X219845Y210900D01*
X219870Y210892D01*
X219893Y210879D01*
X220036Y210839D01*
X220177Y210794D01*
X220203Y210792D01*
X220228Y210784D01*
X220472Y210765D01*
X223445Y210765D01*
X226225Y209613D01*
X228353Y207485D01*
X229505Y204705D01*
X229505Y201695D01*
X228353Y198915D01*
X226225Y196787D01*
X223445Y195635D01*
X208355Y195635D01*
X205575Y196787D01*
X203447Y198915D01*
X202295Y201695D01*
X202295Y204705D01*
X203447Y207485D01*
X205575Y209613D01*
X208355Y210765D01*
X211328Y210765D01*
X211354Y210768D01*
X211380Y210766D01*
X211527Y210788D01*
X211674Y210805D01*
X211699Y210813D01*
X211725Y210817D01*
X211863Y210872D01*
X212002Y210922D01*
X212024Y210936D01*
X212049Y210946D01*
X212170Y211031D01*
X212295Y211111D01*
X212313Y211130D01*
X212335Y211145D01*
X212434Y211255D01*
X212537Y211362D01*
X212551Y211384D01*
X212568Y211404D01*
X212640Y211534D01*
X212716Y211661D01*
X212724Y211686D01*
X212737Y211709D01*
X212777Y211852D01*
X212822Y211993D01*
X212824Y212019D01*
X212832Y212044D01*
X212851Y212288D01*
X212851Y426713D01*
X212837Y426839D01*
X212830Y426965D01*
X212817Y427011D01*
X212811Y427059D01*
X212769Y427178D01*
X212734Y427300D01*
X212710Y427342D01*
X212694Y427387D01*
X212625Y427493D01*
X212564Y427604D01*
X212524Y427650D01*
X212505Y427680D01*
X212470Y427714D01*
X212405Y427790D01*
X211401Y428794D01*
X210593Y430744D01*
X210593Y432856D01*
X211401Y434806D01*
X212405Y435810D01*
X212484Y435909D01*
X212568Y436003D01*
X212592Y436045D01*
X212622Y436083D01*
X212676Y436197D01*
X212737Y436308D01*
X212750Y436354D01*
X212771Y436398D01*
X212797Y436521D01*
X212832Y436643D01*
X212837Y436704D01*
X212844Y436739D01*
X212843Y436787D01*
X212851Y436887D01*
X212851Y442606D01*
X212837Y442732D01*
X212830Y442858D01*
X212817Y442904D01*
X212811Y442952D01*
X212769Y443071D01*
X212734Y443193D01*
X212710Y443235D01*
X212694Y443281D01*
X212625Y443387D01*
X212564Y443497D01*
X212524Y443543D01*
X212505Y443573D01*
X212470Y443607D01*
X212405Y443683D01*
X174751Y481337D01*
X174751Y547363D01*
X193355Y565967D01*
X193434Y566066D01*
X193518Y566160D01*
X193542Y566202D01*
X193572Y566240D01*
X193626Y566354D01*
X193687Y566465D01*
X193700Y566511D01*
X193721Y566555D01*
X193747Y566678D01*
X193782Y566800D01*
X193787Y566861D01*
X193794Y566896D01*
X193793Y566944D01*
X193801Y567044D01*
X193801Y668013D01*
X201166Y675378D01*
X201214Y675438D01*
X201269Y675491D01*
X201322Y675574D01*
X201383Y675651D01*
X201416Y675720D01*
X201457Y675784D01*
X201490Y675877D01*
X201532Y675966D01*
X201548Y676041D01*
X201574Y676113D01*
X201585Y676211D01*
X201605Y676307D01*
X201604Y676383D01*
X201613Y676459D01*
X201601Y676557D01*
X201599Y676655D01*
X201581Y676729D01*
X201572Y676805D01*
X201526Y676947D01*
X201514Y676993D01*
X201506Y677010D01*
X201497Y677038D01*
X201167Y677833D01*
X201167Y681067D01*
X202405Y684055D01*
X204691Y686341D01*
X207679Y687579D01*
X224121Y687579D01*
X227109Y686341D01*
X229395Y684055D01*
X230633Y681067D01*
X230633Y677833D01*
X229395Y674845D01*
X227109Y672559D01*
X224121Y671321D01*
X207679Y671321D01*
X207243Y671502D01*
X207170Y671523D01*
X207100Y671553D01*
X207003Y671570D01*
X206908Y671597D01*
X206832Y671601D01*
X206757Y671615D01*
X206658Y671610D01*
X206560Y671614D01*
X206485Y671601D01*
X206408Y671597D01*
X206314Y671570D01*
X206217Y671552D01*
X206147Y671521D01*
X206074Y671500D01*
X205988Y671452D01*
X205898Y671413D01*
X205836Y671367D01*
X205769Y671330D01*
X205656Y671233D01*
X205618Y671205D01*
X205605Y671191D01*
X205583Y671172D01*
X200345Y665933D01*
X200266Y665834D01*
X200182Y665740D01*
X200158Y665698D01*
X200128Y665660D01*
X200074Y665546D01*
X200013Y665435D01*
X200000Y665389D01*
X199979Y665345D01*
X199953Y665222D01*
X199918Y665100D01*
X199913Y665039D01*
X199906Y665004D01*
X199907Y664956D01*
X199899Y664856D01*
X199899Y659826D01*
X199910Y659726D01*
X199912Y659626D01*
X199930Y659554D01*
X199939Y659480D01*
X199972Y659385D01*
X199997Y659288D01*
X200031Y659222D01*
X200056Y659152D01*
X200111Y659067D01*
X200157Y658978D01*
X200205Y658921D01*
X200245Y658859D01*
X200317Y658789D01*
X200382Y658713D01*
X200442Y658668D01*
X200496Y658617D01*
X200582Y658565D01*
X200663Y658505D01*
X200731Y658476D01*
X200795Y658438D01*
X200891Y658407D01*
X200983Y658367D01*
X201056Y658354D01*
X201127Y658332D01*
X201227Y658323D01*
X201326Y658306D01*
X201400Y658310D01*
X201474Y658304D01*
X201574Y658318D01*
X201674Y658324D01*
X201745Y658344D01*
X201819Y658355D01*
X201912Y658392D01*
X202009Y658420D01*
X202074Y658457D01*
X202143Y658484D01*
X202225Y658541D01*
X202313Y658590D01*
X202389Y658655D01*
X202429Y658683D01*
X202453Y658709D01*
X202499Y658749D01*
X204691Y660941D01*
X207679Y662179D01*
X224121Y662179D01*
X227109Y660941D01*
X229395Y658655D01*
X230633Y655667D01*
X230633Y652433D01*
X229395Y649445D01*
X227109Y647159D01*
X224121Y645921D01*
X220472Y645921D01*
X220446Y645918D01*
X220420Y645920D01*
X220273Y645898D01*
X220126Y645881D01*
X220101Y645873D01*
X220075Y645869D01*
X219937Y645814D01*
X219798Y645764D01*
X219776Y645750D01*
X219751Y645740D01*
X219630Y645655D01*
X219505Y645575D01*
X219487Y645556D01*
X219465Y645541D01*
X219366Y645431D01*
X219263Y645324D01*
X219249Y645302D01*
X219232Y645282D01*
X219160Y645152D01*
X219084Y645025D01*
X219076Y645000D01*
X219063Y644977D01*
X219023Y644834D01*
X218978Y644693D01*
X218976Y644667D01*
X218968Y644642D01*
X218949Y644398D01*
X218949Y638302D01*
X218952Y638276D01*
X218950Y638250D01*
X218972Y638103D01*
X218989Y637956D01*
X218997Y637931D01*
X219001Y637905D01*
X219056Y637767D01*
X219106Y637628D01*
X219120Y637606D01*
X219130Y637581D01*
X219215Y637460D01*
X219295Y637335D01*
X219314Y637317D01*
X219329Y637295D01*
X219439Y637196D01*
X219546Y637093D01*
X219568Y637079D01*
X219588Y637062D01*
X219718Y636990D01*
X219845Y636914D01*
X219870Y636906D01*
X219893Y636893D01*
X220036Y636853D01*
X220177Y636808D01*
X220203Y636806D01*
X220228Y636798D01*
X220472Y636779D01*
X224121Y636779D01*
X227109Y635541D01*
X229395Y633255D01*
X230633Y630267D01*
X230633Y627033D01*
X229395Y624045D01*
X227109Y621759D01*
X224121Y620521D01*
X220472Y620521D01*
X220446Y620518D01*
X220420Y620520D01*
X220273Y620498D01*
X220126Y620481D01*
X220101Y620473D01*
X220075Y620469D01*
X219937Y620414D01*
X219798Y620364D01*
X219776Y620350D01*
X219751Y620340D01*
X219630Y620255D01*
X219505Y620175D01*
X219487Y620156D01*
X219465Y620141D01*
X219366Y620031D01*
X219263Y619924D01*
X219249Y619902D01*
X219232Y619882D01*
X219160Y619752D01*
X219084Y619625D01*
X219076Y619600D01*
X219063Y619577D01*
X219023Y619434D01*
X218978Y619293D01*
X218976Y619267D01*
X218968Y619242D01*
X218949Y618998D01*
X218949Y602422D01*
X218960Y602322D01*
X218962Y602222D01*
X218980Y602150D01*
X218989Y602076D01*
X219022Y601981D01*
X219047Y601884D01*
X219081Y601818D01*
X219106Y601748D01*
X219161Y601663D01*
X219207Y601574D01*
X219255Y601517D01*
X219295Y601455D01*
X219367Y601385D01*
X219432Y601309D01*
X219492Y601264D01*
X219546Y601213D01*
X219632Y601161D01*
X219713Y601101D01*
X219781Y601072D01*
X219845Y601034D01*
X219941Y601003D01*
X220033Y600963D01*
X220106Y600950D01*
X220177Y600928D01*
X220277Y600919D01*
X220376Y600902D01*
X220450Y600906D01*
X220524Y600900D01*
X220624Y600914D01*
X220724Y600920D01*
X220795Y600940D01*
X220869Y600951D01*
X220962Y600988D01*
X221059Y601016D01*
X221124Y601053D01*
X221193Y601080D01*
X221275Y601137D01*
X221363Y601186D01*
X221439Y601251D01*
X221479Y601279D01*
X221503Y601305D01*
X221549Y601345D01*
X225233Y605029D01*
X231967Y605029D01*
X235143Y601853D01*
X235221Y601790D01*
X235294Y601721D01*
X235358Y601682D01*
X235416Y601636D01*
X235507Y601593D01*
X235593Y601542D01*
X235664Y601519D01*
X235731Y601487D01*
X235829Y601466D01*
X235925Y601436D01*
X235999Y601430D01*
X236072Y601414D01*
X236172Y601416D01*
X236272Y601408D01*
X236346Y601419D01*
X236420Y601420D01*
X236517Y601444D01*
X236617Y601459D01*
X236686Y601487D01*
X236758Y601505D01*
X236847Y601551D01*
X236941Y601588D01*
X237002Y601630D01*
X237068Y601665D01*
X237144Y601730D01*
X237227Y601787D01*
X237277Y601842D01*
X237333Y601890D01*
X237393Y601971D01*
X237460Y602046D01*
X237496Y602111D01*
X237541Y602171D01*
X237580Y602263D01*
X237629Y602351D01*
X237649Y602422D01*
X237679Y602491D01*
X237696Y602589D01*
X237724Y602686D01*
X237732Y602786D01*
X237740Y602834D01*
X237738Y602869D01*
X237743Y602930D01*
X237743Y690046D01*
X237729Y690171D01*
X237722Y690298D01*
X237709Y690344D01*
X237703Y690392D01*
X237661Y690511D01*
X237626Y690632D01*
X237602Y690675D01*
X237586Y690720D01*
X237517Y690826D01*
X237456Y690937D01*
X237416Y690983D01*
X237397Y691013D01*
X237362Y691047D01*
X237297Y691123D01*
X229862Y698558D01*
X229841Y698574D01*
X229824Y698594D01*
X229705Y698683D01*
X229589Y698775D01*
X229565Y698786D01*
X229544Y698801D01*
X229408Y698860D01*
X229274Y698924D01*
X229248Y698929D01*
X229224Y698940D01*
X229078Y698966D01*
X228933Y698997D01*
X228907Y698997D01*
X228881Y699001D01*
X228733Y698994D01*
X228585Y698991D01*
X228559Y698985D01*
X228533Y698983D01*
X228391Y698942D01*
X228247Y698906D01*
X228223Y698894D01*
X228198Y698887D01*
X228069Y698814D01*
X227937Y698746D01*
X227917Y698729D01*
X227894Y698717D01*
X227708Y698558D01*
X227109Y697959D01*
X224121Y696721D01*
X207679Y696721D01*
X204691Y697959D01*
X202405Y700245D01*
X201564Y702274D01*
X201492Y702405D01*
X201423Y702539D01*
X201407Y702558D01*
X201395Y702579D01*
X201294Y702690D01*
X201197Y702805D01*
X201177Y702819D01*
X201161Y702837D01*
X201037Y702923D01*
X200916Y703012D01*
X200894Y703021D01*
X200874Y703035D01*
X200734Y703090D01*
X200596Y703150D01*
X200573Y703154D01*
X200550Y703163D01*
X200401Y703185D01*
X200253Y703212D01*
X200229Y703210D01*
X200205Y703214D01*
X200055Y703201D01*
X199905Y703194D01*
X199882Y703187D01*
X199858Y703185D01*
X199715Y703139D01*
X199570Y703097D01*
X199549Y703085D01*
X199526Y703078D01*
X199398Y703000D01*
X199266Y702927D01*
X199244Y702908D01*
X199228Y702898D01*
X199194Y702865D01*
X199080Y702768D01*
X181295Y684983D01*
X181216Y684884D01*
X181132Y684790D01*
X181108Y684748D01*
X181078Y684710D01*
X181024Y684596D01*
X180963Y684485D01*
X180950Y684439D01*
X180929Y684395D01*
X180903Y684272D01*
X180868Y684150D01*
X180863Y684089D01*
X180856Y684054D01*
X180857Y684006D01*
X180849Y683906D01*
X180849Y618678D01*
X180863Y618552D01*
X180870Y618426D01*
X180883Y618380D01*
X180889Y618332D01*
X180931Y618213D01*
X180966Y618091D01*
X180990Y618049D01*
X181006Y618004D01*
X181075Y617897D01*
X181136Y617787D01*
X181176Y617741D01*
X181195Y617711D01*
X181230Y617677D01*
X181295Y617601D01*
X185929Y612967D01*
X185929Y606233D01*
X181167Y601471D01*
X174433Y601471D01*
X169671Y606233D01*
X169671Y612967D01*
X174305Y617601D01*
X174384Y617700D01*
X174468Y617794D01*
X174492Y617836D01*
X174522Y617874D01*
X174576Y617988D01*
X174637Y618099D01*
X174650Y618145D01*
X174671Y618189D01*
X174697Y618312D01*
X174732Y618434D01*
X174737Y618495D01*
X174744Y618530D01*
X174743Y618578D01*
X174751Y618678D01*
X174751Y687063D01*
X193355Y705667D01*
X193434Y705766D01*
X193518Y705860D01*
X193542Y705902D01*
X193572Y705940D01*
X193626Y706054D01*
X193687Y706165D01*
X193700Y706211D01*
X193721Y706255D01*
X193747Y706378D01*
X193782Y706500D01*
X193787Y706561D01*
X193794Y706596D01*
X193793Y706644D01*
X193801Y706744D01*
X193801Y744213D01*
X201166Y751578D01*
X201214Y751638D01*
X201269Y751691D01*
X201322Y751774D01*
X201383Y751851D01*
X201416Y751920D01*
X201457Y751984D01*
X201490Y752077D01*
X201532Y752166D01*
X201548Y752241D01*
X201574Y752313D01*
X201585Y752411D01*
X201605Y752507D01*
X201604Y752583D01*
X201613Y752659D01*
X201601Y752757D01*
X201599Y752855D01*
X201581Y752929D01*
X201572Y753005D01*
X201526Y753147D01*
X201514Y753193D01*
X201506Y753210D01*
X201497Y753238D01*
X201167Y754033D01*
X201167Y757267D01*
X202405Y760255D01*
X204691Y762541D01*
X207679Y763779D01*
X211328Y763779D01*
X211354Y763782D01*
X211380Y763780D01*
X211527Y763802D01*
X211674Y763819D01*
X211699Y763827D01*
X211725Y763831D01*
X211863Y763886D01*
X212002Y763936D01*
X212024Y763950D01*
X212049Y763960D01*
X212170Y764045D01*
X212295Y764125D01*
X212313Y764144D01*
X212335Y764159D01*
X212434Y764269D01*
X212537Y764376D01*
X212551Y764398D01*
X212568Y764418D01*
X212640Y764548D01*
X212716Y764675D01*
X212724Y764700D01*
X212737Y764723D01*
X212777Y764866D01*
X212822Y765007D01*
X212824Y765033D01*
X212832Y765058D01*
X212851Y765302D01*
X212851Y771398D01*
X212848Y771424D01*
X212850Y771450D01*
X212828Y771597D01*
X212811Y771744D01*
X212803Y771769D01*
X212799Y771795D01*
X212744Y771933D01*
X212694Y772072D01*
X212680Y772094D01*
X212670Y772119D01*
X212585Y772240D01*
X212505Y772365D01*
X212486Y772383D01*
X212471Y772405D01*
X212361Y772504D01*
X212254Y772607D01*
X212232Y772621D01*
X212212Y772638D01*
X212082Y772710D01*
X211955Y772786D01*
X211930Y772794D01*
X211907Y772807D01*
X211764Y772847D01*
X211623Y772892D01*
X211597Y772894D01*
X211572Y772902D01*
X211328Y772921D01*
X207679Y772921D01*
X204691Y774159D01*
X202405Y776445D01*
X201167Y779433D01*
X201167Y782667D01*
X202405Y785655D01*
X204691Y787941D01*
X207679Y789179D01*
X224121Y789179D01*
X227109Y787941D01*
X229395Y785655D01*
X230633Y782667D01*
X230633Y779433D01*
X229395Y776445D01*
X227109Y774159D01*
X224121Y772921D01*
X220472Y772921D01*
X220446Y772918D01*
X220420Y772920D01*
X220273Y772898D01*
X220126Y772881D01*
X220101Y772873D01*
X220075Y772869D01*
X219937Y772814D01*
X219798Y772764D01*
X219776Y772750D01*
X219751Y772740D01*
X219630Y772655D01*
X219505Y772575D01*
X219487Y772556D01*
X219465Y772541D01*
X219366Y772431D01*
X219263Y772324D01*
X219249Y772302D01*
X219232Y772282D01*
X219160Y772152D01*
X219084Y772025D01*
X219076Y772000D01*
X219063Y771977D01*
X219023Y771834D01*
X218978Y771693D01*
X218976Y771667D01*
X218968Y771642D01*
X218949Y771398D01*
X218949Y765302D01*
X218952Y765276D01*
X218950Y765250D01*
X218972Y765103D01*
X218989Y764956D01*
X218997Y764931D01*
X219001Y764905D01*
X219056Y764767D01*
X219106Y764628D01*
X219120Y764606D01*
X219130Y764581D01*
X219215Y764460D01*
X219295Y764335D01*
X219314Y764317D01*
X219329Y764295D01*
X219439Y764196D01*
X219546Y764093D01*
X219568Y764079D01*
X219588Y764062D01*
X219718Y763990D01*
X219845Y763914D01*
X219870Y763906D01*
X219893Y763893D01*
X220036Y763853D01*
X220177Y763808D01*
X220203Y763806D01*
X220228Y763798D01*
X220472Y763779D01*
X224121Y763779D01*
X227109Y762541D01*
X229395Y760255D01*
X230633Y757267D01*
X230633Y754033D01*
X229395Y751045D01*
X227109Y748759D01*
X224121Y747521D01*
X207679Y747521D01*
X207243Y747702D01*
X207170Y747723D01*
X207100Y747753D01*
X207003Y747770D01*
X206908Y747797D01*
X206832Y747801D01*
X206757Y747815D01*
X206658Y747810D01*
X206560Y747814D01*
X206485Y747801D01*
X206408Y747797D01*
X206314Y747770D01*
X206217Y747752D01*
X206147Y747721D01*
X206074Y747700D01*
X205988Y747652D01*
X205897Y747613D01*
X205836Y747567D01*
X205769Y747530D01*
X205656Y747433D01*
X205618Y747405D01*
X205605Y747391D01*
X205583Y747372D01*
X200345Y742133D01*
X200266Y742034D01*
X200182Y741940D01*
X200158Y741898D01*
X200128Y741860D01*
X200074Y741746D01*
X200013Y741635D01*
X200000Y741589D01*
X199979Y741545D01*
X199953Y741422D01*
X199918Y741300D01*
X199913Y741239D01*
X199906Y741204D01*
X199907Y741156D01*
X199899Y741056D01*
X199899Y736026D01*
X199910Y735926D01*
X199912Y735826D01*
X199930Y735754D01*
X199939Y735680D01*
X199972Y735585D01*
X199997Y735488D01*
X200031Y735422D01*
X200056Y735352D01*
X200111Y735267D01*
X200157Y735178D01*
X200205Y735121D01*
X200245Y735059D01*
X200317Y734989D01*
X200382Y734913D01*
X200442Y734868D01*
X200496Y734817D01*
X200582Y734765D01*
X200663Y734705D01*
X200731Y734676D01*
X200795Y734638D01*
X200891Y734607D01*
X200983Y734567D01*
X201056Y734554D01*
X201127Y734532D01*
X201227Y734523D01*
X201326Y734506D01*
X201400Y734510D01*
X201474Y734504D01*
X201574Y734518D01*
X201674Y734524D01*
X201745Y734544D01*
X201819Y734555D01*
X201912Y734592D01*
X202009Y734620D01*
X202074Y734657D01*
X202143Y734684D01*
X202225Y734741D01*
X202313Y734790D01*
X202389Y734855D01*
X202429Y734883D01*
X202453Y734909D01*
X202499Y734949D01*
X204691Y737141D01*
X207679Y738379D01*
X224121Y738379D01*
X227109Y737141D01*
X229395Y734855D01*
X229650Y734239D01*
X229687Y734172D01*
X229716Y734101D01*
X229772Y734021D01*
X229819Y733934D01*
X229871Y733878D01*
X229914Y733815D01*
X229987Y733749D01*
X230054Y733676D01*
X230117Y733633D01*
X230173Y733582D01*
X230259Y733534D01*
X230340Y733478D01*
X230411Y733450D01*
X230478Y733413D01*
X230573Y733386D01*
X230665Y733350D01*
X230740Y733339D01*
X230814Y733318D01*
X230963Y733306D01*
X231009Y733299D01*
X231028Y733301D01*
X231057Y733299D01*
X248913Y733299D01*
X249039Y733313D01*
X249165Y733320D01*
X249211Y733333D01*
X249259Y733339D01*
X249378Y733381D01*
X249500Y733416D01*
X249542Y733440D01*
X249587Y733456D01*
X249693Y733525D01*
X249804Y733586D01*
X249850Y733626D01*
X249880Y733645D01*
X249914Y733680D01*
X249990Y733745D01*
X250505Y734260D01*
X250584Y734359D01*
X250668Y734453D01*
X250692Y734495D01*
X250722Y734533D01*
X250776Y734647D01*
X250837Y734758D01*
X250850Y734804D01*
X250871Y734848D01*
X250897Y734971D01*
X250932Y735093D01*
X250937Y735154D01*
X250944Y735189D01*
X250943Y735237D01*
X250951Y735337D01*
X250951Y817256D01*
X250937Y817382D01*
X250930Y817508D01*
X250917Y817554D01*
X250911Y817602D01*
X250869Y817721D01*
X250834Y817843D01*
X250810Y817885D01*
X250794Y817931D01*
X250725Y818037D01*
X250664Y818147D01*
X250624Y818193D01*
X250605Y818223D01*
X250570Y818257D01*
X250505Y818333D01*
X234133Y834705D01*
X234034Y834784D01*
X233940Y834868D01*
X233898Y834892D01*
X233860Y834922D01*
X233746Y834976D01*
X233635Y835037D01*
X233589Y835050D01*
X233545Y835071D01*
X233422Y835097D01*
X233300Y835132D01*
X233239Y835137D01*
X233204Y835144D01*
X233156Y835143D01*
X233056Y835151D01*
X186878Y835151D01*
X186752Y835137D01*
X186626Y835130D01*
X186580Y835117D01*
X186532Y835111D01*
X186413Y835069D01*
X186291Y835034D01*
X186249Y835010D01*
X186204Y834994D01*
X186097Y834925D01*
X185987Y834864D01*
X185941Y834824D01*
X185911Y834805D01*
X185877Y834770D01*
X185801Y834705D01*
X181167Y830071D01*
X174433Y830071D01*
X169799Y834705D01*
X169700Y834784D01*
X169606Y834868D01*
X169564Y834892D01*
X169526Y834922D01*
X169412Y834976D01*
X169301Y835037D01*
X169255Y835050D01*
X169211Y835071D01*
X169088Y835097D01*
X168966Y835132D01*
X168905Y835137D01*
X168870Y835144D01*
X168822Y835143D01*
X168722Y835151D01*
X94137Y835151D01*
X91905Y837383D01*
X77808Y851480D01*
X77748Y851528D01*
X77695Y851583D01*
X77612Y851636D01*
X77535Y851697D01*
X77466Y851730D01*
X77402Y851771D01*
X77309Y851804D01*
X77220Y851846D01*
X77145Y851862D01*
X77073Y851888D01*
X76975Y851899D01*
X76879Y851919D01*
X76803Y851918D01*
X76727Y851927D01*
X76629Y851915D01*
X76531Y851913D01*
X76457Y851895D01*
X76381Y851886D01*
X76239Y851840D01*
X76193Y851828D01*
X76176Y851820D01*
X76148Y851811D01*
X73335Y850645D01*
X66665Y850645D01*
X60503Y853198D01*
X55788Y857913D01*
X53235Y864075D01*
X53235Y901225D01*
X55788Y907387D01*
X60503Y912102D01*
X64913Y913929D01*
X64957Y913954D01*
X65005Y913971D01*
X65109Y914038D01*
X65218Y914098D01*
X65255Y914132D01*
X65298Y914160D01*
X65384Y914249D01*
X65476Y914332D01*
X65505Y914374D01*
X65540Y914410D01*
X65604Y914517D01*
X65674Y914619D01*
X65693Y914666D01*
X65719Y914710D01*
X65757Y914828D01*
X65802Y914943D01*
X65809Y914993D01*
X65825Y915042D01*
X65835Y915165D01*
X65853Y915288D01*
X65849Y915339D01*
X65853Y915389D01*
X65834Y915512D01*
X65824Y915635D01*
X65808Y915684D01*
X65801Y915734D01*
X65755Y915849D01*
X65717Y915967D01*
X65691Y916011D01*
X65672Y916057D01*
X65601Y916159D01*
X65537Y916266D01*
X65502Y916302D01*
X65473Y916344D01*
X65381Y916427D01*
X65294Y916516D01*
X65252Y916543D01*
X65214Y916577D01*
X65105Y916637D01*
X65001Y916704D01*
X64953Y916721D01*
X64909Y916745D01*
X64790Y916779D01*
X64673Y916821D01*
X64622Y916826D01*
X64574Y916840D01*
X64330Y916860D01*
X64326Y916860D01*
X25354Y916847D01*
X25304Y916842D01*
X25254Y916844D01*
X25131Y916822D01*
X25008Y916807D01*
X24960Y916790D01*
X24911Y916781D01*
X24797Y916732D01*
X24679Y916690D01*
X24637Y916662D01*
X24591Y916642D01*
X24491Y916568D01*
X24387Y916501D01*
X24352Y916465D01*
X24312Y916435D01*
X24231Y916339D01*
X24145Y916250D01*
X24119Y916207D01*
X24086Y916168D01*
X24030Y916058D01*
X23966Y915951D01*
X23951Y915903D01*
X23928Y915858D01*
X23898Y915738D01*
X23860Y915619D01*
X23856Y915569D01*
X23844Y915520D01*
X23842Y915396D01*
X23832Y915271D01*
X23839Y915222D01*
X23839Y915172D01*
X23865Y915050D01*
X23884Y914927D01*
X23902Y914880D01*
X23913Y914831D01*
X23966Y914719D01*
X24013Y914603D01*
X24041Y914562D01*
X24063Y914516D01*
X24141Y914419D01*
X24212Y914317D01*
X24249Y914283D01*
X24280Y914244D01*
X24378Y914167D01*
X24470Y914083D01*
X24514Y914059D01*
X24554Y914028D01*
X24771Y913917D01*
X24881Y913871D01*
X26900Y912706D01*
X28749Y911287D01*
X30397Y909639D01*
X31816Y907790D01*
X32981Y905771D01*
X33873Y903618D01*
X34477Y901366D01*
X34781Y899055D01*
X34781Y885697D01*
X18524Y885697D01*
X18498Y885694D01*
X18472Y885696D01*
X18325Y885674D01*
X18178Y885657D01*
X18153Y885649D01*
X18127Y885645D01*
X17989Y885590D01*
X17850Y885540D01*
X17828Y885526D01*
X17803Y885516D01*
X17682Y885431D01*
X17557Y885351D01*
X17539Y885332D01*
X17517Y885317D01*
X17418Y885207D01*
X17315Y885100D01*
X17301Y885078D01*
X17284Y885058D01*
X17212Y884928D01*
X17136Y884801D01*
X17128Y884776D01*
X17115Y884753D01*
X17075Y884610D01*
X17030Y884469D01*
X17028Y884443D01*
X17021Y884418D01*
X17001Y884174D01*
X17001Y882649D01*
X15476Y882649D01*
X15450Y882646D01*
X15424Y882648D01*
X15277Y882626D01*
X15130Y882609D01*
X15105Y882600D01*
X15079Y882597D01*
X14941Y882542D01*
X14802Y882492D01*
X14780Y882477D01*
X14755Y882468D01*
X14634Y882383D01*
X14509Y882303D01*
X14491Y882284D01*
X14469Y882269D01*
X14370Y882159D01*
X14267Y882052D01*
X14253Y882030D01*
X14236Y882010D01*
X14164Y881880D01*
X14088Y881753D01*
X14080Y881728D01*
X14067Y881705D01*
X14027Y881562D01*
X13982Y881421D01*
X13980Y881395D01*
X13972Y881370D01*
X13953Y881126D01*
X13953Y849877D01*
X13524Y849933D01*
X12078Y850321D01*
X12028Y850328D01*
X11979Y850344D01*
X11856Y850354D01*
X11734Y850372D01*
X11683Y850368D01*
X11632Y850372D01*
X11509Y850353D01*
X11386Y850343D01*
X11338Y850328D01*
X11287Y850320D01*
X11172Y850274D01*
X11054Y850237D01*
X11011Y850210D01*
X10963Y850191D01*
X10862Y850121D01*
X10756Y850057D01*
X10719Y850022D01*
X10677Y849992D01*
X10594Y849901D01*
X10505Y849815D01*
X10478Y849772D01*
X10444Y849734D01*
X10384Y849625D01*
X10317Y849521D01*
X10300Y849473D01*
X10275Y849429D01*
X10242Y849310D01*
X10200Y849193D01*
X10194Y849142D01*
X10180Y849093D01*
X10161Y848849D01*
X10161Y802151D01*
X10167Y802100D01*
X10164Y802049D01*
X10186Y801927D01*
X10201Y801804D01*
X10218Y801756D01*
X10227Y801706D01*
X10276Y801593D01*
X10318Y801476D01*
X10346Y801433D01*
X10366Y801387D01*
X10440Y801287D01*
X10507Y801183D01*
X10544Y801148D01*
X10574Y801107D01*
X10669Y801027D01*
X10758Y800941D01*
X10802Y800915D01*
X10841Y800882D01*
X10951Y800826D01*
X11057Y800762D01*
X11105Y800747D01*
X11151Y800724D01*
X11271Y800694D01*
X11389Y800656D01*
X11440Y800652D01*
X11489Y800640D01*
X11613Y800638D01*
X11736Y800628D01*
X11787Y800636D01*
X11838Y800635D01*
X12078Y800679D01*
X13524Y801067D01*
X13953Y801123D01*
X13953Y769874D01*
X13956Y769848D01*
X13954Y769822D01*
X13976Y769675D01*
X13993Y769528D01*
X14001Y769503D01*
X14005Y769477D01*
X14060Y769339D01*
X14110Y769200D01*
X14124Y769178D01*
X14134Y769153D01*
X14219Y769032D01*
X14299Y768907D01*
X14318Y768889D01*
X14333Y768867D01*
X14443Y768768D01*
X14550Y768665D01*
X14572Y768651D01*
X14592Y768634D01*
X14722Y768562D01*
X14849Y768486D01*
X14874Y768478D01*
X14897Y768465D01*
X15040Y768425D01*
X15181Y768380D01*
X15207Y768378D01*
X15232Y768371D01*
X15476Y768351D01*
X17001Y768351D01*
X17001Y768349D01*
X15476Y768349D01*
X15450Y768346D01*
X15424Y768348D01*
X15277Y768326D01*
X15130Y768309D01*
X15105Y768300D01*
X15079Y768297D01*
X14941Y768242D01*
X14802Y768192D01*
X14780Y768177D01*
X14755Y768168D01*
X14634Y768083D01*
X14509Y768003D01*
X14491Y767984D01*
X14469Y767969D01*
X14370Y767859D01*
X14267Y767752D01*
X14253Y767730D01*
X14236Y767710D01*
X14164Y767580D01*
X14088Y767453D01*
X14080Y767428D01*
X14067Y767405D01*
X14027Y767262D01*
X13982Y767121D01*
X13980Y767095D01*
X13972Y767070D01*
X13953Y766826D01*
X13953Y735577D01*
X13524Y735633D01*
X12078Y736021D01*
X12028Y736028D01*
X11979Y736044D01*
X11856Y736054D01*
X11734Y736072D01*
X11683Y736068D01*
X11632Y736072D01*
X11509Y736053D01*
X11386Y736043D01*
X11338Y736028D01*
X11287Y736020D01*
X11172Y735974D01*
X11054Y735937D01*
X11011Y735910D01*
X10963Y735891D01*
X10862Y735821D01*
X10756Y735757D01*
X10719Y735722D01*
X10677Y735692D01*
X10594Y735601D01*
X10505Y735515D01*
X10478Y735472D01*
X10444Y735434D01*
X10384Y735325D01*
X10317Y735221D01*
X10300Y735173D01*
X10275Y735129D01*
X10242Y735010D01*
X10200Y734893D01*
X10194Y734842D01*
X10180Y734793D01*
X10161Y734549D01*
X10161Y687851D01*
X10167Y687800D01*
X10164Y687749D01*
X10186Y687627D01*
X10201Y687504D01*
X10218Y687456D01*
X10227Y687406D01*
X10276Y687293D01*
X10318Y687176D01*
X10346Y687133D01*
X10366Y687087D01*
X10440Y686987D01*
X10507Y686883D01*
X10544Y686848D01*
X10574Y686807D01*
X10669Y686727D01*
X10758Y686641D01*
X10802Y686615D01*
X10841Y686582D01*
X10951Y686526D01*
X11057Y686462D01*
X11105Y686447D01*
X11151Y686424D01*
X11271Y686394D01*
X11389Y686356D01*
X11440Y686352D01*
X11489Y686340D01*
X11613Y686338D01*
X11736Y686328D01*
X11787Y686336D01*
X11838Y686335D01*
X12078Y686379D01*
X13524Y686767D01*
X13953Y686823D01*
X13953Y655574D01*
X13956Y655548D01*
X13954Y655522D01*
X13976Y655375D01*
X13993Y655228D01*
X14001Y655203D01*
X14005Y655177D01*
X14060Y655039D01*
X14110Y654900D01*
X14124Y654878D01*
X14134Y654853D01*
X14219Y654732D01*
X14299Y654607D01*
X14318Y654589D01*
X14333Y654567D01*
X14443Y654468D01*
X14550Y654365D01*
X14572Y654351D01*
X14592Y654334D01*
X14722Y654262D01*
X14849Y654186D01*
X14874Y654178D01*
X14897Y654165D01*
X15040Y654125D01*
X15181Y654080D01*
X15207Y654078D01*
X15232Y654071D01*
X15476Y654051D01*
X17001Y654051D01*
X17001Y654049D01*
X15476Y654049D01*
X15450Y654046D01*
X15424Y654048D01*
X15277Y654026D01*
X15130Y654009D01*
X15105Y654000D01*
X15079Y653997D01*
X14941Y653942D01*
X14802Y653892D01*
X14780Y653877D01*
X14755Y653868D01*
X14634Y653783D01*
X14509Y653703D01*
X14491Y653684D01*
X14469Y653669D01*
X14370Y653559D01*
X14267Y653452D01*
X14253Y653430D01*
X14236Y653410D01*
X14164Y653280D01*
X14088Y653153D01*
X14080Y653128D01*
X14067Y653105D01*
X14027Y652962D01*
X13982Y652821D01*
X13980Y652795D01*
X13972Y652770D01*
X13953Y652526D01*
X13953Y621277D01*
X13524Y621333D01*
X12078Y621721D01*
X12028Y621728D01*
X11979Y621744D01*
X11856Y621754D01*
X11734Y621772D01*
X11683Y621768D01*
X11632Y621772D01*
X11509Y621753D01*
X11386Y621743D01*
X11338Y621728D01*
X11287Y621720D01*
X11172Y621674D01*
X11054Y621637D01*
X11011Y621610D01*
X10963Y621591D01*
X10862Y621521D01*
X10756Y621457D01*
X10719Y621422D01*
X10677Y621392D01*
X10594Y621301D01*
X10505Y621215D01*
X10478Y621172D01*
X10444Y621134D01*
X10384Y621025D01*
X10317Y620921D01*
X10300Y620873D01*
X10275Y620829D01*
X10242Y620710D01*
X10200Y620593D01*
X10194Y620542D01*
X10180Y620493D01*
X10161Y620249D01*
X10161Y573551D01*
X10167Y573500D01*
X10164Y573449D01*
X10186Y573327D01*
X10201Y573204D01*
X10218Y573156D01*
X10227Y573106D01*
X10276Y572993D01*
X10318Y572876D01*
X10346Y572833D01*
X10366Y572787D01*
X10440Y572687D01*
X10507Y572583D01*
X10544Y572548D01*
X10574Y572507D01*
X10669Y572427D01*
X10758Y572341D01*
X10802Y572315D01*
X10841Y572282D01*
X10951Y572226D01*
X11057Y572162D01*
X11105Y572147D01*
X11151Y572124D01*
X11271Y572094D01*
X11389Y572056D01*
X11440Y572052D01*
X11489Y572040D01*
X11613Y572038D01*
X11736Y572028D01*
X11787Y572036D01*
X11838Y572035D01*
X12078Y572079D01*
X13524Y572467D01*
X13953Y572523D01*
X13953Y541274D01*
X13956Y541248D01*
X13954Y541222D01*
X13976Y541075D01*
X13993Y540928D01*
X14001Y540903D01*
X14005Y540877D01*
X14060Y540739D01*
X14110Y540600D01*
X14124Y540578D01*
X14134Y540553D01*
X14219Y540432D01*
X14299Y540307D01*
X14318Y540289D01*
X14333Y540267D01*
X14443Y540168D01*
X14550Y540065D01*
X14572Y540051D01*
X14592Y540034D01*
X14722Y539962D01*
X14849Y539886D01*
X14874Y539878D01*
X14897Y539865D01*
X15040Y539825D01*
X15181Y539780D01*
X15207Y539778D01*
X15232Y539771D01*
X15476Y539751D01*
X17001Y539751D01*
X17001Y539749D01*
X15476Y539749D01*
X15450Y539746D01*
X15424Y539748D01*
X15277Y539726D01*
X15130Y539709D01*
X15105Y539700D01*
X15079Y539697D01*
X14941Y539642D01*
X14802Y539592D01*
X14780Y539577D01*
X14755Y539568D01*
X14634Y539483D01*
X14509Y539403D01*
X14491Y539384D01*
X14469Y539369D01*
X14370Y539259D01*
X14267Y539152D01*
X14253Y539130D01*
X14236Y539110D01*
X14164Y538980D01*
X14088Y538853D01*
X14080Y538828D01*
X14067Y538805D01*
X14027Y538662D01*
X13982Y538521D01*
X13980Y538495D01*
X13972Y538470D01*
X13953Y538226D01*
X13953Y506977D01*
X13524Y507033D01*
X12078Y507421D01*
X12028Y507428D01*
X11979Y507444D01*
X11856Y507454D01*
X11734Y507472D01*
X11683Y507468D01*
X11632Y507472D01*
X11509Y507453D01*
X11386Y507443D01*
X11338Y507428D01*
X11287Y507420D01*
X11172Y507374D01*
X11054Y507337D01*
X11011Y507310D01*
X10963Y507291D01*
X10862Y507221D01*
X10756Y507157D01*
X10719Y507122D01*
X10677Y507092D01*
X10594Y507001D01*
X10505Y506915D01*
X10478Y506872D01*
X10444Y506834D01*
X10384Y506725D01*
X10317Y506621D01*
X10300Y506573D01*
X10275Y506529D01*
X10242Y506410D01*
X10200Y506293D01*
X10194Y506242D01*
X10180Y506193D01*
X10161Y505949D01*
X10161Y421151D01*
X10167Y421100D01*
X10164Y421049D01*
X10186Y420927D01*
X10201Y420804D01*
X10218Y420756D01*
X10227Y420706D01*
X10276Y420593D01*
X10318Y420476D01*
X10346Y420433D01*
X10366Y420387D01*
X10440Y420287D01*
X10507Y420183D01*
X10544Y420148D01*
X10574Y420107D01*
X10669Y420027D01*
X10758Y419941D01*
X10802Y419915D01*
X10841Y419882D01*
X10951Y419826D01*
X11057Y419762D01*
X11105Y419747D01*
X11151Y419724D01*
X11271Y419694D01*
X11389Y419656D01*
X11440Y419652D01*
X11489Y419640D01*
X11613Y419638D01*
X11736Y419628D01*
X11787Y419636D01*
X11838Y419635D01*
X12078Y419679D01*
X13524Y420067D01*
X13953Y420123D01*
X13953Y388874D01*
X13956Y388848D01*
X13954Y388822D01*
X13976Y388675D01*
X13993Y388528D01*
X14001Y388503D01*
X14005Y388477D01*
X14060Y388339D01*
X14110Y388200D01*
X14124Y388178D01*
X14134Y388153D01*
X14219Y388032D01*
X14299Y387907D01*
X14318Y387889D01*
X14333Y387867D01*
X14443Y387768D01*
X14550Y387665D01*
X14572Y387651D01*
X14592Y387634D01*
X14722Y387562D01*
X14849Y387486D01*
X14874Y387478D01*
X14897Y387465D01*
X15040Y387425D01*
X15181Y387380D01*
X15207Y387378D01*
X15232Y387371D01*
X15476Y387351D01*
X17001Y387351D01*
X17001Y387349D01*
X15476Y387349D01*
X15450Y387346D01*
X15424Y387348D01*
X15277Y387326D01*
X15130Y387309D01*
X15105Y387300D01*
X15079Y387297D01*
X14941Y387242D01*
X14802Y387192D01*
X14780Y387177D01*
X14755Y387168D01*
X14634Y387083D01*
X14509Y387003D01*
X14491Y386984D01*
X14469Y386969D01*
X14370Y386859D01*
X14267Y386752D01*
X14253Y386730D01*
X14236Y386710D01*
X14164Y386580D01*
X14088Y386453D01*
X14080Y386428D01*
X14067Y386405D01*
X14027Y386262D01*
X13982Y386121D01*
X13980Y386095D01*
X13972Y386070D01*
X13953Y385826D01*
X13953Y354577D01*
X13524Y354633D01*
X12078Y355021D01*
X12028Y355028D01*
X11979Y355044D01*
X11856Y355054D01*
X11734Y355072D01*
X11683Y355068D01*
X11632Y355072D01*
X11509Y355053D01*
X11386Y355043D01*
X11338Y355028D01*
X11287Y355020D01*
X11172Y354974D01*
X11054Y354937D01*
X11011Y354910D01*
X10963Y354891D01*
X10862Y354821D01*
X10756Y354757D01*
X10719Y354722D01*
X10677Y354692D01*
X10594Y354601D01*
X10505Y354515D01*
X10478Y354472D01*
X10444Y354434D01*
X10384Y354325D01*
X10317Y354221D01*
X10300Y354173D01*
X10275Y354129D01*
X10242Y354010D01*
X10200Y353893D01*
X10194Y353842D01*
X10180Y353793D01*
X10161Y353549D01*
X10161Y306851D01*
X10167Y306800D01*
X10164Y306749D01*
X10186Y306627D01*
X10201Y306504D01*
X10218Y306456D01*
X10227Y306406D01*
X10276Y306293D01*
X10318Y306176D01*
X10346Y306133D01*
X10366Y306087D01*
X10440Y305987D01*
X10507Y305883D01*
X10544Y305848D01*
X10574Y305807D01*
X10669Y305727D01*
X10758Y305641D01*
X10802Y305615D01*
X10841Y305582D01*
X10951Y305526D01*
X11057Y305462D01*
X11105Y305447D01*
X11151Y305424D01*
X11271Y305394D01*
X11389Y305356D01*
X11440Y305352D01*
X11489Y305340D01*
X11613Y305338D01*
X11736Y305328D01*
X11787Y305336D01*
X11838Y305335D01*
X12078Y305379D01*
X13524Y305767D01*
X13953Y305823D01*
X13953Y274574D01*
X13956Y274548D01*
X13954Y274522D01*
X13976Y274375D01*
X13993Y274228D01*
X14001Y274203D01*
X14005Y274177D01*
X14060Y274039D01*
X14110Y273900D01*
X14124Y273878D01*
X14134Y273853D01*
X14219Y273732D01*
X14299Y273607D01*
X14318Y273589D01*
X14333Y273567D01*
X14443Y273468D01*
X14550Y273365D01*
X14572Y273351D01*
X14592Y273334D01*
X14722Y273262D01*
X14849Y273186D01*
X14874Y273178D01*
X14897Y273165D01*
X15040Y273125D01*
X15181Y273080D01*
X15207Y273078D01*
X15232Y273071D01*
X15476Y273051D01*
X17001Y273051D01*
X17001Y273049D01*
X15476Y273049D01*
X15450Y273046D01*
X15424Y273048D01*
X15277Y273026D01*
X15130Y273009D01*
X15105Y273000D01*
X15079Y272997D01*
X14941Y272942D01*
X14802Y272892D01*
X14780Y272877D01*
X14755Y272868D01*
X14634Y272783D01*
X14509Y272703D01*
X14491Y272684D01*
X14469Y272669D01*
X14370Y272559D01*
X14267Y272452D01*
X14253Y272430D01*
X14236Y272410D01*
X14164Y272280D01*
X14088Y272153D01*
X14080Y272128D01*
X14067Y272105D01*
X14027Y271962D01*
X13982Y271821D01*
X13980Y271795D01*
X13972Y271770D01*
X13953Y271526D01*
X13953Y240277D01*
X13524Y240333D01*
X12078Y240721D01*
X12028Y240728D01*
X11979Y240744D01*
X11856Y240754D01*
X11734Y240772D01*
X11683Y240768D01*
X11632Y240772D01*
X11509Y240753D01*
X11386Y240743D01*
X11338Y240728D01*
X11287Y240720D01*
X11172Y240674D01*
X11054Y240637D01*
X11011Y240610D01*
X10963Y240591D01*
X10862Y240521D01*
X10756Y240457D01*
X10719Y240422D01*
X10677Y240392D01*
X10594Y240301D01*
X10505Y240215D01*
X10478Y240172D01*
X10444Y240134D01*
X10384Y240025D01*
X10317Y239921D01*
X10300Y239873D01*
X10275Y239829D01*
X10242Y239710D01*
X10200Y239593D01*
X10194Y239542D01*
X10180Y239493D01*
X10161Y239249D01*
X10161Y192551D01*
X10167Y192500D01*
X10164Y192449D01*
X10186Y192327D01*
X10201Y192204D01*
X10218Y192156D01*
X10227Y192106D01*
X10276Y191993D01*
X10318Y191876D01*
X10346Y191833D01*
X10366Y191787D01*
X10440Y191687D01*
X10507Y191583D01*
X10544Y191548D01*
X10574Y191507D01*
X10669Y191427D01*
X10758Y191341D01*
X10802Y191315D01*
X10841Y191282D01*
X10951Y191226D01*
X11057Y191162D01*
X11105Y191147D01*
X11151Y191124D01*
X11271Y191094D01*
X11389Y191056D01*
X11440Y191052D01*
X11489Y191040D01*
X11613Y191038D01*
X11736Y191028D01*
X11787Y191036D01*
X11838Y191035D01*
X12078Y191079D01*
X13524Y191467D01*
X13953Y191523D01*
X13953Y160274D01*
X13956Y160248D01*
X13954Y160222D01*
X13976Y160075D01*
X13993Y159928D01*
X14001Y159903D01*
X14005Y159877D01*
X14060Y159739D01*
X14110Y159600D01*
X14124Y159578D01*
X14134Y159553D01*
X14219Y159432D01*
X14299Y159307D01*
X14318Y159289D01*
X14333Y159267D01*
X14443Y159168D01*
X14550Y159065D01*
X14572Y159051D01*
X14592Y159034D01*
X14722Y158962D01*
X14849Y158886D01*
X14874Y158878D01*
X14897Y158865D01*
X15040Y158825D01*
X15181Y158780D01*
X15207Y158778D01*
X15232Y158771D01*
X15476Y158751D01*
X17001Y158751D01*
X17001Y158749D01*
X15476Y158749D01*
X15450Y158746D01*
X15424Y158748D01*
X15277Y158726D01*
X15130Y158709D01*
X15105Y158700D01*
X15079Y158697D01*
X14941Y158642D01*
X14802Y158592D01*
X14780Y158577D01*
X14755Y158568D01*
X14634Y158483D01*
X14509Y158403D01*
X14491Y158384D01*
X14469Y158369D01*
X14370Y158259D01*
X14267Y158152D01*
X14253Y158130D01*
X14236Y158110D01*
X14164Y157980D01*
X14088Y157853D01*
X14080Y157828D01*
X14067Y157805D01*
X14027Y157662D01*
X13982Y157521D01*
X13980Y157495D01*
X13972Y157470D01*
X13953Y157226D01*
X13953Y125977D01*
X13524Y126033D01*
X12078Y126421D01*
X12028Y126428D01*
X11979Y126444D01*
X11856Y126454D01*
X11734Y126472D01*
X11683Y126468D01*
X11632Y126472D01*
X11509Y126453D01*
X11386Y126443D01*
X11338Y126428D01*
X11287Y126420D01*
X11172Y126374D01*
X11054Y126337D01*
X11011Y126310D01*
X10963Y126291D01*
X10862Y126221D01*
X10756Y126157D01*
X10719Y126122D01*
X10677Y126092D01*
X10594Y126001D01*
X10505Y125915D01*
X10478Y125872D01*
X10444Y125834D01*
X10384Y125725D01*
X10317Y125621D01*
X10300Y125573D01*
X10275Y125529D01*
X10242Y125410D01*
X10200Y125293D01*
X10194Y125242D01*
X10180Y125193D01*
X10161Y124949D01*
X10161Y78251D01*
X10167Y78200D01*
X10164Y78149D01*
X10186Y78027D01*
X10201Y77904D01*
X10218Y77856D01*
X10227Y77806D01*
X10276Y77693D01*
X10318Y77576D01*
X10346Y77533D01*
X10366Y77487D01*
X10440Y77387D01*
X10507Y77283D01*
X10544Y77248D01*
X10574Y77207D01*
X10669Y77127D01*
X10758Y77041D01*
X10802Y77015D01*
X10841Y76982D01*
X10951Y76926D01*
X11057Y76862D01*
X11105Y76847D01*
X11151Y76824D01*
X11271Y76794D01*
X11389Y76756D01*
X11440Y76752D01*
X11489Y76740D01*
X11613Y76738D01*
X11736Y76728D01*
X11787Y76736D01*
X11838Y76735D01*
X12078Y76779D01*
X13524Y77167D01*
X13953Y77223D01*
X13953Y45974D01*
X13956Y45948D01*
X13954Y45922D01*
X13976Y45775D01*
X13993Y45628D01*
X14001Y45603D01*
X14005Y45577D01*
X14060Y45439D01*
X14110Y45300D01*
X14124Y45278D01*
X14134Y45253D01*
X14219Y45132D01*
X14299Y45007D01*
X14318Y44989D01*
X14333Y44967D01*
X14443Y44868D01*
X14550Y44765D01*
X14572Y44751D01*
X14592Y44734D01*
X14722Y44662D01*
X14849Y44586D01*
X14874Y44578D01*
X14897Y44565D01*
X15040Y44525D01*
X15181Y44480D01*
X15207Y44478D01*
X15232Y44471D01*
X15476Y44451D01*
X17001Y44451D01*
X17001Y42926D01*
X17004Y42900D01*
X17002Y42874D01*
X17024Y42727D01*
X17041Y42580D01*
X17050Y42555D01*
X17053Y42529D01*
X17108Y42391D01*
X17158Y42252D01*
X17173Y42230D01*
X17182Y42205D01*
X17267Y42084D01*
X17347Y41959D01*
X17366Y41941D01*
X17381Y41919D01*
X17491Y41820D01*
X17598Y41717D01*
X17620Y41703D01*
X17640Y41686D01*
X17770Y41614D01*
X17897Y41538D01*
X17922Y41530D01*
X17945Y41517D01*
X18088Y41477D01*
X18229Y41432D01*
X18255Y41430D01*
X18280Y41422D01*
X18524Y41403D01*
X34781Y41403D01*
X34781Y28045D01*
X34477Y25734D01*
X33873Y23482D01*
X32981Y21329D01*
X31816Y19310D01*
X31350Y18703D01*
X30397Y17461D01*
X28749Y15813D01*
X26900Y14394D01*
X24881Y13229D01*
X24549Y13091D01*
X24505Y13067D01*
X24458Y13050D01*
X24353Y12982D01*
X24245Y12922D01*
X24207Y12888D01*
X24165Y12861D01*
X24078Y12771D01*
X23986Y12688D01*
X23958Y12646D01*
X23923Y12610D01*
X23859Y12503D01*
X23788Y12401D01*
X23770Y12354D01*
X23744Y12311D01*
X23706Y12193D01*
X23660Y12077D01*
X23653Y12027D01*
X23638Y11979D01*
X23628Y11855D01*
X23610Y11732D01*
X23614Y11682D01*
X23610Y11632D01*
X23628Y11509D01*
X23639Y11385D01*
X23654Y11337D01*
X23661Y11287D01*
X23707Y11171D01*
X23746Y11053D01*
X23772Y11010D01*
X23790Y10963D01*
X23861Y10861D01*
X23925Y10755D01*
X23960Y10718D01*
X23989Y10677D01*
X24081Y10594D01*
X24168Y10505D01*
X24210Y10477D01*
X24248Y10444D01*
X24357Y10383D01*
X24461Y10316D01*
X24509Y10300D01*
X24553Y10275D01*
X24673Y10241D01*
X24790Y10200D01*
X24840Y10194D01*
X24888Y10180D01*
X25132Y10161D01*
X64523Y10161D01*
X64573Y10166D01*
G37*
G36*
X305942Y392007D02*
X305942Y392007D01*
X306016Y392008D01*
X306113Y392033D01*
X306213Y392047D01*
X306282Y392075D01*
X306354Y392093D01*
X306444Y392139D01*
X306537Y392176D01*
X306598Y392219D01*
X306664Y392253D01*
X306741Y392318D01*
X306823Y392375D01*
X306873Y392430D01*
X306929Y392479D01*
X306989Y392559D01*
X307056Y392634D01*
X307092Y392699D01*
X307137Y392759D01*
X307176Y392851D01*
X307225Y392939D01*
X307245Y393011D01*
X307275Y393079D01*
X307292Y393178D01*
X307320Y393274D01*
X307328Y393374D01*
X307336Y393422D01*
X307334Y393458D01*
X307339Y393518D01*
X307339Y622112D01*
X307328Y622212D01*
X307326Y622312D01*
X307308Y622384D01*
X307299Y622458D01*
X307266Y622553D01*
X307241Y622650D01*
X307207Y622716D01*
X307182Y622786D01*
X307127Y622871D01*
X307081Y622960D01*
X307033Y623017D01*
X306993Y623079D01*
X306921Y623149D01*
X306856Y623225D01*
X306796Y623270D01*
X306742Y623321D01*
X306656Y623373D01*
X306575Y623433D01*
X306507Y623462D01*
X306443Y623500D01*
X306347Y623531D01*
X306255Y623571D01*
X306182Y623584D01*
X306111Y623606D01*
X306011Y623615D01*
X305912Y623632D01*
X305838Y623628D01*
X305764Y623634D01*
X305664Y623620D01*
X305564Y623614D01*
X305493Y623594D01*
X305419Y623583D01*
X305326Y623546D01*
X305229Y623518D01*
X305164Y623481D01*
X305095Y623454D01*
X305013Y623397D01*
X304925Y623348D01*
X304849Y623282D01*
X304809Y623255D01*
X304785Y623229D01*
X304739Y623189D01*
X303309Y621759D01*
X300321Y620521D01*
X283879Y620521D01*
X280891Y621759D01*
X278605Y624045D01*
X277367Y627033D01*
X277367Y630267D01*
X278605Y633255D01*
X280891Y635541D01*
X283879Y636779D01*
X287528Y636779D01*
X287554Y636782D01*
X287580Y636780D01*
X287727Y636802D01*
X287874Y636819D01*
X287899Y636827D01*
X287925Y636831D01*
X288063Y636886D01*
X288202Y636936D01*
X288224Y636950D01*
X288249Y636960D01*
X288370Y637045D01*
X288495Y637125D01*
X288513Y637144D01*
X288535Y637159D01*
X288634Y637269D01*
X288737Y637376D01*
X288751Y637398D01*
X288768Y637418D01*
X288840Y637548D01*
X288916Y637675D01*
X288924Y637700D01*
X288937Y637723D01*
X288977Y637866D01*
X289022Y638007D01*
X289024Y638033D01*
X289032Y638058D01*
X289051Y638302D01*
X289051Y644398D01*
X289048Y644424D01*
X289050Y644450D01*
X289028Y644597D01*
X289011Y644744D01*
X289003Y644769D01*
X288999Y644795D01*
X288944Y644933D01*
X288894Y645072D01*
X288880Y645094D01*
X288870Y645119D01*
X288785Y645240D01*
X288705Y645365D01*
X288686Y645383D01*
X288671Y645405D01*
X288561Y645504D01*
X288454Y645607D01*
X288432Y645621D01*
X288412Y645638D01*
X288282Y645710D01*
X288155Y645786D01*
X288130Y645794D01*
X288107Y645807D01*
X287964Y645847D01*
X287823Y645892D01*
X287797Y645894D01*
X287772Y645902D01*
X287528Y645921D01*
X283879Y645921D01*
X280891Y647159D01*
X278605Y649445D01*
X277367Y652433D01*
X277367Y655667D01*
X278605Y658655D01*
X280891Y660941D01*
X283879Y662179D01*
X300321Y662179D01*
X303309Y660941D01*
X304739Y659511D01*
X304818Y659448D01*
X304890Y659379D01*
X304913Y659365D01*
X304931Y659348D01*
X304973Y659325D01*
X305012Y659294D01*
X305103Y659251D01*
X305189Y659200D01*
X305215Y659191D01*
X305236Y659180D01*
X305281Y659167D01*
X305327Y659145D01*
X305425Y659124D01*
X305521Y659094D01*
X305549Y659091D01*
X305572Y659085D01*
X305629Y659080D01*
X305668Y659072D01*
X305721Y659073D01*
X305815Y659065D01*
X305816Y659065D01*
X305839Y659068D01*
X305868Y659066D01*
X305942Y659077D01*
X306016Y659078D01*
X306092Y659097D01*
X306162Y659105D01*
X306184Y659113D01*
X306213Y659117D01*
X306282Y659145D01*
X306354Y659163D01*
X306424Y659199D01*
X306490Y659223D01*
X306510Y659235D01*
X306537Y659246D01*
X306598Y659288D01*
X306664Y659323D01*
X306723Y659373D01*
X306783Y659412D01*
X306800Y659429D01*
X306823Y659445D01*
X306873Y659500D01*
X306929Y659548D01*
X306975Y659611D01*
X307025Y659662D01*
X307038Y659683D01*
X307056Y659704D01*
X307092Y659769D01*
X307137Y659829D01*
X307167Y659899D01*
X307204Y659961D01*
X307212Y659985D01*
X307225Y660009D01*
X307245Y660080D01*
X307275Y660149D01*
X307288Y660223D01*
X307310Y660293D01*
X307312Y660319D01*
X307320Y660344D01*
X307328Y660444D01*
X307336Y660492D01*
X307334Y660527D01*
X307339Y660588D01*
X307339Y672912D01*
X307328Y673012D01*
X307326Y673112D01*
X307308Y673184D01*
X307299Y673258D01*
X307266Y673353D01*
X307241Y673450D01*
X307207Y673516D01*
X307182Y673586D01*
X307128Y673671D01*
X307081Y673760D01*
X307033Y673817D01*
X306993Y673879D01*
X306921Y673949D01*
X306856Y674025D01*
X306796Y674070D01*
X306742Y674121D01*
X306656Y674173D01*
X306575Y674233D01*
X306507Y674262D01*
X306443Y674300D01*
X306347Y674331D01*
X306255Y674371D01*
X306182Y674384D01*
X306111Y674406D01*
X306011Y674415D01*
X305912Y674432D01*
X305838Y674428D01*
X305764Y674434D01*
X305664Y674420D01*
X305564Y674414D01*
X305493Y674394D01*
X305419Y674383D01*
X305326Y674346D01*
X305229Y674318D01*
X305164Y674281D01*
X305095Y674254D01*
X305013Y674197D01*
X304925Y674148D01*
X304849Y674082D01*
X304809Y674055D01*
X304785Y674029D01*
X304739Y673989D01*
X303309Y672559D01*
X300321Y671321D01*
X283879Y671321D01*
X280891Y672559D01*
X278605Y674845D01*
X277367Y677833D01*
X277367Y681067D01*
X278605Y684055D01*
X280891Y686341D01*
X283879Y687579D01*
X300321Y687579D01*
X303309Y686341D01*
X304739Y684911D01*
X304818Y684848D01*
X304890Y684779D01*
X304954Y684740D01*
X305012Y684694D01*
X305103Y684651D01*
X305189Y684600D01*
X305260Y684577D01*
X305327Y684545D01*
X305425Y684524D01*
X305521Y684494D01*
X305595Y684488D01*
X305668Y684472D01*
X305768Y684474D01*
X305868Y684466D01*
X305942Y684477D01*
X306016Y684478D01*
X306113Y684502D01*
X306213Y684517D01*
X306282Y684545D01*
X306354Y684563D01*
X306443Y684609D01*
X306537Y684646D01*
X306598Y684688D01*
X306664Y684723D01*
X306740Y684788D01*
X306823Y684845D01*
X306873Y684900D01*
X306929Y684948D01*
X306989Y685029D01*
X307056Y685104D01*
X307092Y685169D01*
X307137Y685229D01*
X307176Y685321D01*
X307225Y685409D01*
X307245Y685480D01*
X307275Y685549D01*
X307292Y685647D01*
X307320Y685744D01*
X307328Y685844D01*
X307336Y685892D01*
X307334Y685927D01*
X307339Y685988D01*
X307339Y698312D01*
X307328Y698412D01*
X307326Y698512D01*
X307308Y698584D01*
X307299Y698658D01*
X307266Y698753D01*
X307241Y698850D01*
X307207Y698916D01*
X307182Y698986D01*
X307127Y699071D01*
X307081Y699160D01*
X307033Y699217D01*
X306993Y699279D01*
X306921Y699349D01*
X306856Y699425D01*
X306796Y699470D01*
X306742Y699521D01*
X306656Y699573D01*
X306575Y699633D01*
X306507Y699662D01*
X306443Y699700D01*
X306347Y699731D01*
X306255Y699771D01*
X306182Y699784D01*
X306111Y699806D01*
X306011Y699815D01*
X305912Y699832D01*
X305838Y699828D01*
X305764Y699834D01*
X305664Y699820D01*
X305564Y699814D01*
X305493Y699794D01*
X305419Y699783D01*
X305326Y699746D01*
X305229Y699718D01*
X305164Y699681D01*
X305095Y699654D01*
X305013Y699597D01*
X304925Y699548D01*
X304849Y699482D01*
X304809Y699455D01*
X304785Y699429D01*
X304739Y699389D01*
X303309Y697959D01*
X300321Y696721D01*
X283879Y696721D01*
X280891Y697959D01*
X278605Y700245D01*
X278560Y700353D01*
X278523Y700420D01*
X278495Y700491D01*
X278439Y700571D01*
X278391Y700658D01*
X278340Y700714D01*
X278296Y700777D01*
X278223Y700843D01*
X278157Y700916D01*
X278094Y700959D01*
X278037Y701010D01*
X277951Y701058D01*
X277870Y701114D01*
X277799Y701142D01*
X277732Y701179D01*
X277637Y701206D01*
X277546Y701242D01*
X277470Y701253D01*
X277397Y701274D01*
X277248Y701286D01*
X277201Y701293D01*
X277182Y701291D01*
X277153Y701293D01*
X271780Y701293D01*
X271754Y701290D01*
X271728Y701292D01*
X271581Y701270D01*
X271434Y701253D01*
X271409Y701245D01*
X271383Y701241D01*
X271245Y701186D01*
X271106Y701136D01*
X271084Y701122D01*
X271059Y701112D01*
X270938Y701027D01*
X270813Y700947D01*
X270795Y700928D01*
X270773Y700913D01*
X270674Y700803D01*
X270571Y700696D01*
X270557Y700674D01*
X270540Y700654D01*
X270468Y700524D01*
X270392Y700397D01*
X270384Y700372D01*
X270371Y700349D01*
X270331Y700206D01*
X270286Y700065D01*
X270284Y700039D01*
X270276Y700014D01*
X270257Y699770D01*
X270257Y604367D01*
X270268Y604267D01*
X270270Y604167D01*
X270288Y604094D01*
X270297Y604021D01*
X270330Y603926D01*
X270355Y603829D01*
X270389Y603762D01*
X270414Y603692D01*
X270469Y603608D01*
X270515Y603519D01*
X270563Y603462D01*
X270603Y603400D01*
X270675Y603330D01*
X270740Y603253D01*
X270800Y603209D01*
X270854Y603157D01*
X270940Y603106D01*
X271021Y603046D01*
X271089Y603017D01*
X271153Y602979D01*
X271249Y602948D01*
X271341Y602908D01*
X271414Y602895D01*
X271485Y602872D01*
X271585Y602864D01*
X271684Y602847D01*
X271758Y602850D01*
X271832Y602844D01*
X271932Y602859D01*
X272032Y602864D01*
X272103Y602885D01*
X272177Y602896D01*
X272270Y602933D01*
X272367Y602961D01*
X272432Y602997D01*
X272501Y603025D01*
X272583Y603082D01*
X272671Y603131D01*
X272747Y603196D01*
X272787Y603224D01*
X272811Y603250D01*
X272857Y603290D01*
X275612Y606045D01*
X277369Y606045D01*
X277369Y597408D01*
X277372Y597382D01*
X277370Y597356D01*
X277392Y597209D01*
X277409Y597062D01*
X277417Y597037D01*
X277421Y597011D01*
X277464Y596904D01*
X277443Y596828D01*
X277398Y596687D01*
X277395Y596661D01*
X277388Y596636D01*
X277369Y596392D01*
X277369Y587755D01*
X275612Y587755D01*
X272857Y590510D01*
X272779Y590573D01*
X272706Y590643D01*
X272642Y590681D01*
X272584Y590727D01*
X272493Y590770D01*
X272407Y590821D01*
X272336Y590844D01*
X272269Y590876D01*
X272171Y590897D01*
X272075Y590928D01*
X272001Y590934D01*
X271928Y590949D01*
X271828Y590948D01*
X271728Y590956D01*
X271654Y590945D01*
X271580Y590943D01*
X271483Y590919D01*
X271383Y590904D01*
X271314Y590876D01*
X271242Y590858D01*
X271153Y590812D01*
X271059Y590775D01*
X270998Y590733D01*
X270932Y590699D01*
X270856Y590634D01*
X270773Y590576D01*
X270723Y590521D01*
X270667Y590473D01*
X270607Y590392D01*
X270540Y590317D01*
X270504Y590252D01*
X270459Y590193D01*
X270420Y590100D01*
X270371Y590012D01*
X270351Y589941D01*
X270321Y589873D01*
X270304Y589774D01*
X270276Y589677D01*
X270268Y589577D01*
X270260Y589529D01*
X270262Y589494D01*
X270257Y589433D01*
X270257Y522804D01*
X270271Y522679D01*
X270278Y522552D01*
X270291Y522506D01*
X270297Y522458D01*
X270339Y522339D01*
X270374Y522218D01*
X270398Y522175D01*
X270414Y522130D01*
X270483Y522024D01*
X270544Y521913D01*
X270584Y521867D01*
X270603Y521837D01*
X270638Y521803D01*
X270703Y521727D01*
X281296Y511134D01*
X281356Y511086D01*
X281409Y511031D01*
X281492Y510978D01*
X281569Y510917D01*
X281638Y510884D01*
X281703Y510843D01*
X281795Y510810D01*
X281884Y510768D01*
X281959Y510752D01*
X282031Y510726D01*
X282129Y510715D01*
X282225Y510695D01*
X282301Y510696D01*
X282378Y510687D01*
X282475Y510699D01*
X282574Y510701D01*
X282648Y510719D01*
X282724Y510728D01*
X282866Y510774D01*
X282912Y510786D01*
X282929Y510794D01*
X282956Y510803D01*
X283855Y511176D01*
X287645Y511176D01*
X291146Y509726D01*
X293826Y507046D01*
X295276Y503545D01*
X295276Y499755D01*
X293826Y496254D01*
X291146Y493574D01*
X287645Y492124D01*
X283855Y492124D01*
X280354Y493574D01*
X277674Y496254D01*
X276224Y499755D01*
X276224Y503545D01*
X276597Y504444D01*
X276618Y504517D01*
X276648Y504587D01*
X276665Y504684D01*
X276692Y504779D01*
X276696Y504855D01*
X276710Y504930D01*
X276704Y505029D01*
X276709Y505127D01*
X276696Y505202D01*
X276692Y505278D01*
X276664Y505373D01*
X276647Y505470D01*
X276616Y505540D01*
X276595Y505613D01*
X276547Y505699D01*
X276508Y505789D01*
X276462Y505851D01*
X276425Y505917D01*
X276328Y506031D01*
X276300Y506069D01*
X276285Y506081D01*
X276266Y506104D01*
X263143Y519227D01*
X263143Y801573D01*
X270825Y809255D01*
X270904Y809354D01*
X270988Y809448D01*
X271012Y809490D01*
X271042Y809528D01*
X271096Y809642D01*
X271157Y809753D01*
X271170Y809800D01*
X271191Y809843D01*
X271217Y809967D01*
X271252Y810088D01*
X271257Y810149D01*
X271264Y810184D01*
X271263Y810232D01*
X271271Y810332D01*
X271271Y816167D01*
X276033Y820929D01*
X282767Y820929D01*
X287529Y816167D01*
X287529Y809433D01*
X282767Y804671D01*
X276932Y804671D01*
X276807Y804657D01*
X276680Y804650D01*
X276634Y804637D01*
X276586Y804631D01*
X276467Y804589D01*
X276346Y804554D01*
X276303Y804530D01*
X276258Y804514D01*
X276152Y804445D01*
X276041Y804384D01*
X275995Y804344D01*
X275965Y804325D01*
X275932Y804290D01*
X275855Y804225D01*
X270703Y799073D01*
X270624Y798974D01*
X270540Y798880D01*
X270516Y798838D01*
X270486Y798800D01*
X270432Y798686D01*
X270371Y798575D01*
X270358Y798528D01*
X270337Y798485D01*
X270311Y798361D01*
X270276Y798240D01*
X270271Y798179D01*
X270264Y798144D01*
X270265Y798096D01*
X270257Y797996D01*
X270257Y709930D01*
X270260Y709904D01*
X270258Y709878D01*
X270280Y709731D01*
X270297Y709584D01*
X270305Y709559D01*
X270309Y709533D01*
X270364Y709395D01*
X270414Y709256D01*
X270428Y709234D01*
X270438Y709209D01*
X270523Y709088D01*
X270603Y708963D01*
X270622Y708945D01*
X270637Y708923D01*
X270747Y708824D01*
X270854Y708721D01*
X270876Y708707D01*
X270896Y708690D01*
X271026Y708618D01*
X271153Y708542D01*
X271178Y708534D01*
X271201Y708521D01*
X271344Y708481D01*
X271485Y708436D01*
X271511Y708434D01*
X271536Y708426D01*
X271780Y708407D01*
X277153Y708407D01*
X277229Y708415D01*
X277305Y708414D01*
X277402Y708435D01*
X277499Y708447D01*
X277571Y708472D01*
X277646Y708489D01*
X277735Y708531D01*
X277827Y708564D01*
X277892Y708606D01*
X277961Y708638D01*
X278037Y708700D01*
X278120Y708753D01*
X278173Y708808D01*
X278233Y708856D01*
X278294Y708933D01*
X278362Y709004D01*
X278402Y709069D01*
X278449Y709129D01*
X278517Y709262D01*
X278541Y709303D01*
X278547Y709321D01*
X278560Y709347D01*
X278605Y709455D01*
X280891Y711741D01*
X283879Y712979D01*
X300321Y712979D01*
X303309Y711741D01*
X304739Y710311D01*
X304818Y710248D01*
X304890Y710179D01*
X304954Y710140D01*
X305012Y710094D01*
X305103Y710051D01*
X305189Y710000D01*
X305260Y709977D01*
X305327Y709945D01*
X305425Y709924D01*
X305521Y709894D01*
X305595Y709888D01*
X305668Y709872D01*
X305768Y709874D01*
X305868Y709866D01*
X305942Y709877D01*
X306016Y709878D01*
X306113Y709902D01*
X306213Y709917D01*
X306282Y709945D01*
X306354Y709963D01*
X306443Y710009D01*
X306537Y710046D01*
X306598Y710088D01*
X306664Y710123D01*
X306740Y710188D01*
X306823Y710245D01*
X306873Y710300D01*
X306929Y710348D01*
X306989Y710429D01*
X307056Y710504D01*
X307092Y710569D01*
X307137Y710629D01*
X307176Y710721D01*
X307225Y710809D01*
X307245Y710880D01*
X307275Y710949D01*
X307292Y711047D01*
X307320Y711144D01*
X307328Y711244D01*
X307336Y711292D01*
X307334Y711327D01*
X307339Y711388D01*
X307339Y723712D01*
X307328Y723812D01*
X307326Y723912D01*
X307308Y723984D01*
X307299Y724058D01*
X307266Y724153D01*
X307241Y724250D01*
X307207Y724316D01*
X307182Y724386D01*
X307127Y724471D01*
X307081Y724560D01*
X307033Y724617D01*
X306993Y724679D01*
X306921Y724749D01*
X306856Y724825D01*
X306796Y724870D01*
X306742Y724921D01*
X306656Y724973D01*
X306575Y725033D01*
X306507Y725062D01*
X306443Y725100D01*
X306347Y725131D01*
X306255Y725171D01*
X306182Y725184D01*
X306111Y725206D01*
X306011Y725215D01*
X305912Y725232D01*
X305838Y725228D01*
X305764Y725234D01*
X305664Y725220D01*
X305564Y725214D01*
X305493Y725194D01*
X305419Y725183D01*
X305326Y725146D01*
X305229Y725118D01*
X305164Y725081D01*
X305095Y725054D01*
X305013Y724997D01*
X304925Y724948D01*
X304849Y724882D01*
X304809Y724855D01*
X304785Y724829D01*
X304739Y724789D01*
X303309Y723359D01*
X300321Y722121D01*
X283879Y722121D01*
X280891Y723359D01*
X278605Y725645D01*
X277367Y728633D01*
X277367Y731867D01*
X278605Y734855D01*
X280891Y737141D01*
X283879Y738379D01*
X300321Y738379D01*
X303309Y737141D01*
X304739Y735711D01*
X304818Y735648D01*
X304890Y735579D01*
X304954Y735540D01*
X305012Y735494D01*
X305103Y735451D01*
X305189Y735400D01*
X305260Y735377D01*
X305327Y735345D01*
X305425Y735324D01*
X305521Y735294D01*
X305595Y735288D01*
X305668Y735272D01*
X305768Y735274D01*
X305868Y735266D01*
X305942Y735277D01*
X306016Y735278D01*
X306113Y735302D01*
X306213Y735317D01*
X306282Y735345D01*
X306354Y735363D01*
X306443Y735409D01*
X306537Y735446D01*
X306598Y735488D01*
X306664Y735523D01*
X306740Y735588D01*
X306823Y735645D01*
X306873Y735700D01*
X306929Y735748D01*
X306989Y735829D01*
X307056Y735904D01*
X307092Y735969D01*
X307137Y736029D01*
X307176Y736121D01*
X307225Y736209D01*
X307245Y736280D01*
X307275Y736349D01*
X307292Y736447D01*
X307320Y736544D01*
X307328Y736644D01*
X307336Y736692D01*
X307334Y736727D01*
X307339Y736788D01*
X307339Y749112D01*
X307328Y749212D01*
X307326Y749312D01*
X307308Y749384D01*
X307299Y749458D01*
X307266Y749553D01*
X307241Y749650D01*
X307207Y749716D01*
X307182Y749786D01*
X307127Y749871D01*
X307081Y749960D01*
X307033Y750017D01*
X306993Y750079D01*
X306921Y750149D01*
X306856Y750225D01*
X306796Y750270D01*
X306742Y750321D01*
X306656Y750373D01*
X306575Y750433D01*
X306507Y750462D01*
X306443Y750500D01*
X306347Y750531D01*
X306255Y750571D01*
X306182Y750584D01*
X306111Y750606D01*
X306011Y750615D01*
X305912Y750632D01*
X305838Y750628D01*
X305764Y750634D01*
X305664Y750620D01*
X305564Y750614D01*
X305493Y750594D01*
X305419Y750583D01*
X305326Y750546D01*
X305229Y750518D01*
X305164Y750481D01*
X305095Y750454D01*
X305013Y750397D01*
X304925Y750348D01*
X304849Y750282D01*
X304809Y750255D01*
X304785Y750229D01*
X304739Y750189D01*
X303309Y748759D01*
X300321Y747521D01*
X283879Y747521D01*
X280891Y748759D01*
X278605Y751045D01*
X277367Y754033D01*
X277367Y757267D01*
X278605Y760255D01*
X280891Y762541D01*
X283879Y763779D01*
X287528Y763779D01*
X287554Y763782D01*
X287580Y763780D01*
X287727Y763802D01*
X287874Y763819D01*
X287899Y763827D01*
X287925Y763831D01*
X288063Y763886D01*
X288202Y763936D01*
X288224Y763950D01*
X288249Y763960D01*
X288370Y764045D01*
X288495Y764125D01*
X288513Y764144D01*
X288535Y764159D01*
X288634Y764269D01*
X288737Y764376D01*
X288751Y764398D01*
X288768Y764418D01*
X288840Y764548D01*
X288916Y764675D01*
X288924Y764700D01*
X288937Y764723D01*
X288977Y764866D01*
X289022Y765007D01*
X289024Y765033D01*
X289032Y765058D01*
X289051Y765302D01*
X289051Y771398D01*
X289048Y771424D01*
X289050Y771450D01*
X289028Y771597D01*
X289011Y771744D01*
X289003Y771769D01*
X288999Y771795D01*
X288944Y771933D01*
X288894Y772072D01*
X288880Y772094D01*
X288870Y772119D01*
X288785Y772240D01*
X288705Y772365D01*
X288686Y772383D01*
X288671Y772405D01*
X288561Y772504D01*
X288454Y772607D01*
X288432Y772621D01*
X288412Y772638D01*
X288282Y772710D01*
X288155Y772786D01*
X288130Y772794D01*
X288107Y772807D01*
X287964Y772847D01*
X287823Y772892D01*
X287797Y772894D01*
X287772Y772902D01*
X287528Y772921D01*
X283879Y772921D01*
X280891Y774159D01*
X278605Y776445D01*
X277367Y779433D01*
X277367Y782667D01*
X278605Y785655D01*
X280891Y787941D01*
X283879Y789179D01*
X300321Y789179D01*
X303309Y787941D01*
X304739Y786511D01*
X304818Y786448D01*
X304890Y786379D01*
X304954Y786340D01*
X305012Y786294D01*
X305103Y786251D01*
X305189Y786200D01*
X305260Y786177D01*
X305327Y786145D01*
X305425Y786124D01*
X305521Y786094D01*
X305595Y786088D01*
X305668Y786072D01*
X305768Y786074D01*
X305868Y786066D01*
X305942Y786077D01*
X306016Y786078D01*
X306113Y786102D01*
X306213Y786117D01*
X306282Y786145D01*
X306354Y786163D01*
X306443Y786209D01*
X306537Y786246D01*
X306598Y786288D01*
X306664Y786323D01*
X306740Y786388D01*
X306823Y786445D01*
X306873Y786500D01*
X306929Y786548D01*
X306989Y786629D01*
X307056Y786704D01*
X307092Y786769D01*
X307137Y786829D01*
X307176Y786921D01*
X307225Y787009D01*
X307245Y787080D01*
X307275Y787149D01*
X307292Y787247D01*
X307320Y787344D01*
X307328Y787444D01*
X307336Y787492D01*
X307334Y787527D01*
X307339Y787588D01*
X307339Y915412D01*
X307336Y915439D01*
X307338Y915465D01*
X307316Y915612D01*
X307299Y915759D01*
X307290Y915783D01*
X307287Y915810D01*
X307232Y915947D01*
X307182Y916087D01*
X307168Y916109D01*
X307158Y916133D01*
X307073Y916255D01*
X306993Y916379D01*
X306974Y916398D01*
X306959Y916420D01*
X306849Y916519D01*
X306742Y916622D01*
X306720Y916635D01*
X306700Y916653D01*
X306570Y916725D01*
X306443Y916800D01*
X306418Y916809D01*
X306395Y916821D01*
X306252Y916862D01*
X306111Y916907D01*
X306085Y916909D01*
X306059Y916916D01*
X305816Y916936D01*
X133617Y916881D01*
X133567Y916876D01*
X133517Y916878D01*
X133394Y916856D01*
X133270Y916841D01*
X133223Y916824D01*
X133174Y916815D01*
X133059Y916766D01*
X132942Y916724D01*
X132900Y916697D01*
X132854Y916677D01*
X132754Y916602D01*
X132650Y916535D01*
X132615Y916499D01*
X132574Y916469D01*
X132494Y916374D01*
X132407Y916284D01*
X132382Y916241D01*
X132349Y916203D01*
X132293Y916092D01*
X132229Y915985D01*
X132213Y915937D01*
X132191Y915892D01*
X132161Y915772D01*
X132123Y915653D01*
X132119Y915603D01*
X132106Y915554D01*
X132105Y915430D01*
X132095Y915305D01*
X132102Y915256D01*
X132101Y915206D01*
X132128Y915084D01*
X132146Y914961D01*
X132165Y914914D01*
X132176Y914865D01*
X132229Y914753D01*
X132275Y914637D01*
X132304Y914596D01*
X132325Y914551D01*
X132403Y914453D01*
X132474Y914351D01*
X132512Y914317D01*
X132543Y914278D01*
X132640Y914201D01*
X132733Y914117D01*
X132777Y914093D01*
X132816Y914062D01*
X133034Y913951D01*
X137497Y912102D01*
X142212Y907387D01*
X144765Y901225D01*
X144765Y864075D01*
X142212Y857913D01*
X137497Y853198D01*
X131335Y850645D01*
X124665Y850645D01*
X118503Y853198D01*
X113788Y857913D01*
X111235Y864075D01*
X111235Y901225D01*
X113788Y907387D01*
X118503Y912102D01*
X122957Y913947D01*
X123002Y913972D01*
X123049Y913989D01*
X123153Y914056D01*
X123262Y914117D01*
X123299Y914151D01*
X123342Y914178D01*
X123428Y914267D01*
X123520Y914351D01*
X123549Y914392D01*
X123584Y914429D01*
X123648Y914535D01*
X123718Y914637D01*
X123737Y914684D01*
X123763Y914728D01*
X123801Y914846D01*
X123846Y914962D01*
X123853Y915012D01*
X123869Y915060D01*
X123879Y915184D01*
X123897Y915306D01*
X123893Y915357D01*
X123897Y915407D01*
X123878Y915530D01*
X123868Y915654D01*
X123852Y915702D01*
X123845Y915752D01*
X123799Y915867D01*
X123761Y915985D01*
X123735Y916029D01*
X123716Y916076D01*
X123645Y916178D01*
X123581Y916284D01*
X123546Y916320D01*
X123517Y916362D01*
X123425Y916445D01*
X123338Y916534D01*
X123296Y916561D01*
X123258Y916595D01*
X123150Y916655D01*
X123045Y916722D01*
X122997Y916739D01*
X122953Y916764D01*
X122834Y916797D01*
X122717Y916839D01*
X122666Y916845D01*
X122618Y916858D01*
X122374Y916878D01*
X122370Y916878D01*
X75661Y916863D01*
X75611Y916857D01*
X75561Y916860D01*
X75438Y916837D01*
X75314Y916823D01*
X75267Y916806D01*
X75218Y916797D01*
X75104Y916748D01*
X74986Y916706D01*
X74944Y916678D01*
X74898Y916658D01*
X74798Y916584D01*
X74694Y916516D01*
X74659Y916480D01*
X74619Y916450D01*
X74538Y916355D01*
X74451Y916266D01*
X74426Y916223D01*
X74393Y916184D01*
X74337Y916074D01*
X74273Y915967D01*
X74257Y915919D01*
X74235Y915874D01*
X74205Y915754D01*
X74167Y915635D01*
X74163Y915585D01*
X74151Y915536D01*
X74149Y915411D01*
X74139Y915287D01*
X74146Y915238D01*
X74145Y915188D01*
X74172Y915066D01*
X74191Y914943D01*
X74209Y914896D01*
X74220Y914847D01*
X74273Y914735D01*
X74319Y914619D01*
X74348Y914578D01*
X74370Y914532D01*
X74447Y914435D01*
X74518Y914333D01*
X74556Y914299D01*
X74587Y914260D01*
X74685Y914183D01*
X74777Y914099D01*
X74821Y914075D01*
X74860Y914044D01*
X75078Y913933D01*
X79497Y912102D01*
X84212Y907387D01*
X86765Y901225D01*
X86765Y864075D01*
X84212Y857914D01*
X83182Y856883D01*
X83166Y856863D01*
X83146Y856846D01*
X83058Y856727D01*
X82966Y856610D01*
X82955Y856587D01*
X82939Y856566D01*
X82880Y856429D01*
X82817Y856295D01*
X82811Y856270D01*
X82801Y856246D01*
X82775Y856099D01*
X82743Y855955D01*
X82744Y855929D01*
X82739Y855903D01*
X82747Y855754D01*
X82749Y855606D01*
X82756Y855581D01*
X82757Y855555D01*
X82798Y855412D01*
X82834Y855268D01*
X82846Y855245D01*
X82854Y855220D01*
X82926Y855090D01*
X82994Y854958D01*
X83011Y854938D01*
X83024Y854915D01*
X83182Y854729D01*
X96217Y841695D01*
X96316Y841616D01*
X96410Y841532D01*
X96452Y841508D01*
X96490Y841478D01*
X96604Y841424D01*
X96715Y841363D01*
X96761Y841350D01*
X96805Y841329D01*
X96928Y841303D01*
X97050Y841268D01*
X97111Y841263D01*
X97146Y841256D01*
X97194Y841257D01*
X97294Y841249D01*
X168722Y841249D01*
X168848Y841263D01*
X168974Y841270D01*
X169020Y841283D01*
X169068Y841289D01*
X169187Y841331D01*
X169309Y841366D01*
X169351Y841390D01*
X169396Y841406D01*
X169503Y841475D01*
X169613Y841536D01*
X169659Y841576D01*
X169689Y841595D01*
X169723Y841630D01*
X169799Y841695D01*
X174433Y846329D01*
X181167Y846329D01*
X185801Y841695D01*
X185900Y841616D01*
X185994Y841532D01*
X186036Y841508D01*
X186074Y841478D01*
X186188Y841424D01*
X186299Y841363D01*
X186345Y841350D01*
X186389Y841329D01*
X186512Y841303D01*
X186634Y841268D01*
X186695Y841263D01*
X186730Y841256D01*
X186778Y841257D01*
X186878Y841249D01*
X236213Y841249D01*
X257049Y820413D01*
X257049Y735337D01*
X257063Y735211D01*
X257070Y735085D01*
X257083Y735039D01*
X257089Y734991D01*
X257131Y734872D01*
X257166Y734750D01*
X257190Y734708D01*
X257206Y734663D01*
X257275Y734557D01*
X257336Y734446D01*
X257376Y734400D01*
X257395Y734370D01*
X257430Y734336D01*
X257495Y734260D01*
X258499Y733256D01*
X259307Y731306D01*
X259307Y729194D01*
X258499Y727244D01*
X257495Y726240D01*
X257416Y726141D01*
X257332Y726047D01*
X257308Y726005D01*
X257278Y725967D01*
X257224Y725853D01*
X257163Y725742D01*
X257150Y725696D01*
X257129Y725652D01*
X257103Y725529D01*
X257068Y725407D01*
X257063Y725346D01*
X257056Y725311D01*
X257057Y725263D01*
X257049Y725163D01*
X257049Y684537D01*
X257063Y684411D01*
X257070Y684285D01*
X257083Y684239D01*
X257089Y684191D01*
X257131Y684072D01*
X257166Y683950D01*
X257190Y683908D01*
X257206Y683863D01*
X257275Y683757D01*
X257336Y683646D01*
X257376Y683600D01*
X257395Y683570D01*
X257430Y683536D01*
X257495Y683460D01*
X258499Y682456D01*
X259307Y680506D01*
X259307Y678394D01*
X258499Y676444D01*
X257495Y675440D01*
X257416Y675341D01*
X257332Y675247D01*
X257308Y675205D01*
X257278Y675167D01*
X257224Y675053D01*
X257163Y674942D01*
X257150Y674896D01*
X257129Y674852D01*
X257103Y674729D01*
X257068Y674607D01*
X257063Y674546D01*
X257056Y674511D01*
X257057Y674463D01*
X257049Y674363D01*
X257049Y538487D01*
X257063Y538361D01*
X257070Y538235D01*
X257083Y538189D01*
X257089Y538141D01*
X257131Y538022D01*
X257166Y537900D01*
X257190Y537858D01*
X257206Y537813D01*
X257275Y537707D01*
X257336Y537596D01*
X257376Y537550D01*
X257395Y537520D01*
X257430Y537486D01*
X257495Y537410D01*
X258499Y536406D01*
X259307Y534456D01*
X259307Y532344D01*
X258499Y530394D01*
X257006Y528901D01*
X255056Y528093D01*
X252944Y528093D01*
X250994Y528901D01*
X249501Y530394D01*
X248693Y532344D01*
X248693Y534456D01*
X249501Y536406D01*
X250505Y537410D01*
X250584Y537509D01*
X250668Y537603D01*
X250692Y537645D01*
X250722Y537683D01*
X250776Y537797D01*
X250837Y537908D01*
X250850Y537954D01*
X250871Y537998D01*
X250897Y538121D01*
X250932Y538243D01*
X250937Y538304D01*
X250944Y538339D01*
X250943Y538387D01*
X250951Y538487D01*
X250951Y674363D01*
X250937Y674489D01*
X250930Y674615D01*
X250917Y674661D01*
X250911Y674709D01*
X250869Y674828D01*
X250834Y674950D01*
X250810Y674992D01*
X250794Y675037D01*
X250725Y675143D01*
X250664Y675254D01*
X250624Y675300D01*
X250605Y675330D01*
X250570Y675364D01*
X250505Y675440D01*
X249501Y676444D01*
X248693Y678394D01*
X248693Y680506D01*
X249501Y682456D01*
X250505Y683460D01*
X250584Y683559D01*
X250668Y683653D01*
X250692Y683695D01*
X250722Y683733D01*
X250776Y683847D01*
X250837Y683958D01*
X250850Y684004D01*
X250871Y684048D01*
X250897Y684171D01*
X250932Y684293D01*
X250937Y684354D01*
X250944Y684389D01*
X250943Y684437D01*
X250951Y684537D01*
X250951Y725163D01*
X250937Y725289D01*
X250930Y725415D01*
X250917Y725461D01*
X250911Y725509D01*
X250869Y725628D01*
X250834Y725750D01*
X250810Y725792D01*
X250794Y725837D01*
X250725Y725943D01*
X250664Y726054D01*
X250624Y726100D01*
X250605Y726130D01*
X250570Y726164D01*
X250505Y726240D01*
X249990Y726755D01*
X249891Y726834D01*
X249797Y726918D01*
X249755Y726942D01*
X249717Y726972D01*
X249603Y727026D01*
X249492Y727087D01*
X249446Y727100D01*
X249402Y727121D01*
X249279Y727147D01*
X249157Y727182D01*
X249096Y727187D01*
X249061Y727194D01*
X249013Y727193D01*
X248913Y727201D01*
X231057Y727201D01*
X230982Y727193D01*
X230905Y727194D01*
X230809Y727173D01*
X230711Y727161D01*
X230639Y727136D01*
X230565Y727119D01*
X230476Y727077D01*
X230383Y727044D01*
X230319Y727002D01*
X230250Y726970D01*
X230173Y726908D01*
X230090Y726855D01*
X230037Y726800D01*
X229977Y726752D01*
X229917Y726675D01*
X229848Y726604D01*
X229809Y726539D01*
X229762Y726479D01*
X229693Y726345D01*
X229669Y726305D01*
X229664Y726287D01*
X229650Y726261D01*
X229395Y725645D01*
X227109Y723359D01*
X224121Y722121D01*
X207679Y722121D01*
X204691Y723359D01*
X202499Y725551D01*
X202421Y725614D01*
X202348Y725683D01*
X202284Y725722D01*
X202226Y725768D01*
X202135Y725811D01*
X202049Y725862D01*
X201978Y725885D01*
X201911Y725917D01*
X201813Y725938D01*
X201717Y725968D01*
X201643Y725974D01*
X201570Y725990D01*
X201470Y725988D01*
X201370Y725996D01*
X201296Y725985D01*
X201222Y725984D01*
X201125Y725960D01*
X201025Y725945D01*
X200956Y725917D01*
X200884Y725899D01*
X200795Y725853D01*
X200701Y725816D01*
X200640Y725774D01*
X200574Y725739D01*
X200498Y725674D01*
X200415Y725617D01*
X200365Y725562D01*
X200309Y725514D01*
X200249Y725433D01*
X200182Y725358D01*
X200146Y725293D01*
X200101Y725233D01*
X200062Y725141D01*
X200013Y725053D01*
X199993Y724982D01*
X199963Y724913D01*
X199946Y724815D01*
X199918Y724718D01*
X199910Y724618D01*
X199902Y724570D01*
X199904Y724535D01*
X199899Y724474D01*
X199899Y710626D01*
X199910Y710526D01*
X199912Y710426D01*
X199930Y710354D01*
X199939Y710280D01*
X199972Y710185D01*
X199997Y710088D01*
X200031Y710022D01*
X200056Y709952D01*
X200111Y709867D01*
X200157Y709778D01*
X200205Y709721D01*
X200245Y709659D01*
X200317Y709589D01*
X200382Y709513D01*
X200442Y709468D01*
X200496Y709417D01*
X200582Y709365D01*
X200663Y709305D01*
X200731Y709276D01*
X200795Y709238D01*
X200891Y709207D01*
X200983Y709167D01*
X201056Y709154D01*
X201127Y709132D01*
X201227Y709123D01*
X201326Y709106D01*
X201400Y709110D01*
X201474Y709104D01*
X201574Y709118D01*
X201674Y709124D01*
X201745Y709144D01*
X201819Y709155D01*
X201912Y709192D01*
X202009Y709220D01*
X202074Y709257D01*
X202143Y709284D01*
X202225Y709341D01*
X202313Y709390D01*
X202389Y709455D01*
X202429Y709483D01*
X202453Y709509D01*
X202499Y709549D01*
X204691Y711741D01*
X207679Y712979D01*
X224121Y712979D01*
X227109Y711741D01*
X229395Y709455D01*
X229541Y709103D01*
X229542Y709101D01*
X229542Y709099D01*
X229627Y708949D01*
X229710Y708799D01*
X229711Y708797D01*
X229712Y708795D01*
X229871Y708609D01*
X232603Y705877D01*
X244857Y693623D01*
X244857Y422038D01*
X244871Y421913D01*
X244878Y421787D01*
X244891Y421740D01*
X244897Y421692D01*
X244939Y421573D01*
X244974Y421452D01*
X244998Y421410D01*
X245014Y421364D01*
X245083Y421258D01*
X245144Y421148D01*
X245184Y421101D01*
X245203Y421071D01*
X245238Y421038D01*
X245303Y420961D01*
X249511Y416753D01*
X249610Y416674D01*
X249704Y416590D01*
X249746Y416566D01*
X249784Y416536D01*
X249898Y416482D01*
X250009Y416421D01*
X250056Y416408D01*
X250099Y416387D01*
X250223Y416361D01*
X250345Y416326D01*
X250405Y416321D01*
X250440Y416314D01*
X250488Y416315D01*
X250588Y416307D01*
X257412Y416307D01*
X257537Y416321D01*
X257663Y416328D01*
X257710Y416341D01*
X257758Y416347D01*
X257877Y416389D01*
X257998Y416424D01*
X258041Y416448D01*
X258086Y416464D01*
X258192Y416533D01*
X258302Y416594D01*
X258349Y416634D01*
X258379Y416653D01*
X258412Y416688D01*
X258489Y416753D01*
X263123Y421387D01*
X270277Y421387D01*
X274911Y416753D01*
X275010Y416674D01*
X275104Y416590D01*
X275146Y416566D01*
X275184Y416536D01*
X275298Y416482D01*
X275409Y416421D01*
X275456Y416408D01*
X275499Y416387D01*
X275623Y416361D01*
X275745Y416326D01*
X275805Y416321D01*
X275840Y416314D01*
X275888Y416315D01*
X275988Y416307D01*
X280873Y416307D01*
X283403Y413777D01*
X304739Y392441D01*
X304817Y392379D01*
X304890Y392309D01*
X304954Y392271D01*
X305012Y392224D01*
X305103Y392182D01*
X305189Y392130D01*
X305260Y392107D01*
X305327Y392076D01*
X305425Y392054D01*
X305521Y392024D01*
X305595Y392018D01*
X305668Y392002D01*
X305768Y392004D01*
X305868Y391996D01*
X305942Y392007D01*
G37*
%LPC*%
G36*
X66665Y622045D02*
X66665Y622045D01*
X60503Y624598D01*
X55788Y629313D01*
X53235Y635475D01*
X53235Y672625D01*
X55788Y678787D01*
X60503Y683502D01*
X66665Y686055D01*
X73335Y686055D01*
X76042Y684933D01*
X76115Y684912D01*
X76186Y684882D01*
X76282Y684865D01*
X76377Y684838D01*
X76453Y684834D01*
X76529Y684820D01*
X76627Y684825D01*
X76725Y684821D01*
X76800Y684834D01*
X76877Y684838D01*
X76971Y684866D01*
X77068Y684883D01*
X77138Y684914D01*
X77212Y684935D01*
X77297Y684983D01*
X77388Y685022D01*
X77449Y685068D01*
X77516Y685105D01*
X77629Y685202D01*
X77667Y685230D01*
X77680Y685245D01*
X77702Y685264D01*
X91755Y699317D01*
X93987Y701549D01*
X156856Y701549D01*
X156982Y701563D01*
X157108Y701570D01*
X157154Y701583D01*
X157202Y701589D01*
X157321Y701631D01*
X157443Y701666D01*
X157485Y701690D01*
X157531Y701706D01*
X157637Y701775D01*
X157747Y701836D01*
X157793Y701876D01*
X157823Y701895D01*
X157857Y701930D01*
X157933Y701995D01*
X169225Y713287D01*
X169304Y713386D01*
X169388Y713480D01*
X169412Y713522D01*
X169442Y713560D01*
X169496Y713674D01*
X169557Y713785D01*
X169570Y713831D01*
X169591Y713875D01*
X169617Y713998D01*
X169652Y714120D01*
X169657Y714181D01*
X169664Y714215D01*
X169663Y714263D01*
X169671Y714364D01*
X169671Y720917D01*
X174433Y725679D01*
X181167Y725679D01*
X185929Y720917D01*
X185929Y714183D01*
X181167Y709421D01*
X174614Y709421D01*
X174488Y709407D01*
X174362Y709400D01*
X174316Y709387D01*
X174268Y709381D01*
X174149Y709339D01*
X174027Y709304D01*
X173985Y709280D01*
X173939Y709264D01*
X173833Y709195D01*
X173723Y709134D01*
X173677Y709094D01*
X173647Y709075D01*
X173613Y709040D01*
X173537Y708975D01*
X162245Y697683D01*
X160013Y695451D01*
X97144Y695451D01*
X97018Y695437D01*
X96892Y695430D01*
X96846Y695417D01*
X96798Y695411D01*
X96679Y695369D01*
X96557Y695334D01*
X96515Y695310D01*
X96469Y695294D01*
X96363Y695225D01*
X96253Y695164D01*
X96207Y695124D01*
X96177Y695105D01*
X96143Y695070D01*
X96067Y695005D01*
X83107Y682046D01*
X83091Y682025D01*
X83071Y682008D01*
X82983Y681889D01*
X82891Y681773D01*
X82880Y681749D01*
X82864Y681728D01*
X82805Y681592D01*
X82742Y681458D01*
X82736Y681432D01*
X82726Y681408D01*
X82700Y681262D01*
X82668Y681117D01*
X82669Y681091D01*
X82664Y681065D01*
X82672Y680916D01*
X82674Y680769D01*
X82681Y680743D01*
X82682Y680717D01*
X82723Y680574D01*
X82759Y680431D01*
X82771Y680407D01*
X82779Y680382D01*
X82851Y680253D01*
X82919Y680121D01*
X82936Y680101D01*
X82949Y680078D01*
X83107Y679892D01*
X84212Y678786D01*
X86765Y672625D01*
X86765Y635475D01*
X84212Y629313D01*
X79497Y624598D01*
X73335Y622045D01*
X66665Y622045D01*
G37*
%LPD*%
%LPC*%
G36*
X66665Y126745D02*
X66665Y126745D01*
X60503Y129298D01*
X55788Y134013D01*
X53235Y140175D01*
X53235Y177325D01*
X55788Y183487D01*
X60503Y188202D01*
X66665Y190755D01*
X73335Y190755D01*
X76042Y189633D01*
X76115Y189612D01*
X76186Y189582D01*
X76282Y189565D01*
X76377Y189538D01*
X76453Y189534D01*
X76529Y189520D01*
X76627Y189525D01*
X76725Y189521D01*
X76800Y189534D01*
X76877Y189538D01*
X76971Y189566D01*
X77068Y189583D01*
X77138Y189614D01*
X77212Y189635D01*
X77297Y189683D01*
X77388Y189722D01*
X77449Y189768D01*
X77516Y189805D01*
X77629Y189902D01*
X77667Y189930D01*
X77680Y189945D01*
X77702Y189964D01*
X91755Y204017D01*
X93987Y206249D01*
X156856Y206249D01*
X156982Y206263D01*
X157108Y206270D01*
X157154Y206283D01*
X157202Y206289D01*
X157321Y206331D01*
X157443Y206366D01*
X157485Y206390D01*
X157531Y206406D01*
X157637Y206475D01*
X157747Y206536D01*
X157793Y206576D01*
X157823Y206595D01*
X157857Y206630D01*
X157933Y206695D01*
X169225Y217987D01*
X169304Y218086D01*
X169388Y218180D01*
X169412Y218222D01*
X169442Y218260D01*
X169496Y218374D01*
X169557Y218485D01*
X169570Y218531D01*
X169591Y218575D01*
X169617Y218698D01*
X169652Y218820D01*
X169657Y218881D01*
X169664Y218915D01*
X169663Y218963D01*
X169671Y219064D01*
X169671Y225617D01*
X174433Y230379D01*
X181167Y230379D01*
X185929Y225617D01*
X185929Y218883D01*
X181167Y214121D01*
X174614Y214121D01*
X174488Y214107D01*
X174362Y214100D01*
X174316Y214087D01*
X174268Y214081D01*
X174149Y214039D01*
X174027Y214004D01*
X173985Y213980D01*
X173939Y213964D01*
X173833Y213895D01*
X173723Y213834D01*
X173677Y213794D01*
X173647Y213775D01*
X173613Y213740D01*
X173537Y213675D01*
X160013Y200151D01*
X97144Y200151D01*
X97018Y200137D01*
X96892Y200130D01*
X96846Y200117D01*
X96798Y200111D01*
X96679Y200069D01*
X96557Y200034D01*
X96515Y200010D01*
X96469Y199994D01*
X96363Y199925D01*
X96253Y199864D01*
X96207Y199824D01*
X96177Y199805D01*
X96143Y199770D01*
X96067Y199705D01*
X83107Y186746D01*
X83091Y186725D01*
X83071Y186708D01*
X82983Y186589D01*
X82891Y186473D01*
X82880Y186449D01*
X82864Y186428D01*
X82805Y186292D01*
X82742Y186158D01*
X82736Y186132D01*
X82726Y186108D01*
X82700Y185962D01*
X82668Y185817D01*
X82669Y185791D01*
X82664Y185765D01*
X82672Y185616D01*
X82674Y185469D01*
X82681Y185443D01*
X82682Y185417D01*
X82723Y185274D01*
X82759Y185131D01*
X82771Y185107D01*
X82779Y185082D01*
X82851Y184953D01*
X82919Y184821D01*
X82936Y184801D01*
X82949Y184778D01*
X83107Y184592D01*
X84212Y183486D01*
X86765Y177325D01*
X86765Y140175D01*
X84212Y134013D01*
X79497Y129298D01*
X73335Y126745D01*
X66665Y126745D01*
G37*
%LPD*%
%LPC*%
G36*
X66665Y355345D02*
X66665Y355345D01*
X60503Y357898D01*
X55788Y362613D01*
X53235Y368775D01*
X53235Y405925D01*
X55788Y412087D01*
X60503Y416802D01*
X66665Y419355D01*
X71512Y419355D01*
X71638Y419369D01*
X71764Y419376D01*
X71810Y419389D01*
X71858Y419395D01*
X71977Y419437D01*
X72099Y419472D01*
X72141Y419496D01*
X72187Y419512D01*
X72293Y419581D01*
X72403Y419642D01*
X72449Y419682D01*
X72479Y419701D01*
X72513Y419736D01*
X72589Y419801D01*
X85405Y432617D01*
X87637Y434849D01*
X168722Y434849D01*
X168848Y434863D01*
X168974Y434870D01*
X169020Y434883D01*
X169068Y434889D01*
X169187Y434931D01*
X169309Y434966D01*
X169351Y434990D01*
X169396Y435006D01*
X169503Y435075D01*
X169613Y435136D01*
X169659Y435176D01*
X169689Y435195D01*
X169723Y435230D01*
X169799Y435295D01*
X174433Y439929D01*
X181167Y439929D01*
X185929Y435167D01*
X185929Y428433D01*
X181167Y423671D01*
X174433Y423671D01*
X169799Y428305D01*
X169700Y428384D01*
X169606Y428468D01*
X169564Y428492D01*
X169526Y428522D01*
X169412Y428576D01*
X169301Y428637D01*
X169255Y428650D01*
X169211Y428671D01*
X169088Y428697D01*
X168966Y428732D01*
X168905Y428737D01*
X168870Y428744D01*
X168822Y428743D01*
X168722Y428751D01*
X90794Y428751D01*
X90668Y428737D01*
X90542Y428730D01*
X90496Y428717D01*
X90448Y428711D01*
X90329Y428669D01*
X90207Y428634D01*
X90165Y428610D01*
X90119Y428594D01*
X90013Y428525D01*
X89903Y428464D01*
X89857Y428424D01*
X89827Y428405D01*
X89793Y428370D01*
X89717Y428305D01*
X79932Y418521D01*
X79916Y418500D01*
X79896Y418483D01*
X79808Y418364D01*
X79716Y418248D01*
X79705Y418224D01*
X79689Y418203D01*
X79630Y418067D01*
X79567Y417933D01*
X79561Y417907D01*
X79551Y417883D01*
X79525Y417737D01*
X79493Y417592D01*
X79494Y417566D01*
X79489Y417540D01*
X79497Y417391D01*
X79499Y417244D01*
X79506Y417218D01*
X79507Y417192D01*
X79548Y417049D01*
X79584Y416906D01*
X79596Y416882D01*
X79604Y416857D01*
X79676Y416728D01*
X79744Y416596D01*
X79761Y416576D01*
X79774Y416553D01*
X79932Y416367D01*
X84212Y412087D01*
X86765Y405925D01*
X86765Y368775D01*
X84212Y362613D01*
X79497Y357898D01*
X73335Y355345D01*
X66665Y355345D01*
G37*
%LPD*%
%LPC*%
G36*
X66665Y736345D02*
X66665Y736345D01*
X60503Y738898D01*
X55788Y743613D01*
X53235Y749775D01*
X53235Y786925D01*
X55788Y793087D01*
X60503Y797802D01*
X66665Y800355D01*
X73335Y800355D01*
X76042Y799233D01*
X76115Y799212D01*
X76186Y799182D01*
X76282Y799165D01*
X76377Y799138D01*
X76453Y799134D01*
X76529Y799120D01*
X76627Y799125D01*
X76725Y799121D01*
X76800Y799134D01*
X76877Y799138D01*
X76971Y799166D01*
X77068Y799183D01*
X77138Y799214D01*
X77212Y799235D01*
X77297Y799283D01*
X77388Y799322D01*
X77449Y799368D01*
X77516Y799405D01*
X77629Y799502D01*
X77667Y799530D01*
X77680Y799545D01*
X77702Y799564D01*
X93987Y815849D01*
X168722Y815849D01*
X168848Y815863D01*
X168974Y815870D01*
X169020Y815883D01*
X169068Y815889D01*
X169187Y815931D01*
X169309Y815966D01*
X169351Y815990D01*
X169396Y816006D01*
X169503Y816075D01*
X169613Y816136D01*
X169659Y816176D01*
X169689Y816195D01*
X169723Y816230D01*
X169799Y816295D01*
X174433Y820929D01*
X181167Y820929D01*
X185929Y816167D01*
X185929Y809433D01*
X181167Y804671D01*
X174433Y804671D01*
X169799Y809305D01*
X169700Y809384D01*
X169606Y809468D01*
X169564Y809492D01*
X169526Y809522D01*
X169412Y809576D01*
X169301Y809637D01*
X169255Y809650D01*
X169211Y809671D01*
X169088Y809697D01*
X168966Y809732D01*
X168905Y809737D01*
X168870Y809744D01*
X168822Y809743D01*
X168722Y809751D01*
X97144Y809751D01*
X97018Y809737D01*
X96892Y809730D01*
X96846Y809717D01*
X96798Y809711D01*
X96679Y809669D01*
X96557Y809634D01*
X96515Y809610D01*
X96469Y809594D01*
X96363Y809525D01*
X96253Y809464D01*
X96207Y809424D01*
X96177Y809405D01*
X96143Y809370D01*
X96067Y809305D01*
X83107Y796346D01*
X83091Y796325D01*
X83071Y796308D01*
X82983Y796189D01*
X82891Y796073D01*
X82880Y796049D01*
X82864Y796028D01*
X82805Y795892D01*
X82742Y795758D01*
X82736Y795732D01*
X82726Y795708D01*
X82700Y795562D01*
X82668Y795417D01*
X82669Y795391D01*
X82664Y795365D01*
X82672Y795216D01*
X82674Y795069D01*
X82681Y795043D01*
X82682Y795017D01*
X82723Y794874D01*
X82759Y794731D01*
X82771Y794707D01*
X82779Y794682D01*
X82851Y794553D01*
X82919Y794421D01*
X82936Y794401D01*
X82949Y794378D01*
X83107Y794192D01*
X84212Y793086D01*
X86765Y786925D01*
X86765Y749775D01*
X84212Y743613D01*
X79497Y738898D01*
X73335Y736345D01*
X66665Y736345D01*
G37*
%LPD*%
%LPC*%
G36*
X66665Y507745D02*
X66665Y507745D01*
X60503Y510298D01*
X55788Y515013D01*
X53235Y521175D01*
X53235Y558325D01*
X55788Y564487D01*
X60503Y569202D01*
X66665Y571755D01*
X73335Y571755D01*
X76042Y570633D01*
X76115Y570612D01*
X76186Y570582D01*
X76282Y570565D01*
X76377Y570538D01*
X76453Y570534D01*
X76529Y570520D01*
X76627Y570525D01*
X76725Y570521D01*
X76800Y570534D01*
X76877Y570538D01*
X76971Y570566D01*
X77068Y570583D01*
X77138Y570614D01*
X77212Y570635D01*
X77297Y570683D01*
X77388Y570722D01*
X77449Y570768D01*
X77516Y570805D01*
X77629Y570902D01*
X77667Y570930D01*
X77680Y570945D01*
X77702Y570964D01*
X91755Y585017D01*
X93987Y587249D01*
X168722Y587249D01*
X168848Y587263D01*
X168974Y587270D01*
X169020Y587283D01*
X169068Y587289D01*
X169187Y587331D01*
X169309Y587366D01*
X169351Y587390D01*
X169396Y587406D01*
X169503Y587475D01*
X169613Y587536D01*
X169659Y587576D01*
X169689Y587595D01*
X169723Y587630D01*
X169799Y587695D01*
X174433Y592329D01*
X181167Y592329D01*
X185929Y587567D01*
X185929Y580833D01*
X181167Y576071D01*
X174433Y576071D01*
X169799Y580705D01*
X169700Y580784D01*
X169606Y580868D01*
X169564Y580892D01*
X169526Y580922D01*
X169412Y580976D01*
X169301Y581037D01*
X169255Y581050D01*
X169211Y581071D01*
X169088Y581097D01*
X168966Y581132D01*
X168905Y581137D01*
X168870Y581144D01*
X168822Y581143D01*
X168722Y581151D01*
X97144Y581151D01*
X97018Y581137D01*
X96892Y581130D01*
X96846Y581117D01*
X96798Y581111D01*
X96679Y581069D01*
X96557Y581034D01*
X96515Y581010D01*
X96469Y580994D01*
X96363Y580925D01*
X96253Y580864D01*
X96207Y580824D01*
X96177Y580805D01*
X96143Y580770D01*
X96067Y580705D01*
X83107Y567746D01*
X83091Y567725D01*
X83071Y567708D01*
X82983Y567589D01*
X82891Y567473D01*
X82880Y567449D01*
X82864Y567428D01*
X82805Y567292D01*
X82742Y567158D01*
X82736Y567132D01*
X82726Y567108D01*
X82700Y566962D01*
X82668Y566817D01*
X82669Y566791D01*
X82664Y566765D01*
X82672Y566616D01*
X82674Y566469D01*
X82681Y566443D01*
X82682Y566417D01*
X82723Y566274D01*
X82759Y566131D01*
X82771Y566107D01*
X82779Y566082D01*
X82851Y565953D01*
X82919Y565821D01*
X82936Y565801D01*
X82949Y565778D01*
X83107Y565592D01*
X84212Y564486D01*
X86765Y558325D01*
X86765Y521175D01*
X84212Y515013D01*
X79497Y510298D01*
X73335Y507745D01*
X66665Y507745D01*
G37*
%LPD*%
%LPC*%
G36*
X66665Y241045D02*
X66665Y241045D01*
X60503Y243598D01*
X55788Y248313D01*
X53235Y254475D01*
X53235Y291625D01*
X55788Y297787D01*
X60503Y302502D01*
X66665Y305055D01*
X73335Y305055D01*
X76042Y303933D01*
X76115Y303912D01*
X76186Y303882D01*
X76282Y303865D01*
X76377Y303838D01*
X76453Y303834D01*
X76529Y303820D01*
X76627Y303825D01*
X76725Y303821D01*
X76800Y303834D01*
X76877Y303838D01*
X76971Y303866D01*
X77068Y303883D01*
X77138Y303914D01*
X77212Y303935D01*
X77297Y303983D01*
X77388Y304022D01*
X77449Y304068D01*
X77516Y304105D01*
X77629Y304202D01*
X77667Y304230D01*
X77680Y304245D01*
X77702Y304264D01*
X91755Y318317D01*
X93987Y320549D01*
X168722Y320549D01*
X168848Y320563D01*
X168974Y320570D01*
X169020Y320583D01*
X169068Y320589D01*
X169187Y320631D01*
X169309Y320666D01*
X169351Y320690D01*
X169396Y320706D01*
X169503Y320775D01*
X169613Y320836D01*
X169659Y320876D01*
X169689Y320895D01*
X169723Y320930D01*
X169799Y320995D01*
X174433Y325629D01*
X181167Y325629D01*
X185929Y320867D01*
X185929Y314133D01*
X181167Y309371D01*
X174433Y309371D01*
X169799Y314005D01*
X169700Y314084D01*
X169606Y314168D01*
X169564Y314192D01*
X169526Y314222D01*
X169412Y314276D01*
X169301Y314337D01*
X169255Y314350D01*
X169211Y314371D01*
X169088Y314397D01*
X168966Y314432D01*
X168905Y314437D01*
X168870Y314444D01*
X168822Y314443D01*
X168722Y314451D01*
X97144Y314451D01*
X97018Y314437D01*
X96892Y314430D01*
X96846Y314417D01*
X96798Y314411D01*
X96679Y314369D01*
X96557Y314334D01*
X96515Y314310D01*
X96469Y314294D01*
X96363Y314225D01*
X96253Y314164D01*
X96207Y314124D01*
X96177Y314105D01*
X96143Y314070D01*
X96067Y314005D01*
X83107Y301046D01*
X83091Y301025D01*
X83071Y301008D01*
X82983Y300889D01*
X82891Y300773D01*
X82880Y300749D01*
X82864Y300728D01*
X82805Y300592D01*
X82742Y300458D01*
X82736Y300432D01*
X82726Y300408D01*
X82700Y300262D01*
X82668Y300117D01*
X82669Y300091D01*
X82664Y300065D01*
X82672Y299916D01*
X82674Y299769D01*
X82681Y299743D01*
X82682Y299717D01*
X82723Y299574D01*
X82759Y299431D01*
X82771Y299407D01*
X82779Y299382D01*
X82851Y299253D01*
X82919Y299121D01*
X82936Y299101D01*
X82949Y299078D01*
X83107Y298892D01*
X84212Y297786D01*
X86765Y291625D01*
X86765Y254475D01*
X84212Y248313D01*
X79497Y243598D01*
X73335Y241045D01*
X66665Y241045D01*
G37*
%LPD*%
%LPC*%
G36*
X225233Y87121D02*
X225233Y87121D01*
X220471Y91883D01*
X220471Y98617D01*
X224597Y102743D01*
X224676Y102842D01*
X224760Y102936D01*
X224784Y102978D01*
X224814Y103016D01*
X224868Y103130D01*
X224929Y103241D01*
X224942Y103287D01*
X224963Y103331D01*
X224989Y103454D01*
X225024Y103576D01*
X225029Y103637D01*
X225036Y103672D01*
X225035Y103720D01*
X225043Y103820D01*
X225043Y117912D01*
X225040Y117938D01*
X225042Y117964D01*
X225020Y118111D01*
X225003Y118258D01*
X224995Y118283D01*
X224991Y118309D01*
X224936Y118447D01*
X224886Y118586D01*
X224872Y118608D01*
X224862Y118633D01*
X224777Y118754D01*
X224697Y118879D01*
X224678Y118897D01*
X224663Y118919D01*
X224553Y119018D01*
X224446Y119121D01*
X224424Y119135D01*
X224404Y119152D01*
X224274Y119224D01*
X224147Y119300D01*
X224122Y119308D01*
X224099Y119321D01*
X223956Y119361D01*
X223815Y119406D01*
X223789Y119408D01*
X223764Y119416D01*
X223520Y119435D01*
X208355Y119435D01*
X205575Y120587D01*
X203447Y122715D01*
X202295Y125495D01*
X202295Y128505D01*
X203447Y131285D01*
X205575Y133413D01*
X208355Y134565D01*
X223445Y134565D01*
X226225Y133413D01*
X228421Y131218D01*
X228434Y131193D01*
X228486Y131136D01*
X228530Y131073D01*
X228602Y131007D01*
X228668Y130934D01*
X228732Y130891D01*
X228788Y130840D01*
X228874Y130792D01*
X228955Y130736D01*
X229026Y130708D01*
X229093Y130671D01*
X229188Y130644D01*
X229279Y130608D01*
X229355Y130597D01*
X229429Y130576D01*
X229578Y130564D01*
X229624Y130558D01*
X229643Y130559D01*
X229673Y130557D01*
X239196Y130557D01*
X239321Y130571D01*
X239448Y130578D01*
X239494Y130591D01*
X239542Y130597D01*
X239661Y130639D01*
X239782Y130674D01*
X239825Y130698D01*
X239870Y130714D01*
X239976Y130783D01*
X240087Y130844D01*
X240133Y130884D01*
X240163Y130903D01*
X240196Y130938D01*
X240273Y131003D01*
X249997Y140727D01*
X250076Y140826D01*
X250160Y140920D01*
X250184Y140962D01*
X250214Y141000D01*
X250268Y141114D01*
X250329Y141225D01*
X250342Y141272D01*
X250363Y141315D01*
X250389Y141439D01*
X250424Y141560D01*
X250429Y141621D01*
X250436Y141656D01*
X250435Y141704D01*
X250443Y141804D01*
X250443Y304402D01*
X250432Y304502D01*
X250430Y304602D01*
X250412Y304674D01*
X250403Y304748D01*
X250370Y304842D01*
X250345Y304940D01*
X250311Y305006D01*
X250286Y305076D01*
X250231Y305160D01*
X250185Y305250D01*
X250137Y305306D01*
X250097Y305369D01*
X250025Y305439D01*
X249960Y305515D01*
X249900Y305559D01*
X249846Y305611D01*
X249760Y305663D01*
X249679Y305722D01*
X249611Y305752D01*
X249547Y305790D01*
X249451Y305820D01*
X249359Y305860D01*
X249286Y305873D01*
X249215Y305896D01*
X249115Y305904D01*
X249016Y305922D01*
X248942Y305918D01*
X248868Y305924D01*
X248768Y305909D01*
X248668Y305904D01*
X248597Y305883D01*
X248523Y305872D01*
X248430Y305835D01*
X248333Y305807D01*
X248268Y305771D01*
X248199Y305744D01*
X248117Y305686D01*
X248029Y305637D01*
X247953Y305572D01*
X247913Y305545D01*
X247889Y305518D01*
X247843Y305479D01*
X244877Y302513D01*
X237723Y302513D01*
X232663Y307573D01*
X232663Y314727D01*
X237723Y319787D01*
X244877Y319787D01*
X249511Y315153D01*
X249610Y315074D01*
X249704Y314990D01*
X249746Y314966D01*
X249784Y314936D01*
X249898Y314882D01*
X250009Y314821D01*
X250056Y314808D01*
X250099Y314787D01*
X250223Y314761D01*
X250345Y314726D01*
X250405Y314721D01*
X250440Y314714D01*
X250488Y314715D01*
X250588Y314707D01*
X257412Y314707D01*
X257537Y314721D01*
X257663Y314728D01*
X257710Y314741D01*
X257758Y314747D01*
X257877Y314789D01*
X257998Y314824D01*
X258040Y314848D01*
X258086Y314864D01*
X258192Y314933D01*
X258302Y314994D01*
X258349Y315034D01*
X258379Y315053D01*
X258412Y315088D01*
X258489Y315153D01*
X263123Y319787D01*
X270277Y319787D01*
X275337Y314727D01*
X275337Y307573D01*
X270277Y302513D01*
X263123Y302513D01*
X260157Y305479D01*
X260079Y305541D01*
X260006Y305611D01*
X259942Y305649D01*
X259884Y305695D01*
X259793Y305738D01*
X259707Y305790D01*
X259636Y305812D01*
X259569Y305844D01*
X259471Y305865D01*
X259375Y305896D01*
X259301Y305902D01*
X259228Y305918D01*
X259128Y305916D01*
X259028Y305924D01*
X258954Y305913D01*
X258880Y305912D01*
X258783Y305887D01*
X258683Y305872D01*
X258614Y305845D01*
X258542Y305827D01*
X258453Y305781D01*
X258359Y305744D01*
X258298Y305701D01*
X258232Y305667D01*
X258156Y305602D01*
X258073Y305545D01*
X258023Y305489D01*
X257967Y305441D01*
X257907Y305360D01*
X257840Y305286D01*
X257804Y305221D01*
X257759Y305161D01*
X257720Y305069D01*
X257671Y304981D01*
X257651Y304909D01*
X257621Y304841D01*
X257604Y304742D01*
X257576Y304645D01*
X257568Y304545D01*
X257560Y304498D01*
X257562Y304462D01*
X257557Y304402D01*
X257557Y138227D01*
X242773Y123443D01*
X233680Y123443D01*
X233654Y123440D01*
X233628Y123442D01*
X233481Y123420D01*
X233334Y123403D01*
X233309Y123395D01*
X233283Y123391D01*
X233145Y123336D01*
X233006Y123286D01*
X232984Y123272D01*
X232959Y123262D01*
X232838Y123177D01*
X232713Y123097D01*
X232695Y123078D01*
X232673Y123063D01*
X232574Y122953D01*
X232471Y122846D01*
X232457Y122824D01*
X232440Y122804D01*
X232368Y122674D01*
X232292Y122547D01*
X232284Y122522D01*
X232271Y122499D01*
X232231Y122356D01*
X232186Y122215D01*
X232184Y122189D01*
X232176Y122164D01*
X232157Y121920D01*
X232157Y103820D01*
X232171Y103694D01*
X232178Y103568D01*
X232191Y103522D01*
X232197Y103474D01*
X232239Y103355D01*
X232274Y103233D01*
X232298Y103191D01*
X232314Y103146D01*
X232383Y103039D01*
X232444Y102929D01*
X232484Y102883D01*
X232503Y102853D01*
X232538Y102819D01*
X232603Y102743D01*
X236729Y98617D01*
X236729Y91883D01*
X231967Y87121D01*
X225233Y87121D01*
G37*
%LPD*%
%LPC*%
G36*
X124665Y126745D02*
X124665Y126745D01*
X118503Y129298D01*
X113788Y134013D01*
X111235Y140175D01*
X111235Y177325D01*
X113788Y183487D01*
X118503Y188202D01*
X124665Y190755D01*
X131335Y190755D01*
X137497Y188202D01*
X142212Y183487D01*
X144765Y177325D01*
X144765Y140175D01*
X142212Y134013D01*
X137497Y129298D01*
X131335Y126745D01*
X124665Y126745D01*
G37*
%LPD*%
%LPC*%
G36*
X124665Y736345D02*
X124665Y736345D01*
X118503Y738898D01*
X113788Y743613D01*
X111235Y749775D01*
X111235Y786925D01*
X113788Y793087D01*
X118503Y797802D01*
X124665Y800355D01*
X131335Y800355D01*
X137497Y797802D01*
X142212Y793087D01*
X144765Y786925D01*
X144765Y749775D01*
X142212Y743613D01*
X137497Y738898D01*
X131335Y736345D01*
X124665Y736345D01*
G37*
%LPD*%
%LPC*%
G36*
X124665Y622045D02*
X124665Y622045D01*
X118503Y624598D01*
X113788Y629313D01*
X111235Y635475D01*
X111235Y672625D01*
X113788Y678787D01*
X118503Y683502D01*
X124665Y686055D01*
X131335Y686055D01*
X137497Y683502D01*
X142212Y678787D01*
X144765Y672625D01*
X144765Y635475D01*
X142212Y629313D01*
X137497Y624598D01*
X131335Y622045D01*
X124665Y622045D01*
G37*
%LPD*%
%LPC*%
G36*
X124665Y507745D02*
X124665Y507745D01*
X118503Y510298D01*
X113788Y515013D01*
X111235Y521175D01*
X111235Y558325D01*
X113788Y564487D01*
X118503Y569202D01*
X124665Y571755D01*
X131335Y571755D01*
X137497Y569202D01*
X142212Y564487D01*
X144765Y558325D01*
X144765Y521175D01*
X142212Y515013D01*
X137497Y510298D01*
X131335Y507745D01*
X124665Y507745D01*
G37*
%LPD*%
%LPC*%
G36*
X124665Y355345D02*
X124665Y355345D01*
X118503Y357898D01*
X113788Y362613D01*
X111235Y368775D01*
X111235Y405925D01*
X113788Y412087D01*
X118503Y416802D01*
X124665Y419355D01*
X131335Y419355D01*
X137497Y416802D01*
X142212Y412087D01*
X144765Y405925D01*
X144765Y368775D01*
X142212Y362613D01*
X137497Y357898D01*
X131335Y355345D01*
X124665Y355345D01*
G37*
%LPD*%
%LPC*%
G36*
X124665Y241045D02*
X124665Y241045D01*
X118503Y243598D01*
X113788Y248313D01*
X111235Y254475D01*
X111235Y291625D01*
X113788Y297787D01*
X118503Y302502D01*
X124665Y305055D01*
X131335Y305055D01*
X137497Y302502D01*
X142212Y297787D01*
X144765Y291625D01*
X144765Y254475D01*
X142212Y248313D01*
X137497Y243598D01*
X131335Y241045D01*
X124665Y241045D01*
G37*
%LPD*%
%LPC*%
G36*
X174433Y334771D02*
X174433Y334771D01*
X169671Y339533D01*
X169671Y346267D01*
X174433Y351029D01*
X180986Y351029D01*
X181112Y351043D01*
X181238Y351050D01*
X181284Y351063D01*
X181332Y351069D01*
X181451Y351111D01*
X181573Y351146D01*
X181615Y351170D01*
X181661Y351186D01*
X181767Y351255D01*
X181877Y351316D01*
X181923Y351356D01*
X181953Y351375D01*
X181987Y351410D01*
X182063Y351475D01*
X193355Y362767D01*
X193434Y362866D01*
X193518Y362960D01*
X193542Y363002D01*
X193572Y363040D01*
X193626Y363154D01*
X193687Y363265D01*
X193700Y363311D01*
X193721Y363355D01*
X193747Y363478D01*
X193782Y363600D01*
X193787Y363661D01*
X193794Y363696D01*
X193793Y363744D01*
X193801Y363844D01*
X193801Y442606D01*
X193787Y442732D01*
X193780Y442858D01*
X193767Y442904D01*
X193761Y442952D01*
X193719Y443071D01*
X193684Y443193D01*
X193660Y443235D01*
X193644Y443281D01*
X193575Y443387D01*
X193514Y443497D01*
X193474Y443543D01*
X193455Y443573D01*
X193420Y443607D01*
X193355Y443683D01*
X162051Y474987D01*
X162051Y541013D01*
X162037Y541139D01*
X162030Y541265D01*
X162017Y541311D01*
X162011Y541359D01*
X161969Y541478D01*
X161934Y541600D01*
X161910Y541642D01*
X161894Y541687D01*
X161825Y541793D01*
X161764Y541904D01*
X161724Y541950D01*
X161705Y541980D01*
X161670Y542014D01*
X161605Y542090D01*
X160601Y543094D01*
X159793Y545044D01*
X159793Y547156D01*
X160601Y549106D01*
X162094Y550599D01*
X164044Y551407D01*
X166156Y551407D01*
X168106Y550599D01*
X169599Y549106D01*
X170407Y547156D01*
X170407Y545044D01*
X169599Y543094D01*
X168595Y542090D01*
X168516Y541991D01*
X168432Y541897D01*
X168408Y541855D01*
X168378Y541817D01*
X168324Y541703D01*
X168263Y541592D01*
X168250Y541546D01*
X168229Y541502D01*
X168203Y541379D01*
X168168Y541257D01*
X168163Y541196D01*
X168156Y541161D01*
X168157Y541113D01*
X168149Y541013D01*
X168149Y478144D01*
X168163Y478018D01*
X168170Y477892D01*
X168183Y477846D01*
X168189Y477798D01*
X168231Y477679D01*
X168266Y477557D01*
X168290Y477515D01*
X168306Y477469D01*
X168375Y477363D01*
X168436Y477253D01*
X168476Y477207D01*
X168495Y477177D01*
X168530Y477143D01*
X168595Y477067D01*
X199899Y445763D01*
X199899Y360687D01*
X186375Y347163D01*
X186296Y347064D01*
X186212Y346970D01*
X186188Y346928D01*
X186158Y346890D01*
X186104Y346776D01*
X186043Y346665D01*
X186030Y346619D01*
X186009Y346575D01*
X185983Y346452D01*
X185948Y346330D01*
X185943Y346269D01*
X185936Y346234D01*
X185937Y346186D01*
X185929Y346086D01*
X185929Y339533D01*
X181167Y334771D01*
X174433Y334771D01*
G37*
%LPD*%
%LPC*%
G36*
X174433Y144271D02*
X174433Y144271D01*
X169671Y149033D01*
X169671Y155767D01*
X174433Y160529D01*
X181167Y160529D01*
X185801Y155895D01*
X185900Y155816D01*
X185994Y155732D01*
X186036Y155708D01*
X186074Y155678D01*
X186188Y155624D01*
X186299Y155563D01*
X186345Y155550D01*
X186389Y155529D01*
X186512Y155503D01*
X186634Y155468D01*
X186695Y155463D01*
X186730Y155456D01*
X186778Y155457D01*
X186878Y155449D01*
X201917Y155449D01*
X201993Y155457D01*
X202069Y155456D01*
X202166Y155477D01*
X202263Y155489D01*
X202335Y155514D01*
X202410Y155531D01*
X202499Y155573D01*
X202591Y155606D01*
X202656Y155648D01*
X202725Y155680D01*
X202801Y155742D01*
X202884Y155795D01*
X202937Y155850D01*
X202997Y155898D01*
X203058Y155975D01*
X203126Y156046D01*
X203166Y156111D01*
X203213Y156171D01*
X203281Y156305D01*
X203305Y156345D01*
X203311Y156363D01*
X203324Y156389D01*
X203447Y156685D01*
X205575Y158813D01*
X208355Y159965D01*
X211328Y159965D01*
X211354Y159968D01*
X211380Y159966D01*
X211527Y159988D01*
X211674Y160005D01*
X211699Y160013D01*
X211725Y160017D01*
X211863Y160072D01*
X212002Y160122D01*
X212024Y160136D01*
X212049Y160146D01*
X212170Y160231D01*
X212295Y160311D01*
X212313Y160330D01*
X212335Y160345D01*
X212434Y160455D01*
X212537Y160562D01*
X212551Y160584D01*
X212568Y160604D01*
X212640Y160734D01*
X212716Y160861D01*
X212724Y160886D01*
X212737Y160909D01*
X212777Y161052D01*
X212822Y161193D01*
X212824Y161219D01*
X212832Y161244D01*
X212851Y161488D01*
X212851Y168712D01*
X212848Y168738D01*
X212850Y168764D01*
X212828Y168911D01*
X212811Y169058D01*
X212803Y169083D01*
X212799Y169109D01*
X212744Y169247D01*
X212694Y169386D01*
X212680Y169408D01*
X212670Y169433D01*
X212585Y169554D01*
X212505Y169679D01*
X212486Y169697D01*
X212471Y169719D01*
X212361Y169818D01*
X212254Y169921D01*
X212232Y169935D01*
X212212Y169952D01*
X212082Y170024D01*
X211955Y170100D01*
X211930Y170108D01*
X211907Y170121D01*
X211764Y170161D01*
X211623Y170206D01*
X211597Y170208D01*
X211572Y170216D01*
X211328Y170235D01*
X208355Y170235D01*
X205575Y171387D01*
X203447Y173515D01*
X202295Y176295D01*
X202295Y179305D01*
X203447Y182085D01*
X205575Y184213D01*
X208355Y185365D01*
X223445Y185365D01*
X226225Y184213D01*
X228353Y182085D01*
X229505Y179305D01*
X229505Y176295D01*
X228353Y173515D01*
X226225Y171387D01*
X223445Y170235D01*
X220472Y170235D01*
X220446Y170232D01*
X220420Y170234D01*
X220273Y170212D01*
X220126Y170195D01*
X220101Y170187D01*
X220075Y170183D01*
X219937Y170128D01*
X219798Y170078D01*
X219776Y170064D01*
X219751Y170054D01*
X219630Y169969D01*
X219505Y169889D01*
X219487Y169870D01*
X219465Y169855D01*
X219366Y169745D01*
X219263Y169638D01*
X219249Y169616D01*
X219232Y169596D01*
X219160Y169466D01*
X219084Y169339D01*
X219076Y169314D01*
X219063Y169291D01*
X219023Y169148D01*
X218978Y169007D01*
X218976Y168981D01*
X218968Y168956D01*
X218949Y168712D01*
X218949Y161488D01*
X218952Y161462D01*
X218950Y161436D01*
X218972Y161289D01*
X218989Y161142D01*
X218997Y161117D01*
X219001Y161091D01*
X219056Y160953D01*
X219106Y160814D01*
X219120Y160792D01*
X219130Y160767D01*
X219215Y160646D01*
X219295Y160521D01*
X219314Y160503D01*
X219329Y160481D01*
X219439Y160382D01*
X219546Y160279D01*
X219568Y160265D01*
X219588Y160248D01*
X219718Y160176D01*
X219845Y160100D01*
X219870Y160092D01*
X219893Y160079D01*
X220036Y160039D01*
X220177Y159994D01*
X220203Y159992D01*
X220228Y159984D01*
X220472Y159965D01*
X223445Y159965D01*
X226225Y158813D01*
X228353Y156685D01*
X229505Y153905D01*
X229505Y150895D01*
X228353Y148115D01*
X226225Y145987D01*
X223445Y144835D01*
X208355Y144835D01*
X205575Y145987D01*
X203447Y148115D01*
X203324Y148411D01*
X203287Y148478D01*
X203259Y148549D01*
X203203Y148629D01*
X203155Y148716D01*
X203104Y148772D01*
X203060Y148835D01*
X202987Y148901D01*
X202921Y148974D01*
X202858Y149017D01*
X202801Y149068D01*
X202715Y149116D01*
X202634Y149172D01*
X202563Y149200D01*
X202496Y149237D01*
X202401Y149264D01*
X202310Y149300D01*
X202234Y149311D01*
X202161Y149332D01*
X202012Y149344D01*
X201965Y149351D01*
X201946Y149349D01*
X201917Y149351D01*
X186878Y149351D01*
X186752Y149337D01*
X186626Y149330D01*
X186580Y149317D01*
X186532Y149311D01*
X186413Y149269D01*
X186291Y149234D01*
X186249Y149210D01*
X186204Y149194D01*
X186097Y149125D01*
X185987Y149064D01*
X185941Y149024D01*
X185911Y149005D01*
X185877Y148970D01*
X185801Y148905D01*
X181167Y144271D01*
X174433Y144271D01*
G37*
%LPD*%
%LPC*%
G36*
X20047Y47497D02*
X20047Y47497D01*
X20047Y77223D01*
X20476Y77167D01*
X22728Y76563D01*
X24881Y75671D01*
X26900Y74506D01*
X28749Y73087D01*
X30397Y71439D01*
X31816Y69590D01*
X32981Y67571D01*
X33873Y65418D01*
X34477Y63166D01*
X34781Y60855D01*
X34781Y47497D01*
X20047Y47497D01*
G37*
%LPD*%
%LPC*%
G36*
X20047Y657097D02*
X20047Y657097D01*
X20047Y686823D01*
X20476Y686767D01*
X22728Y686163D01*
X24881Y685271D01*
X26900Y684106D01*
X28749Y682687D01*
X30397Y681039D01*
X31816Y679190D01*
X32981Y677171D01*
X33873Y675018D01*
X34477Y672766D01*
X34781Y670455D01*
X34781Y657097D01*
X20047Y657097D01*
G37*
%LPD*%
%LPC*%
G36*
X20047Y390397D02*
X20047Y390397D01*
X20047Y420123D01*
X20476Y420067D01*
X22728Y419463D01*
X24881Y418571D01*
X26900Y417406D01*
X28749Y415987D01*
X30397Y414339D01*
X31816Y412490D01*
X32981Y410471D01*
X33873Y408318D01*
X34477Y406066D01*
X34781Y403755D01*
X34781Y390397D01*
X20047Y390397D01*
G37*
%LPD*%
%LPC*%
G36*
X20047Y276097D02*
X20047Y276097D01*
X20047Y305823D01*
X20476Y305767D01*
X22728Y305163D01*
X24881Y304271D01*
X26900Y303106D01*
X28749Y301687D01*
X30397Y300039D01*
X31816Y298190D01*
X32981Y296171D01*
X33873Y294018D01*
X34477Y291766D01*
X34781Y289455D01*
X34781Y276097D01*
X20047Y276097D01*
G37*
%LPD*%
%LPC*%
G36*
X20047Y161797D02*
X20047Y161797D01*
X20047Y191523D01*
X20476Y191467D01*
X22728Y190863D01*
X24881Y189971D01*
X26900Y188806D01*
X28749Y187387D01*
X30397Y185739D01*
X31816Y183890D01*
X32981Y181871D01*
X33873Y179718D01*
X34477Y177466D01*
X34781Y175155D01*
X34781Y161797D01*
X20047Y161797D01*
G37*
%LPD*%
%LPC*%
G36*
X20047Y771397D02*
X20047Y771397D01*
X20047Y801123D01*
X20476Y801067D01*
X22728Y800463D01*
X24881Y799571D01*
X26900Y798406D01*
X28749Y796987D01*
X30397Y795339D01*
X31816Y793490D01*
X32981Y791471D01*
X33873Y789318D01*
X34477Y787066D01*
X34781Y784755D01*
X34781Y771397D01*
X20047Y771397D01*
G37*
%LPD*%
%LPC*%
G36*
X20047Y542797D02*
X20047Y542797D01*
X20047Y572523D01*
X20476Y572467D01*
X22728Y571863D01*
X24881Y570971D01*
X26900Y569806D01*
X28749Y568387D01*
X30397Y566739D01*
X31816Y564890D01*
X32981Y562871D01*
X33873Y560718D01*
X34477Y558466D01*
X34781Y556155D01*
X34781Y542797D01*
X20047Y542797D01*
G37*
%LPD*%
%LPC*%
G36*
X20047Y384303D02*
X20047Y384303D01*
X34781Y384303D01*
X34781Y370945D01*
X34477Y368634D01*
X33873Y366382D01*
X32981Y364229D01*
X31816Y362210D01*
X31221Y361435D01*
X31220Y361434D01*
X30397Y360361D01*
X28749Y358713D01*
X26900Y357294D01*
X24881Y356129D01*
X22728Y355237D01*
X20476Y354633D01*
X20047Y354577D01*
X20047Y384303D01*
G37*
%LPD*%
%LPC*%
G36*
X20047Y270003D02*
X20047Y270003D01*
X34781Y270003D01*
X34781Y256645D01*
X34477Y254334D01*
X33873Y252082D01*
X32981Y249929D01*
X31816Y247910D01*
X31264Y247191D01*
X30397Y246061D01*
X28749Y244413D01*
X26900Y242994D01*
X24881Y241829D01*
X22728Y240937D01*
X20476Y240333D01*
X20047Y240277D01*
X20047Y270003D01*
G37*
%LPD*%
%LPC*%
G36*
X20047Y155703D02*
X20047Y155703D01*
X34781Y155703D01*
X34781Y142345D01*
X34477Y140034D01*
X33873Y137782D01*
X32981Y135629D01*
X31816Y133610D01*
X31307Y132947D01*
X30397Y131761D01*
X28749Y130113D01*
X26900Y128694D01*
X24881Y127529D01*
X22728Y126637D01*
X20476Y126033D01*
X20047Y125977D01*
X20047Y155703D01*
G37*
%LPD*%
%LPC*%
G36*
X20047Y536703D02*
X20047Y536703D01*
X34781Y536703D01*
X34781Y523345D01*
X34477Y521034D01*
X33873Y518782D01*
X32981Y516629D01*
X31816Y514610D01*
X31163Y513760D01*
X31163Y513759D01*
X30397Y512761D01*
X28749Y511113D01*
X26900Y509694D01*
X24881Y508529D01*
X22728Y507637D01*
X20476Y507033D01*
X20047Y506977D01*
X20047Y536703D01*
G37*
%LPD*%
%LPC*%
G36*
X20047Y765303D02*
X20047Y765303D01*
X34781Y765303D01*
X34781Y751945D01*
X34477Y749634D01*
X33873Y747382D01*
X32981Y745229D01*
X31816Y743210D01*
X31077Y742247D01*
X31076Y742247D01*
X30397Y741361D01*
X28749Y739713D01*
X26900Y738294D01*
X24881Y737129D01*
X22728Y736237D01*
X20476Y735633D01*
X20047Y735577D01*
X20047Y765303D01*
G37*
%LPD*%
%LPC*%
G36*
X20047Y651003D02*
X20047Y651003D01*
X34781Y651003D01*
X34781Y637645D01*
X34477Y635334D01*
X33873Y633082D01*
X32981Y630929D01*
X31816Y628910D01*
X31120Y628003D01*
X30397Y627061D01*
X28749Y625413D01*
X26900Y623994D01*
X24881Y622829D01*
X22728Y621937D01*
X20476Y621333D01*
X20047Y621277D01*
X20047Y651003D01*
G37*
%LPD*%
%LPC*%
G36*
X20047Y879603D02*
X20047Y879603D01*
X34781Y879603D01*
X34781Y866245D01*
X34477Y863934D01*
X33873Y861682D01*
X32981Y859529D01*
X31816Y857510D01*
X31034Y856491D01*
X31033Y856491D01*
X31033Y856490D01*
X30397Y855661D01*
X28749Y854013D01*
X26900Y852594D01*
X24881Y851429D01*
X22728Y850537D01*
X20476Y849933D01*
X20047Y849877D01*
X20047Y879603D01*
G37*
%LPD*%
%LPC*%
G36*
X174433Y734821D02*
X174433Y734821D01*
X169671Y739583D01*
X169671Y746317D01*
X174433Y751079D01*
X181167Y751079D01*
X185929Y746317D01*
X185929Y739583D01*
X181167Y734821D01*
X174433Y734821D01*
G37*
%LPD*%
%LPC*%
G36*
X174433Y779271D02*
X174433Y779271D01*
X169671Y784033D01*
X169671Y790767D01*
X174433Y795529D01*
X181167Y795529D01*
X185929Y790767D01*
X185929Y784033D01*
X181167Y779271D01*
X174433Y779271D01*
G37*
%LPD*%
%LPC*%
G36*
X174433Y188721D02*
X174433Y188721D01*
X169671Y193483D01*
X169671Y200217D01*
X174433Y204979D01*
X181167Y204979D01*
X185929Y200217D01*
X185929Y193483D01*
X181167Y188721D01*
X174433Y188721D01*
G37*
%LPD*%
%LPC*%
G36*
X262381Y503681D02*
X262381Y503681D01*
X262381Y512192D01*
X264717Y512192D01*
X270892Y506017D01*
X270892Y503681D01*
X262381Y503681D01*
G37*
%LPD*%
%LPC*%
G36*
X249808Y503681D02*
X249808Y503681D01*
X249808Y506017D01*
X255983Y512192D01*
X258319Y512192D01*
X258319Y503681D01*
X249808Y503681D01*
G37*
%LPD*%
%LPC*%
G36*
X262381Y491108D02*
X262381Y491108D01*
X262381Y499619D01*
X270892Y499619D01*
X270892Y497283D01*
X264717Y491108D01*
X262381Y491108D01*
G37*
%LPD*%
%LPC*%
G36*
X255983Y491108D02*
X255983Y491108D01*
X249808Y497283D01*
X249808Y499619D01*
X258319Y499619D01*
X258319Y491108D01*
X255983Y491108D01*
G37*
%LPD*%
%LPC*%
G36*
X198881Y503681D02*
X198881Y503681D01*
X198881Y512001D01*
X199319Y511932D01*
X200897Y511419D01*
X202375Y510666D01*
X203718Y509691D01*
X204891Y508518D01*
X205866Y507175D01*
X206619Y505697D01*
X207132Y504119D01*
X207201Y503681D01*
X198881Y503681D01*
G37*
%LPD*%
%LPC*%
G36*
X198881Y499619D02*
X198881Y499619D01*
X207201Y499619D01*
X207132Y499181D01*
X206619Y497603D01*
X205866Y496125D01*
X204891Y494782D01*
X203718Y493609D01*
X202375Y492634D01*
X200897Y491881D01*
X199319Y491368D01*
X198881Y491299D01*
X198881Y499619D01*
G37*
%LPD*%
%LPC*%
G36*
X186499Y503681D02*
X186499Y503681D01*
X186568Y504119D01*
X187081Y505697D01*
X187834Y507175D01*
X188809Y508518D01*
X189982Y509691D01*
X191325Y510666D01*
X192803Y511419D01*
X194381Y511932D01*
X194819Y512001D01*
X194819Y503681D01*
X186499Y503681D01*
G37*
%LPD*%
%LPC*%
G36*
X194381Y491368D02*
X194381Y491368D01*
X192803Y491881D01*
X191325Y492634D01*
X189982Y493609D01*
X188809Y494782D01*
X187834Y496125D01*
X187081Y497603D01*
X186568Y499181D01*
X186499Y499619D01*
X194819Y499619D01*
X194819Y491299D01*
X194381Y491368D01*
G37*
%LPD*%
%LPC*%
G36*
X243585Y364235D02*
X243585Y364235D01*
X243585Y371603D01*
X245298Y371603D01*
X250953Y365948D01*
X250953Y364235D01*
X243585Y364235D01*
G37*
%LPD*%
%LPC*%
G36*
X268985Y389635D02*
X268985Y389635D01*
X268985Y397003D01*
X270698Y397003D01*
X276353Y391348D01*
X276353Y389635D01*
X268985Y389635D01*
G37*
%LPD*%
%LPC*%
G36*
X243585Y338835D02*
X243585Y338835D01*
X243585Y346203D01*
X245298Y346203D01*
X250953Y340548D01*
X250953Y338835D01*
X243585Y338835D01*
G37*
%LPD*%
%LPC*%
G36*
X243585Y389635D02*
X243585Y389635D01*
X243585Y397003D01*
X245298Y397003D01*
X250953Y391348D01*
X250953Y389635D01*
X243585Y389635D01*
G37*
%LPD*%
%LPC*%
G36*
X268985Y364235D02*
X268985Y364235D01*
X268985Y371603D01*
X270698Y371603D01*
X276353Y365948D01*
X276353Y364235D01*
X268985Y364235D01*
G37*
%LPD*%
%LPC*%
G36*
X268985Y338835D02*
X268985Y338835D01*
X268985Y346203D01*
X270698Y346203D01*
X276353Y340548D01*
X276353Y338835D01*
X268985Y338835D01*
G37*
%LPD*%
%LPC*%
G36*
X268985Y377697D02*
X268985Y377697D01*
X268985Y385065D01*
X276353Y385065D01*
X276353Y383352D01*
X270698Y377697D01*
X268985Y377697D01*
G37*
%LPD*%
%LPC*%
G36*
X243585Y377697D02*
X243585Y377697D01*
X243585Y385065D01*
X250953Y385065D01*
X250953Y383352D01*
X245298Y377697D01*
X243585Y377697D01*
G37*
%LPD*%
%LPC*%
G36*
X268985Y326897D02*
X268985Y326897D01*
X268985Y334265D01*
X276353Y334265D01*
X276353Y332552D01*
X270698Y326897D01*
X268985Y326897D01*
G37*
%LPD*%
%LPC*%
G36*
X243585Y326897D02*
X243585Y326897D01*
X243585Y334265D01*
X250953Y334265D01*
X250953Y332552D01*
X245298Y326897D01*
X243585Y326897D01*
G37*
%LPD*%
%LPC*%
G36*
X257047Y338835D02*
X257047Y338835D01*
X257047Y340548D01*
X262702Y346203D01*
X264415Y346203D01*
X264415Y338835D01*
X257047Y338835D01*
G37*
%LPD*%
%LPC*%
G36*
X257047Y389635D02*
X257047Y389635D01*
X257047Y391348D01*
X262702Y397003D01*
X264415Y397003D01*
X264415Y389635D01*
X257047Y389635D01*
G37*
%LPD*%
%LPC*%
G36*
X257047Y364235D02*
X257047Y364235D01*
X257047Y365948D01*
X262702Y371603D01*
X264415Y371603D01*
X264415Y364235D01*
X257047Y364235D01*
G37*
%LPD*%
%LPC*%
G36*
X231647Y364235D02*
X231647Y364235D01*
X231647Y365948D01*
X237302Y371603D01*
X239015Y371603D01*
X239015Y364235D01*
X231647Y364235D01*
G37*
%LPD*%
%LPC*%
G36*
X231647Y389635D02*
X231647Y389635D01*
X231647Y391348D01*
X237302Y397003D01*
X239015Y397003D01*
X239015Y389635D01*
X231647Y389635D01*
G37*
%LPD*%
%LPC*%
G36*
X268985Y352297D02*
X268985Y352297D01*
X268985Y359665D01*
X276353Y359665D01*
X276353Y357952D01*
X270698Y352297D01*
X268985Y352297D01*
G37*
%LPD*%
%LPC*%
G36*
X231647Y338835D02*
X231647Y338835D01*
X231647Y340548D01*
X237302Y346203D01*
X239015Y346203D01*
X239015Y338835D01*
X231647Y338835D01*
G37*
%LPD*%
%LPC*%
G36*
X243585Y352297D02*
X243585Y352297D01*
X243585Y359665D01*
X250953Y359665D01*
X250953Y357952D01*
X245298Y352297D01*
X243585Y352297D01*
G37*
%LPD*%
%LPC*%
G36*
X237302Y352297D02*
X237302Y352297D01*
X231647Y357952D01*
X231647Y359665D01*
X239015Y359665D01*
X239015Y352297D01*
X237302Y352297D01*
G37*
%LPD*%
%LPC*%
G36*
X262702Y352297D02*
X262702Y352297D01*
X257047Y357952D01*
X257047Y359665D01*
X264415Y359665D01*
X264415Y352297D01*
X262702Y352297D01*
G37*
%LPD*%
%LPC*%
G36*
X237302Y326897D02*
X237302Y326897D01*
X231647Y332552D01*
X231647Y334265D01*
X239015Y334265D01*
X239015Y326897D01*
X237302Y326897D01*
G37*
%LPD*%
%LPC*%
G36*
X262702Y377697D02*
X262702Y377697D01*
X257047Y383352D01*
X257047Y385065D01*
X264415Y385065D01*
X264415Y377697D01*
X262702Y377697D01*
G37*
%LPD*%
%LPC*%
G36*
X262702Y326897D02*
X262702Y326897D01*
X257047Y332552D01*
X257047Y334265D01*
X264415Y334265D01*
X264415Y326897D01*
X262702Y326897D01*
G37*
%LPD*%
%LPC*%
G36*
X237302Y377697D02*
X237302Y377697D01*
X231647Y383352D01*
X231647Y385065D01*
X239015Y385065D01*
X239015Y377697D01*
X237302Y377697D01*
G37*
%LPD*%
%LPC*%
G36*
X179831Y408431D02*
X179831Y408431D01*
X179831Y415545D01*
X181588Y415545D01*
X186945Y410188D01*
X186945Y408431D01*
X179831Y408431D01*
G37*
%LPD*%
%LPC*%
G36*
X179831Y865631D02*
X179831Y865631D01*
X179831Y872745D01*
X181588Y872745D01*
X186945Y867388D01*
X186945Y865631D01*
X179831Y865631D01*
G37*
%LPD*%
%LPC*%
G36*
X230631Y236981D02*
X230631Y236981D01*
X230631Y244095D01*
X232388Y244095D01*
X237745Y238738D01*
X237745Y236981D01*
X230631Y236981D01*
G37*
%LPD*%
%LPC*%
G36*
X281431Y97281D02*
X281431Y97281D01*
X281431Y104395D01*
X283188Y104395D01*
X288545Y99038D01*
X288545Y97281D01*
X281431Y97281D01*
G37*
%LPD*%
%LPC*%
G36*
X281431Y598931D02*
X281431Y598931D01*
X281431Y606045D01*
X283188Y606045D01*
X288545Y600688D01*
X288545Y598931D01*
X281431Y598931D01*
G37*
%LPD*%
%LPC*%
G36*
X230631Y814831D02*
X230631Y814831D01*
X230631Y821945D01*
X232388Y821945D01*
X237745Y816588D01*
X237745Y814831D01*
X230631Y814831D01*
G37*
%LPD*%
%LPC*%
G36*
X219455Y814831D02*
X219455Y814831D01*
X219455Y816588D01*
X224812Y821945D01*
X226569Y821945D01*
X226569Y814831D01*
X219455Y814831D01*
G37*
%LPD*%
%LPC*%
G36*
X270255Y97281D02*
X270255Y97281D01*
X270255Y99038D01*
X275612Y104395D01*
X277369Y104395D01*
X277369Y97281D01*
X270255Y97281D01*
G37*
%LPD*%
%LPC*%
G36*
X179831Y861569D02*
X179831Y861569D01*
X186945Y861569D01*
X186945Y859812D01*
X181588Y854455D01*
X179831Y854455D01*
X179831Y861569D01*
G37*
%LPD*%
%LPC*%
G36*
X179831Y404369D02*
X179831Y404369D01*
X186945Y404369D01*
X186945Y402612D01*
X181588Y397255D01*
X179831Y397255D01*
X179831Y404369D01*
G37*
%LPD*%
%LPC*%
G36*
X230631Y803655D02*
X230631Y803655D01*
X230631Y810769D01*
X237745Y810769D01*
X237745Y809012D01*
X232388Y803655D01*
X230631Y803655D01*
G37*
%LPD*%
%LPC*%
G36*
X281431Y86105D02*
X281431Y86105D01*
X281431Y93219D01*
X288545Y93219D01*
X288545Y91462D01*
X283188Y86105D01*
X281431Y86105D01*
G37*
%LPD*%
%LPC*%
G36*
X230631Y225805D02*
X230631Y225805D01*
X230631Y232919D01*
X237745Y232919D01*
X237745Y231162D01*
X232388Y225805D01*
X230631Y225805D01*
G37*
%LPD*%
%LPC*%
G36*
X281431Y587755D02*
X281431Y587755D01*
X281431Y594869D01*
X288545Y594869D01*
X288545Y593112D01*
X283188Y587755D01*
X281431Y587755D01*
G37*
%LPD*%
%LPC*%
G36*
X168655Y408431D02*
X168655Y408431D01*
X168655Y410188D01*
X174012Y415545D01*
X175769Y415545D01*
X175769Y408431D01*
X168655Y408431D01*
G37*
%LPD*%
%LPC*%
G36*
X168655Y865631D02*
X168655Y865631D01*
X168655Y867388D01*
X174012Y872745D01*
X175769Y872745D01*
X175769Y865631D01*
X168655Y865631D01*
G37*
%LPD*%
%LPC*%
G36*
X224812Y803655D02*
X224812Y803655D01*
X219455Y809012D01*
X219455Y810769D01*
X226569Y810769D01*
X226569Y803655D01*
X224812Y803655D01*
G37*
%LPD*%
%LPC*%
G36*
X275612Y86105D02*
X275612Y86105D01*
X270255Y91462D01*
X270255Y93219D01*
X277369Y93219D01*
X277369Y86105D01*
X275612Y86105D01*
G37*
%LPD*%
%LPC*%
G36*
X174012Y854455D02*
X174012Y854455D01*
X168655Y859812D01*
X168655Y861569D01*
X175769Y861569D01*
X175769Y854455D01*
X174012Y854455D01*
G37*
%LPD*%
%LPC*%
G36*
X174012Y397255D02*
X174012Y397255D01*
X168655Y402612D01*
X168655Y404369D01*
X175769Y404369D01*
X175769Y397255D01*
X174012Y397255D01*
G37*
%LPD*%
D10*
X228600Y596900D03*
X279400Y596900D03*
D11*
X279400Y812800D03*
X228600Y812800D03*
D10*
X228600Y95250D03*
X279400Y95250D03*
D11*
X279400Y234950D03*
X228600Y234950D03*
D12*
X222250Y501650D03*
D13*
X196850Y501650D03*
D14*
X260350Y501650D03*
D13*
X285750Y501650D03*
D15*
X70000Y867410D02*
X70000Y897890D01*
X17000Y897890D02*
X17000Y867410D01*
X128000Y867410D02*
X128000Y897890D01*
X70000Y783590D02*
X70000Y753110D01*
X17000Y753110D02*
X17000Y783590D01*
X128000Y783590D02*
X128000Y753110D01*
X70000Y669290D02*
X70000Y638810D01*
X17000Y638810D02*
X17000Y669290D01*
X128000Y669290D02*
X128000Y638810D01*
X70000Y554990D02*
X70000Y524510D01*
X17000Y524510D02*
X17000Y554990D01*
X128000Y554990D02*
X128000Y524510D01*
X70000Y402590D02*
X70000Y372110D01*
X17000Y372110D02*
X17000Y402590D01*
X128000Y402590D02*
X128000Y372110D01*
X70000Y288290D02*
X70000Y257810D01*
X17000Y257810D02*
X17000Y288290D01*
X128000Y288290D02*
X128000Y257810D01*
X70000Y173990D02*
X70000Y143510D01*
X17000Y143510D02*
X17000Y173990D01*
X128000Y173990D02*
X128000Y143510D01*
X70000Y59690D02*
X70000Y29210D01*
X17000Y29210D02*
X17000Y59690D01*
X128000Y59690D02*
X128000Y29210D01*
D16*
X285496Y628650D02*
X298704Y628650D01*
X298704Y654050D02*
X285496Y654050D01*
X285496Y781050D02*
X298704Y781050D01*
X222504Y781050D02*
X209296Y781050D01*
X285496Y679450D02*
X298704Y679450D01*
X298704Y704850D02*
X285496Y704850D01*
X285496Y755650D02*
X298704Y755650D01*
X298704Y730250D02*
X285496Y730250D01*
X222504Y755650D02*
X209296Y755650D01*
X209296Y730250D02*
X222504Y730250D01*
X222504Y704850D02*
X209296Y704850D01*
X209296Y679450D02*
X222504Y679450D01*
X222504Y654050D02*
X209296Y654050D01*
X209296Y628650D02*
X222504Y628650D01*
D17*
X286060Y127000D02*
X298140Y127000D01*
X298140Y152400D02*
X286060Y152400D01*
X286060Y177800D02*
X298140Y177800D01*
X298140Y203200D02*
X286060Y203200D01*
X221940Y203200D02*
X209860Y203200D01*
X209860Y177800D02*
X221940Y177800D01*
X221940Y152400D02*
X209860Y152400D01*
X209860Y127000D02*
X221940Y127000D01*
D18*
X266700Y311150D03*
X241300Y311150D03*
X266700Y336550D03*
X241300Y336550D03*
X266700Y361950D03*
X241300Y361950D03*
X266700Y387350D03*
X241300Y387350D03*
X266700Y412750D03*
X241300Y412750D03*
D19*
X177800Y787400D03*
X177800Y812800D03*
D20*
X177800Y742950D03*
X177800Y717550D03*
X177800Y609600D03*
X177800Y584200D03*
X177800Y342900D03*
X177800Y317500D03*
D19*
X177800Y196850D03*
X177800Y222250D03*
D20*
X177800Y152400D03*
X177800Y127000D03*
D19*
X177800Y406400D03*
X177800Y431800D03*
D20*
X177800Y863600D03*
X177800Y838200D03*
D21*
X70000Y863600D02*
X70000Y882650D01*
X70000Y863600D02*
X95400Y838200D01*
X177800Y838200D01*
X234950Y838200D01*
X254000Y819150D01*
X254000Y730250D02*
X215900Y730250D01*
X254000Y730250D02*
X254000Y819150D01*
X254000Y730250D02*
X254000Y679450D01*
X254000Y533400D01*
D22*
X254000Y533400D03*
X254000Y730250D03*
X254000Y679450D03*
D21*
X215900Y755650D02*
X215900Y781050D01*
X177800Y685800D02*
X177800Y609600D01*
X196850Y704850D02*
X196850Y742950D01*
X209550Y755650D01*
X215900Y755650D01*
X196850Y704850D02*
X177800Y685800D01*
X292100Y755650D02*
X292100Y781050D01*
X292100Y654050D02*
X292100Y628650D01*
D22*
X241300Y717550D03*
D21*
X70000Y412900D02*
X70000Y387350D01*
X70000Y412900D02*
X88900Y431800D01*
X177800Y431800D01*
X215900Y431800D02*
X215900Y203200D01*
D22*
X215900Y431800D03*
D21*
X215900Y444500D01*
X177800Y482600D01*
X177800Y546100D01*
X196850Y565150D01*
X196850Y666750D01*
X209550Y679450D01*
X215900Y679450D01*
X215900Y654050D02*
X215900Y628650D01*
X215900Y546100D01*
X165100Y546100D02*
X165100Y476250D01*
X196850Y444500D01*
X196850Y361950D01*
X177800Y342900D01*
D22*
X165100Y546100D03*
X215900Y546100D03*
D21*
X292100Y152400D02*
X292100Y127000D01*
X215900Y152400D02*
X215900Y177800D01*
X215900Y152400D02*
X177800Y152400D01*
D23*
X228600Y127000D02*
X228600Y95250D01*
X228600Y127000D02*
X215900Y127000D01*
X228600Y127000D02*
X241300Y127000D01*
X254000Y139700D01*
X254000Y311150D02*
X241300Y311150D01*
X254000Y311150D02*
X254000Y139700D01*
X266700Y800100D02*
X279400Y812800D01*
X266700Y800100D02*
X266700Y704850D01*
X292100Y704850D01*
X266700Y704850D02*
X266700Y520700D01*
X285750Y501650D01*
X266700Y311150D02*
X254000Y311150D01*
X241300Y412750D02*
X266700Y412750D01*
X241300Y412750D02*
X241300Y501650D01*
X241300Y596900D02*
X228600Y596900D01*
X241300Y596900D02*
X241300Y692150D01*
X228600Y704850D01*
X215900Y704850D01*
X241300Y596900D02*
X241300Y501650D01*
X222250Y501650D01*
X292100Y234950D02*
X292100Y203200D01*
X292100Y234950D02*
X304800Y247650D01*
X292100Y234950D02*
X279400Y234950D01*
X304800Y247650D02*
X304800Y387350D01*
X279400Y412750D01*
X266700Y412750D01*
D21*
X70000Y539750D02*
X70000Y558950D01*
X95250Y584200D01*
X177800Y584200D01*
X70000Y292250D02*
X70000Y273050D01*
X70000Y292250D02*
X95250Y317500D01*
X177800Y317500D01*
X69850Y177800D02*
X69850Y158900D01*
X70000Y158750D01*
X69850Y177800D02*
X95250Y203200D01*
X158750Y203200D01*
X177800Y222250D01*
X70000Y654050D02*
X70000Y673250D01*
X95250Y698500D01*
X158750Y698500D02*
X177800Y717550D01*
X158750Y698500D02*
X95250Y698500D01*
X95250Y812800D02*
X177800Y812800D01*
X70000Y787550D02*
X70000Y768350D01*
X70000Y787550D02*
X95250Y812800D01*
X69850Y44600D02*
X70000Y44450D01*
X69850Y44600D02*
X69850Y63500D01*
X95250Y88900D01*
X165100Y88900D01*
X177800Y101600D01*
X177800Y127000D01*
M02*
